{
.formatVersion = 3;
date = "2012-01-22 18:06:24 +0000";
familyName = Condiment;
fontMaster = (
{
customParameters = (
{
name = typoAscender;
value = 882;
},
{
name = typoDescender;
value = -641;
},
{
name = typoLineGap;
value = 0;
},
{
name = winAscent;
value = 882;
},
{
name = winDescent;
value = 641;
},
{
name = hheaAscender;
value = 882;
},
{
name = hheaDescender;
value = -641;
},
{
name = hheaLineGap;
value = 0;
}
);
id = "7e2a03ba-2254-48dc-b40c-8c8f8912cf0a";
metricValues = (
{
},
{
pos = -50;
},
{
pos = 50;
},
{
pos = 800;
},
{
pos = -200;
},
{
pos = 700;
},
{
pos = 650;
},
{
},
{
pos = 140;
},
{
pos = 700;
},
{
pos = 650;
},
{
},
{
pos = 477;
},
{
pos = 50;
},
{
pos = 250;
}
);
name = Regular;
visible = 1;
}
);
glyphs = (
{
category = Letter;
glyphname = exclam;
layers = (
{
layerId = "7e2a03ba-2254-48dc-b40c-8c8f8912cf0a";
name = Fore;
shapes = (
{
closed = 1;
nodes = (
(513,653,o),
(513,640,q),
(513,627,o),
(450,538,q),
(387,449,o),
(307,336,q),
(227,223,o),
(199,173,q),
(185,147,o),
(141,147,q),
(113,147,o),
(113,155,q),
(119,170,l),
(272,406,o),
(369,622,q),
(377,634,o),
(410.5,643.5,q),
(444,653,o),
(487,653,q),
(488,653,l)
);
},
{
closed = 1;
nodes = (
(93,3,o),
(68.5,3,q),
(44,3,o),
(31,12.5,q),
(18,22,o),
(18,38,q),
(18,69,o),
(48,88,q),
(78,107,o),
(108,107,q),
(151,107,o),
(153,72,q),
(153,42,o),
(123,22.5,q)
);
}
);
width = 276;
}
);
unicode = 33;
},
{
category = Letter;
glyphname = quotedbl;
layers = (
{
layerId = "7e2a03ba-2254-48dc-b40c-8c8f8912cf0a";
name = Fore;
shapes = (
{
closed = 1;
nodes = (
(451,698,o),
(451,664,q),
(451,659,l),
(448,631,o),
(392.5,572,q),
(337,513,o),
(314,513,q),
(309,513,o),
(309,530.5,q),
(309,548,o),
(322,587.5,q),
(335,627,o),
(335,629,q),
(356,698,o),
(417,698,q)
);
},
{
closed = 1;
nodes = (
(598,698,o),
(598,664,q),
(598,659,l),
(595,631,o),
(539.5,572,q),
(484,513,o),
(461,513,q),
(456,513,o),
(456,530.5,q),
(456,548,o),
(469,587.5,q),
(482,627,o),
(482,629,q),
(503,698,o),
(564,698,q)
);
}
);
width = 308;
}
);
unicode = 34;
},
{
category = Letter;
glyphname = numbersign;
layers = (
{
layerId = "7e2a03ba-2254-48dc-b40c-8c8f8912cf0a";
name = Fore;
shapes = (
{
closed = 1;
nodes = (
(507,461,l),
(542,521,l),
(562,555,o),
(612,555,q),
(640,555,o),
(640,544,q),
(633,529,l),
(613,498,o),
(591,461,q),
(675,464,l),
(688,464,o),
(688,455,q),
(688,441,o),
(667,415,q),
(646,389,o),
(615,389,q),
(550,389,l),
(499,300,l),
(581,303,l),
(595,303,o),
(595,293,q),
(595,280,o),
(573.5,254,q),
(552,228,o),
(522,228,q),
(459,228,l),
(425,169,l),
(405,135,o),
(356,135,q),
(328,135,o),
(328,146,q),
(334,161,l),
(340,170,o),
(354.5,194,q),
(369,218,o),
(376,229,q),
(340,230,o),
(267,230,q),
(232,169,l),
(212,135,o),
(163,135,q),
(135,135,o),
(135,146,q),
(141,161,l),
(163,195,o),
(183,230,q),
(99,227,l),
(85,227,o),
(85,237,q),
(85,250,o),
(106.5,276,q),
(128,302,o),
(158,302,q),
(225,302,l),
(231,313,o),
(248.5,343.5,q),
(266,374,o),
(275,391,q),
(237,391,o),
(199,389,q),
(194,389,l),
(179,389,o),
(179,398,q),
(179,412,o),
(200.5,438,q),
(222,464,o),
(252,464,q),
(316,464,l),
(344,513,o),
(349,521,q),
(369,555,o),
(419,555,q),
(447,555,o),
(447,544,q),
(440,529,l),
(425,505,o),
(399,462,q)
);
},
{
closed = 1;
nodes = (
(431,391,o),
(358,391,q),
(307,300,l),
(417,300,l),
(468,390,l)
);
}
);
width = 558;
}
);
unicode = 35;
},
{
category = Letter;
glyphname = dollar;
layers = (
{
layerId = "7e2a03ba-2254-48dc-b40c-8c8f8912cf0a";
name = Fore;
shapes = (
{
closed = 1;
nodes = (
(435,417,l),
(465,384,o),
(480.5,363.5,q),
(496,343,o),
(512.5,307,q),
(529,271,o),
(529,235,q),
(529,134,o),
(445.5,65,q),
(362,-4,o),
(231,-4,q),
(217,-4,o),
(197,-2,q),
(189,-16,l),
(172,-43,o),
(143.5,-43,q),
(115,-43,o),
(115,-32,q),
(115,-26,o),
(119,-21,q),
(138,10,l),
(112,20,l),
(108,20,o),
(103,17,q),
(60,-2,o),
(22,-2,q),
(-16,-2,o),
(-16,16,q),
(-16,34,o),
(19.5,103,q),
(55,172,o),
(104,237.5,q),
(153,303,o),
(183,303,q),
(188,304,o),
(193,304,q),
(211,304,o),
(211,293,q),
(211,292,o),
(198,270,q),
(159,204,o),
(159,141,q),
(159,104,o),
(181,81,q),
(341,361,l),
(311,394,o),
(297,410.5,q),
(283,427,o),
(268,456,q),
(253,485,o),
(253,510,q),
(253,559,o),
(282,595.5,q),
(311,632,o),
(356,650,q),
(440,684,o),
(517,684,q),
(524,684,l),
(535,702,l),
(552,729,o),
(581.5,729,q),
(611,729,o),
(611,719,q),
(605,707,l),
(586,677,l),
(622,668,l),
(628,668,o),
(631,670,q),
(661,686,o),
(694,686,q),
(727,686,o),
(727,670,q),
(727,643,o),
(663.5,549.5,q),
(600,456,o),
(568,456,q),
(542,456,o),
(542,467,q),
(542,469,o),
(549,481,q),
(570,517,o),
(570,569,q),
(570,594,o),
(547,611,q)
);
},
{
closed = 1;
nodes = (
(236,56,o),
(255.5,56,q),
(275,56,o),
(302.5,63.5,q),
(330,71,o),
(357,87,q),
(384,103,o),
(401,135,q),
(418,167,o),
(418,213.5,q),
(418,260,o),
(378,316,q),
(231,57,l)
);
},
{
closed = 1;
nodes = (
(373,554,o),
(373,526,q),
(373,498,o),
(398,463,q),
(491,626,l),
(457,624,o),
(428.5,609,q),
(400,594,o),
(386.5,574,q)
);
}
);
width = 504;
}
);
unicode = 36;
},
{
category = Letter;
glyphname = percent;
layers = (
{
layerId = "7e2a03ba-2254-48dc-b40c-8c8f8912cf0a";
name = Fore;
shapes = (
{
closed = 1;
nodes = (
(366,-7,o),
(346,11.5,q),
(326,30,o),
(326,63,q),
(326,147,o),
(398.5,228,q),
(471,309,o),
(550,309,q),
(586,309,o),
(606,290.5,q),
(626,272,o),
(626,239,q),
(626,159,o),
(554.5,76,q),
(483,-7,o),
(401,-7,q)
);
},
{
closed = 1;
nodes = (
(562,279,o),
(534,279,q),
(491,279,o),
(441.5,201.5,q),
(392,124,o),
(392,62,q),
(392,26,o),
(420,26,q),
(463,26,o),
(512.5,103,q),
(562,180,o),
(562,242,q)
);
},
{
closed = 1;
nodes = (
(92,-6,o),
(59.5,-6,q),
(27,-6,o),
(27,5,q),
(27,10,o),
(33,17,q),
(64,46,l),
(595,589,o),
(674,673,q),
(696,697,o),
(728.5,697,q),
(761,697,o),
(761,686,q),
(761,681,o),
(754,674,q),
(723,645,l),
(208,119,o),
(113,17,q)
);
},
{
closed = 1;
nodes = (
(209,388,o),
(189,406.5,q),
(169,425,o),
(169,458,q),
(169,542,o),
(241.5,623,q),
(314,704,o),
(393,704,q),
(429,704,o),
(449,685.5,q),
(469,667,o),
(469,634,q),
(469,554,o),
(397.5,471,q),
(326,388,o),
(244,388,q)
);
},
{
closed = 1;
nodes = (
(405,674,o),
(377,674,q),
(334,674,o),
(284.5,596.5,q),
(235,519,o),
(235,457,q),
(235,421,o),
(263,421,q),
(306,421,o),
(355.5,498,q),
(405,575,o),
(405,637,q)
);
}
);
width = 577;
}
);
unicode = 37;
},
{
category = Letter;
glyphname = ampersand;
layers = (
{
layerId = "7e2a03ba-2254-48dc-b40c-8c8f8912cf0a";
name = Fore;
shapes = (
{
closed = 1;
nodes = (
(512,223,l),
(521,223,o),
(521,206,q),
(521,189,o),
(512,171,q),
(503,153,o),
(492,144,q),
(463,120,o),
(463,108,q),
(463,85,o),
(474,45.5,q),
(485,6,o),
(488.5,3,q),
(492,0,o),
(492,-5,q),
(492,-10,o),
(486.5,-16,q),
(481,-22,o),
(475,-22,q),
(398,-22,o),
(374,14,q),
(368,22,o),
(366,34,q),
(362,40,o),
(355,40,q),
(346,38,l),
(274,-1,o),
(211.5,-1,q),
(149,-1,o),
(103,27.5,q),
(57,56,o),
(57,117.5,q),
(57,179,o),
(85,232.5,q),
(113,286,o),
(157,324,q),
(243,397,o),
(333,426,q),
(345,428,o),
(345,443,q),
(345,504,o),
(351,525,q),
(362,580,o),
(420.5,630.5,q),
(479,681,o),
(573,681,q),
(651,681,o),
(676,644,q),
(684,631,o),
(684,608.5,q),
(684,586,o),
(667.5,558,q),
(651,530,o),
(618,506,q),
(568,470,o),
(535,454,q),
(502,438,o),
(498,435,q),
(494,432,o),
(483,423,q),
(472,414,o),
(464,404,q),
(441,376,o),
(441,335,q),
(441,294,o),
(443,269.5,q),
(445,245,o),
(446,240,q),
(447,235,o),
(455.5,226,q),
(464,217,o),
(480,217,q)
);
},
{
closed = 1;
nodes = (
(286,350,o),
(229.5,288,q),
(173,226,o),
(173,163,q),
(173,126,o),
(194,103,q),
(203,93,o),
(223,84.5,q),
(243,76,o),
(274,76,q),
(305,76,o),
(332,94,q),
(359,112,o),
(359,126,q),
(359,127,l),
(345,234,o),
(344,331,q),
(344,350,o),
(326,350,q)
);
},
{
closed = 1;
nodes = (
(579,565,o),
(579,594.5,q),
(579,624,o),
(543.5,624,q),
(508,624,o),
(479,588.5,q),
(450,553,o),
(450,515,q),
(450,491,o),
(475.5,491,q),
(501,491,o),
(540,528,q)
);
}
);
width = 528;
}
);
unicode = 38;
},
{
category = Letter;
glyphname = quotesingle;
layers = (
{
layerId = "7e2a03ba-2254-48dc-b40c-8c8f8912cf0a";
name = Fore;
shapes = (
{
closed = 1;
nodes = (
(451,698,o),
(451,664,q),
(451,659,l),
(448,631,o),
(392.5,572,q),
(337,513,o),
(314,513,q),
(309,513,o),
(309,530.5,q),
(309,548,o),
(322,587.5,q),
(335,627,o),
(335,629,q),
(356,698,o),
(417,698,q)
);
}
);
width = 158;
}
);
unicode = 39;
},
{
category = Letter;
glyphname = parenleft;
layers = (
{
layerId = "7e2a03ba-2254-48dc-b40c-8c8f8912cf0a";
name = Fore;
shapes = (
{
closed = 1;
nodes = (
(133,-56,o),
(117,-58,q),
(81,-58,o),
(72,-22,q),
(66,7,o),
(66,57,q),
(66,144,o),
(97.5,243.5,q),
(129,343,o),
(180,428.5,q),
(231,514,o),
(290,585.5,q),
(349,657,o),
(410,698,q),
(471,739,o),
(512,739,q),
(553,739,o),
(553,729,q),
(553,724,o),
(545,719,q),
(455,656,o),
(387,577.5,q),
(319,499,o),
(240,346,q),
(132,136,o),
(132,-14,q),
(133,-44,l)
);
}
);
width = 256;
}
);
unicode = 40;
},
{
category = Letter;
glyphname = parenright;
layers = (
{
layerId = "7e2a03ba-2254-48dc-b40c-8c8f8912cf0a";
name = Fore;
shapes = (
{
closed = 1;
nodes = (
(326,737,o),
(343.5,738,q),
(361,739,o),
(372,730.5,q),
(383,722,o),
(388,702,q),
(394,674,o),
(394,624,q),
(394,518,o),
(345.5,393,q),
(297,268,o),
(227.5,170.5,q),
(158,73,o),
(79.5,7.5,q),
(1,-58,o),
(-57,-58,q),
(-93,-58,o),
(-93,-48,q),
(-93,-43,o),
(-85,-38,q),
(5,25,o),
(73,103.5,q),
(141,182,o),
(219,334,q),
(327,544,o),
(327,694,q),
(326,725,l)
);
}
);
width = 267;
}
);
unicode = 41;
},
{
category = Letter;
glyphname = asterisk;
layers = (
{
layerId = "7e2a03ba-2254-48dc-b40c-8c8f8912cf0a";
name = Fore;
shapes = (
{
closed = 1;
nodes = (
(347,555,o),
(334,522.5,q),
(321,490,o),
(305,490,q),
(279,490,o),
(276,500,q),
(275,504,l),
(275,512,o),
(290.5,533.5,q),
(306,555,o),
(306,564.5,q),
(306,574,o),
(298,574,q),
(290,574,o),
(262,562.5,q),
(234,551,o),
(226,551,q),
(215,551,o),
(215,565,q),
(215,590,o),
(237,596,q),
(287,604,o),
(294,609.5,q),
(301,615,o),
(301,623,q),
(301,631,o),
(280,646,q),
(259,661,o),
(259,671,q),
(259,681,o),
(271.5,689,q),
(284,697,o),
(294,697,q),
(300,697,o),
(314,674,q),
(328,651,o),
(339,651,q),
(350,651,o),
(356,661.5,q),
(362,672,o),
(366,685,q),
(376,719,o),
(403,719,q),
(430,719,o),
(430,708,q),
(430,701,o),
(414,677.5,q),
(398,654,o),
(398,645,q),
(398,636,o),
(406.5,636,q),
(415,636,o),
(440.5,643,q),
(466,650,o),
(477,650,q),
(488,650,o),
(488,641,q),
(488,606,o),
(471,606,q),
(464,606,l),
(401,606,o),
(401,584,q),
(401,571,o),
(420.5,553,q),
(440,535,o),
(440,529,q),
(440,523,o),
(429.5,514.5,q),
(419,506,o),
(406,506,q),
(399,506,o),
(383,530.5,q),
(367,555,o),
(355,555,q)
);
}
);
width = 235;
}
);
unicode = 42;
},
{
category = Letter;
glyphname = plus;
layers = (
{
layerId = "7e2a03ba-2254-48dc-b40c-8c8f8912cf0a";
name = Fore;
shapes = (
{
closed = 1;
nodes = (
(411,325,l),
(409,325,l),
(374,260,o),
(330,185,q),
(310,151,o),
(260,151,q),
(232,151,o),
(232,162,q),
(239,177,l),
(268,222,o),
(328,326,q),
(274,326,l),
(148,323,l),
(134,323,o),
(134,333,q),
(134,346,o),
(155.5,372,q),
(177,398,o),
(207,398,q),
(368,397,l),
(403,462,o),
(447,537,q),
(467,571,o),
(516,571,q),
(545,571,o),
(545,560,q),
(538,545,l),
(494,477,o),
(450,396,q),
(523,395,l),
(574,395,o),
(601,397,q),
(628,399,o),
(629,399,q),
(643,399,o),
(643,389,q),
(643,376,o),
(621.5,350,q),
(600,324,o),
(570,324,q)
);
}
);
width = 538;
}
);
unicode = 43;
},
{
category = Letter;
glyphname = comma;
layers = (
{
layerId = "7e2a03ba-2254-48dc-b40c-8c8f8912cf0a";
name = Fore;
shapes = (
{
closed = 1;
nodes = (
(163,11,o),
(118.5,-30,q),
(74,-71,o),
(35,-71,q),
(19,-71,o),
(19,-64,q),
(21,-59,l),
(65,-34,o),
(65,-11,q),
(65,-2,o),
(59,-2,q),
(29,5,o),
(29,30.5,q),
(29,56,o),
(55,79,q),
(81,102,o),
(115,102,q),
(163,102,o),
(163,65,q)
);
}
);
width = 211;
}
);
unicode = 44;
},
{
category = Letter;
glyphname = hyphen;
layers = (
{
layerId = "7e2a03ba-2254-48dc-b40c-8c8f8912cf0a";
name = Fore;
shapes = (
{
closed = 1;
nodes = (
(382,140,o),
(78,139,q),
(65,139,o),
(65,149,q),
(65,162,o),
(86,186.5,q),
(107,211,o),
(137,211,q),
(440,211,l),
(454,211,o),
(454,202,q),
(454,188,o),
(433.5,164,q),
(413,140,o),
(382,140,q)
);
}
);
width = 454;
}
);
unicode = 45;
},
{
category = Letter;
glyphname = period;
layers = (
{
layerId = "7e2a03ba-2254-48dc-b40c-8c8f8912cf0a";
name = Fore;
shapes = (
{
closed = 1;
nodes = (
(66,102,o),
(94,102,q),
(149,102,o),
(149,67,q),
(149,41,o),
(123,19,q),
(97,-3,o),
(68,-3,q),
(14,-3,o),
(14,33,q),
(14,57,o),
(40,79.5,q)
);
}
);
width = 197;
}
);
unicode = 46;
},
{
category = Letter;
glyphname = slash;
layers = (
{
layerId = "7e2a03ba-2254-48dc-b40c-8c8f8912cf0a";
name = Fore;
shapes = (
{
closed = 1;
nodes = (
(-48,-52,o),
(-48,-40,q),
(-48,-34,o),
(-41,-26,q),
(-28,-16,o),
(279.5,298.5,q),
(587,613,o),
(671,703,q),
(696,729,o),
(755,729,q),
(785,729,o),
(785,717,q),
(785,712,o),
(778,704,q),
(747,672,o),
(475,396.5,q),
(203,121,o),
(67,-26,q),
(42,-52,o),
(-19,-52,q)
);
}
);
width = 380;
}
);
unicode = 47;
},
{
category = Letter;
glyphname = zero;
layers = (
{
layerId = "7e2a03ba-2254-48dc-b40c-8c8f8912cf0a";
name = Fore;
shapes = (
{
closed = 1;
nodes = (
(307,-9,o),
(231,-9,q),
(155,-9,o),
(114.5,32.5,q),
(74,74,o),
(74,149,q),
(74,201,o),
(95.5,270.5,q),
(117,340,o),
(159,414,q),
(201,488,o),
(255.5,550.5,q),
(310,613,o),
(385,653.5,q),
(460,694,o),
(536,694,q),
(612,694,o),
(653,652.5,q),
(694,611,o),
(694,536,q),
(694,482,o),
(672,411.5,q),
(650,341,o),
(607.5,267.5,q),
(565,194,o),
(510.5,132,q),
(456,70,o),
(381.5,30.5,q)
);
},
{
closed = 1;
nodes = (
(586,459,o),
(586,550,q),
(586,641,o),
(520,641,q),
(454,641,o),
(374,554,q),
(294,467,o),
(240,347,q),
(186,227,o),
(186,138.5,q),
(186,50,o),
(254,50,q),
(318,50,o),
(397.5,135,q),
(477,220,o),
(531.5,339.5,q)
);
}
);
width = 561;
}
);
unicode = 48;
},
{
category = Letter;
glyphname = one;
layers = (
{
layerId = "7e2a03ba-2254-48dc-b40c-8c8f8912cf0a";
name = Fore;
shapes = (
{
closed = 1;
nodes = (
(163,26,l),
(163,-5,o),
(77.5,-5,q),
(-8,-5,o),
(-8,19,q),
(-3,30,l),
(28,53,o),
(110,183,q),
(192,313,o),
(286,491,q),
(295,512,o),
(295,528.5,q),
(295,545,o),
(276.5,551.5,q),
(258,558,o),
(239.5,559,q),
(221,560,o),
(221,567,q),
(221,600,o),
(319.5,645,q),
(418,690,o),
(480,690,q),
(510,690,o),
(510,674,q),
(510,662,o),
(497,649,q),
(456,596,o),
(317.5,359,q),
(179,122,o),
(167,67,q),
(162,44,o),
(162,38,q)
);
}
);
width = 261;
}
);
unicode = 49;
},
{
category = Letter;
glyphname = two;
layers = (
{
layerId = "7e2a03ba-2254-48dc-b40c-8c8f8912cf0a";
name = Fore;
shapes = (
{
closed = 1;
nodes = (
(49,-3,l),
(7,-3,o),
(7,11,q),
(7,15,o),
(8,18,q),
(28,89,o),
(95,162.5,q),
(162,236,o),
(242,295,q),
(322,354,o),
(399.5,407,q),
(477,460,o),
(529,507,q),
(581,554,o),
(581,587,q),
(581,604,o),
(570,614,q),
(553,627,o),
(533,627,q),
(480,627,o),
(428.5,600,q),
(377,573,o),
(352,546,q),
(326,519,l),
(302,501,o),
(285.5,501,q),
(269,501,o),
(269,511,q),
(269,512,l),
(270,527,o),
(330.5,614.5,q),
(391,702,o),
(416,704,q),
(462,704,o),
(491,681,q),
(531,697,o),
(617,697,q),
(630,697,o),
(651,690,q),
(672,683,o),
(686,675,q),
(700,667,o),
(711.5,650,q),
(723,633,o),
(723,611,q),
(723,563,o),
(670.5,506,q),
(618,449,o),
(542.5,396,q),
(467,343,o),
(391.5,290.5,q),
(316,238,o),
(263.5,184.5,q),
(211,131,o),
(211,89,q),
(211,59,o),
(267,59,q),
(303,59,o),
(340.5,74.5,q),
(378,90,o),
(406,112,q),
(463,155,o),
(493,194,q),
(505,210,l),
(522,227,o),
(540,227,q),
(558,227,o),
(558,217,q),
(555,191,o),
(494.5,94,q),
(434,-3,o),
(407,-3,q),
(239,1,l)
);
}
);
width = 537;
}
);
unicode = 50;
},
{
category = Letter;
glyphname = three;
layers = (
{
layerId = "7e2a03ba-2254-48dc-b40c-8c8f8912cf0a";
name = Fore;
shapes = (
{
closed = 1;
nodes = (
(427,308,o),
(412,325.5,q),
(397,343,o),
(372,351,q),
(328,365,o),
(281,365,q),
(269,365,o),
(269,375,q),
(269,393,o),
(286.5,410.5,q),
(304,428,o),
(320,428,q),
(443,428,o),
(510.5,476,q),
(578,524,o),
(582,575,q),
(582,629,o),
(522,629,q),
(461,629,o),
(414,600,q),
(372,573,o),
(356,554,q),
(349,546,l),
(337,530,o),
(317.5,530,q),
(298,530,o),
(298,539,q),
(298,541,l),
(299,555,o),
(347,625.5,q),
(395,696,o),
(418,698,q),
(425,698,l),
(467,698,o),
(491,677,q),
(508,693,o),
(592,693,q),
(641,693,o),
(669,662,q),
(697,631,o),
(697,591,q),
(697,551,o),
(674,515,q),
(651,479,o),
(618,459.5,q),
(585,440,o),
(552,426.5,q),
(519,413,o),
(495.5,403.5,q),
(472,394,o),
(471,387,q),
(471,386,l),
(471,378,o),
(482,370.5,q),
(493,363,o),
(506,356,q),
(519,349,o),
(530,327,q),
(541,305,o),
(541,272,q),
(541,195,o),
(490.5,129,q),
(440,63,o),
(366,28,q),
(292,-7,o),
(213.5,-7,q),
(135,-7,o),
(89,0,q),
(43,7,o),
(32,16,q),
(21,25,o),
(21,38,q),
(21,40,l),
(22,55,o),
(48,108,q),
(74,161,o),
(113,213,q),
(152,265,o),
(181,265,q),
(196,265,o),
(196,257,q),
(196,255,o),
(195,254,q),
(158,180,o),
(158,121,q),
(158,51,o),
(223,51,q),
(292,51,o),
(359.5,123.5,q),
(427,196,o),
(427,283,q)
);
}
);
width = 509;
}
);
unicode = 51;
},
{
category = Letter;
glyphname = four;
layers = (
{
layerId = "7e2a03ba-2254-48dc-b40c-8c8f8912cf0a";
name = Fore;
shapes = (
{
closed = 1;
nodes = (
(703,622,o),
(628,494.5,q),
(553,367,o),
(486,246,q),
(533,248,o),
(540,249,q),
(541,249,l),
(551,249,o),
(551,236,q),
(551,223,o),
(533.5,201,q),
(516,179,o),
(490,179,q),
(449,179,l),
(408,104,o),
(399,81.5,q),
(390,59,o),
(384.5,43.5,q),
(379,28,o),
(377,23,q),
(370,5,o),
(357,0,q),
(344,-5,o),
(305,-5,q),
(236,-5,o),
(236,16,q),
(236,23,o),
(258,53,q),
(292,103,o),
(338,177,q),
(314,177,l),
(91,177,o),
(91,219,q),
(91,261,o),
(189,361.5,q),
(287,462,o),
(400.5,552,q),
(514,642,o),
(562,666.5,q),
(610,691,o),
(678,691,q),
(726,691,o),
(731.5,685.5,q),
(737,680,o),
(737,674,q),
(737,668,o),
(724,649,q)
);
},
{
closed = 1;
nodes = (
(537,551,o),
(525,551,q),
(494,551,o),
(424,496,q),
(354,441,o),
(296.5,375.5,q),
(239,310,o),
(239,282,q),
(239,251,o),
(379,245,q),
(440,347,o),
(534,524,q),
(537,531,o),
(537,538,q)
);
}
);
width = 519;
}
);
unicode = 52;
},
{
category = Letter;
glyphname = five;
layers = (
{
layerId = "7e2a03ba-2254-48dc-b40c-8c8f8912cf0a";
name = Fore;
shapes = (
{
closed = 1;
nodes = (
(683,699,o),
(683,682.5,q),
(683,666,o),
(658,627,q),
(633,588,o),
(616,579,q),
(606,573,o),
(587,573,q),
(568,573,o),
(525.5,577,q),
(483,581,o),
(456.5,581,q),
(430,581,o),
(407,569.5,q),
(384,558,o),
(369,542,q),
(337,507,o),
(326,480,q),
(321,469,l),
(321,454,o),
(336,454,q),
(341,454,o),
(363.5,457.5,q),
(386,461,o),
(401,461,q),
(416,461,o),
(434,456.5,q),
(452,452,o),
(475,441,q),
(498,430,o),
(513.5,405.5,q),
(529,381,o),
(529,345,q),
(529,309,o),
(513.5,262,q),
(498,215,o),
(467.5,168,q),
(437,121,o),
(396,81.5,q),
(355,42,o),
(299,17.5,q),
(243,-7,o),
(182,-7,q),
(21,-7,o),
(21,39,q),
(21,54,o),
(47,107.5,q),
(73,161,o),
(112.5,213,q),
(152,265,o),
(181,265,q),
(196,265,o),
(196,257,q),
(196,256,o),
(192,248,q),
(188,240,o),
(182.5,226,q),
(177,212,o),
(171,196,q),
(157,159,o),
(157,123,q),
(157,57,o),
(221,57,q),
(263,57,o),
(309,100.5,q),
(355,144,o),
(384.5,207,q),
(414,270,o),
(414,325,q),
(414,398,o),
(310,398,q),
(263,398,o),
(228,388,q),
(215,385,l),
(203,385,o),
(203,395,q),
(203,398,l),
(204,413,o),
(287.5,546,q),
(371,679,o),
(388,679,q),
(401,687,o),
(462.5,687,q),
(524,687,o),
(584,683,q),
(614,699,o),
(671,699,q)
);
}
);
width = 476;
}
);
unicode = 53;
},
{
category = Letter;
glyphname = six;
layers = (
{
layerId = "7e2a03ba-2254-48dc-b40c-8c8f8912cf0a";
name = Fore;
shapes = (
{
closed = 1;
nodes = (
(319,47,o),
(378,121,q),
(437,195,o),
(437,288,q),
(437,325,o),
(417.5,353.5,q),
(398,382,o),
(358,382,q),
(318,382,o),
(291,366,q),
(264,350,o),
(252,331,q),
(230,295,o),
(212.5,240,q),
(195,185,o),
(195,140,q),
(195,47,o),
(260,47,q)
);
},
{
closed = 1;
nodes = (
(462,88,o),
(388.5,37,q),
(315,-14,o),
(239,-14,q),
(163,-14,o),
(123.5,28.5,q),
(84,71,o),
(84,130.5,q),
(84,190,o),
(106.5,262,q),
(129,334,o),
(173,409.5,q),
(217,485,o),
(273.5,549.5,q),
(330,614,o),
(406.5,655,q),
(483,696,o),
(562,696,q),
(612,696,o),
(635,683,q),
(639,681,o),
(642.5,681,q),
(646,681,o),
(656,684,q),
(683,694,o),
(710.5,694,q),
(738,694,o),
(738,681,q),
(738,657,o),
(690,583,q),
(642,509,o),
(610,489,q),
(600,484,o),
(593,484,q),
(573,484,o),
(573,496,q),
(573,497,o),
(578,508,q),
(591,541,o),
(591,586,q),
(591,607,o),
(576,620.5,q),
(561,634,o),
(528.5,634,q),
(496,634,o),
(445,597.5,q),
(394,561,o),
(359.5,516.5,q),
(325,472,o),
(325,453.5,q),
(325,435,o),
(339,435,q),
(367,440,l),
(395,445,o),
(413,445,q),
(431,445,o),
(444,443,q),
(457,441,o),
(475.5,432.5,q),
(494,424,o),
(508,410,q),
(544,376,o),
(544,306.5,q),
(544,237,o),
(503,162.5,q)
);
}
);
width = 504;
}
);
unicode = 54;
},
{
category = Letter;
glyphname = seven;
layers = (
{
layerId = "7e2a03ba-2254-48dc-b40c-8c8f8912cf0a";
name = Fore;
shapes = (
{
closed = 1;
nodes = (
(48,-7,o),
(38,-2.5,q),
(28,2,o),
(26,6,q),
(24,11,l),
(24,60,o),
(70,133,q),
(116,206,o),
(182,277,q),
(248,348,o),
(313.5,414.5,q),
(379,481,o),
(425,532.5,q),
(471,584,o),
(471,599.5,q),
(471,615,o),
(454.5,621.5,q),
(438,628,o),
(417.5,628,q),
(397,628,o),
(365,617,q),
(333,606,o),
(308,590,q),
(264,562,o),
(232,530,q),
(221,519,l),
(202,501,o),
(185.5,501,q),
(169,501,o),
(169,512,q),
(170,527,o),
(231.5,616.5,q),
(293,706,o),
(318,708,q),
(361,708,o),
(385,687,q),
(425,693,o),
(495,693,q),
(643,693,o),
(643,659,q),
(643,614,o),
(528,510,q),
(418,411,o),
(302,286,q),
(248,227,o),
(204.5,155,q),
(161,83,o),
(147,17,q),
(151,-7,o),
(65,-7,q)
);
}
);
width = 299;
}
);
unicode = 55;
},
{
category = Letter;
glyphname = eight;
layers = (
{
layerId = "7e2a03ba-2254-48dc-b40c-8c8f8912cf0a";
name = Fore;
shapes = (
{
closed = 1;
nodes = (
(525,371,o),
(535,361,q),
(575,317,o),
(575,267,q),
(575,144,o),
(482.5,70,q),
(390,-4,o),
(257,-4,q),
(210,-4,o),
(174,9,q),
(138,22,o),
(119,39.5,q),
(100,57,o),
(88,78,q),
(70,111,o),
(70,138,q),
(70,230,o),
(129,284.5,q),
(188,339,o),
(291,376,q),
(321,387,o),
(321,405,q),
(321,412,o),
(315,420,q),
(289,450,o),
(289,492,q),
(289,558,o),
(368.5,624.5,q),
(448,691,o),
(567,691,q),
(613,691,o),
(651,677,q),
(725,650,o),
(725,575,q),
(725,511,o),
(677,470.5,q),
(629,430,o),
(548,403,q),
(525,395,o),
(525,381,q)
);
},
{
closed = 1;
nodes = (
(349,57,o),
(401.5,106,q),
(454,155,o),
(454,231,q),
(454,265,o),
(429,304.5,q),
(404,344,o),
(375,344,q),
(329,344,o),
(260,296,q),
(228,274,o),
(205,234.5,q),
(182,195,o),
(182,150,q),
(182,105,o),
(206,81,q),
(230,57,o),
(272,57,q)
);
},
{
closed = 1;
nodes = (
(620,517,o),
(620,556,q),
(620,595,o),
(596.5,614,q),
(573,633,o),
(535.5,633,q),
(498,633,o),
(470,620,q),
(442,607,o),
(429,589,q),
(404,554,o),
(404,536,q),
(404,489,o),
(449,444,q),
(455,435,o),
(465.5,435,q),
(476,435,o),
(485,438,q),
(550,461,o),
(585,489,q)
);
}
);
width = 551;
}
);
unicode = 56;
},
{
category = Letter;
glyphname = nine;
layers = (
{
layerId = "7e2a03ba-2254-48dc-b40c-8c8f8912cf0a";
name = Fore;
shapes = (
{
closed = 1;
nodes = (
(265,599,o),
(338,648,q),
(411,697,o),
(486.5,697,q),
(562,697,o),
(602,654.5,q),
(642,612,o),
(642,552.5,q),
(642,493,o),
(621.5,421.5,q),
(601,350,o),
(559,274,q),
(517,198,o),
(461.5,133.5,q),
(406,69,o),
(327.5,28,q),
(249,-13,o),
(164,-13,q),
(114,-13,o),
(91,0,q),
(87,2,o),
(82,2,q),
(60,-4,l),
(37,-11,o),
(12,-11,q),
(-13,-11,o),
(-13,2,q),
(-13,30,o),
(44.5,114.5,q),
(102,199,o),
(130,199,q),
(135,199,l),
(153,199,o),
(153,187,q),
(153,186,o),
(148,174,q),
(134,137,o),
(134,97,q),
(134,76,o),
(149.5,62.5,q),
(165,49,o),
(192,49,q),
(257,49,o),
(328.5,123,q),
(400,197,o),
(400,240,q),
(400,255,o),
(385,255,q),
(376,255,o),
(367,251,q),
(335,246,o),
(315.5,246,q),
(296,246,o),
(283,248,q),
(270,250,o),
(251.5,258.5,q),
(233,267,o),
(218,281,q),
(183,315,o),
(183,384.5,q),
(183,454,o),
(224,526.5,q)
);
},
{
closed = 1;
nodes = (
(406,636,o),
(348,566,q),
(290,496,o),
(290,404,q),
(290,367,o),
(309.5,338,q),
(329,309,o),
(369,309,q),
(444,309,o),
(475,360,q),
(533,458,o),
(533,547,q),
(533,636,o),
(466,636,q)
);
}
);
width = 551;
}
);
unicode = 57;
},
{
category = Letter;
glyphname = colon;
layers = (
{
layerId = "7e2a03ba-2254-48dc-b40c-8c8f8912cf0a";
name = Fore;
shapes = (
{
closed = 1;
nodes = (
(71,102,o),
(99,102,q),
(154,102,o),
(154,67,q),
(154,41,o),
(128,19,q),
(102,-3,o),
(74,-3,q),
(19,-3,o),
(19,33,q),
(19,57,o),
(45,79.5,q)
);
},
{
closed = 1;
nodes = (
(221,363,o),
(248,363,q),
(303,363,o),
(303,328,q),
(303,302,o),
(277,280,q),
(251,258,o),
(223,258,q),
(195,258,o),
(182,268,q),
(169,278,o),
(169,298,q),
(169,318,o),
(195,340.5,q)
);
}
);
width = 229;
}
);
unicode = 58;
},
{
category = Letter;
glyphname = semicolon;
layers = (
{
layerId = "7e2a03ba-2254-48dc-b40c-8c8f8912cf0a";
name = Fore;
shapes = (
{
closed = 1;
nodes = (
(163,11,o),
(118.5,-30,q),
(74,-71,o),
(35,-71,q),
(19,-71,o),
(19,-64,q),
(21,-59,l),
(65,-34,o),
(65,-11,q),
(65,-2,o),
(59,-2,q),
(29,5,o),
(29,30.5,q),
(29,56,o),
(55,79,q),
(81,102,o),
(115,102,q),
(163,102,o),
(163,65,q)
);
},
{
closed = 1;
nodes = (
(230,363,o),
(258,363,q),
(312,363,o),
(312,328,q),
(312,302,o),
(286,280,q),
(260,258,o),
(232,258,q),
(204,258,o),
(191,268,q),
(178,278,o),
(178,298,q),
(178,318,o),
(204,340.5,q)
);
}
);
width = 238;
}
);
unicode = 59;
},
{
category = Letter;
glyphname = less;
layers = (
{
layerId = "7e2a03ba-2254-48dc-b40c-8c8f8912cf0a";
name = Fore;
shapes = (
{
closed = 1;
nodes = (
(655,461,o),
(655,452,q),
(655,429,o),
(639,408.5,q),
(623,388,o),
(602,383,q),
(292,306,o),
(292,270,q),
(292,259,o),
(344,243,q),
(396,227,o),
(447.5,209.5,q),
(499,192,o),
(499,177,q),
(499,159,o),
(485,139,q),
(471,119,o),
(455,119,q),
(444,123,l),
(289,185,o),
(198,204,q),
(163,212,o),
(136.5,217.5,q),
(110,223,o),
(101.5,226.5,q),
(93,230,o),
(93,238,q),
(93,272,o),
(148,301,q),
(205,330,o),
(399.5,395.5,q),
(594,461,o),
(642,461,q)
);
}
);
width = 554;
}
);
unicode = 60;
},
{
category = Letter;
glyphname = equal;
layers = (
{
layerId = "7e2a03ba-2254-48dc-b40c-8c8f8912cf0a";
name = Fore;
shapes = (
{
closed = 1;
nodes = (
(724,464,l),
(737,464,o),
(737,455,q),
(737,441,o),
(715.5,415,q),
(694,389,o),
(664,389,q),
(370,391,l),
(243,389,l),
(228,389,o),
(228,398,q),
(228,412,o),
(249,438,q),
(270,464,o),
(301,464,q),
(616,461,l)
);
},
{
closed = 1;
nodes = (
(630,302,l),
(644,302,o),
(644,293,q),
(644,280,o),
(622.5,254,q),
(601,228,o),
(571,228,q),
(277,230,l),
(148,227,l),
(134,227,o),
(134,237,q),
(134,250,o),
(155.5,276,q),
(177,302,o),
(207,302,q),
(501,300,l)
);
}
);
width = 632;
}
);
unicode = 61;
},
{
category = Letter;
glyphname = greater;
layers = (
{
layerId = "7e2a03ba-2254-48dc-b40c-8c8f8912cf0a";
name = Fore;
shapes = (
{
closed = 1;
nodes = (
(59,130,o),
(59,140,q),
(59,160,o),
(75.5,181,q),
(92,202,o),
(109.5,206.5,q),
(127,211,o),
(158,218.5,q),
(189,226,o),
(207,230.5,q),
(225,235,o),
(254,242.5,q),
(283,250,o),
(300.5,255,q),
(318,260,o),
(340.5,267,q),
(363,274,o),
(376.5,279.5,q),
(390,285,o),
(403,292,q),
(428,304,o),
(428,315,q),
(428,330,o),
(374.5,347.5,q),
(321,365,o),
(267.5,382,q),
(214,399,o),
(214,413,q),
(214,431,o),
(228,451,q),
(242,471,o),
(258,471,q),
(270,467,l),
(407,411,o),
(479,391.5,q),
(551,372,o),
(577.5,364.5,q),
(604,357,o),
(612.5,352,q),
(621,347,o),
(621,337,q),
(621,327,o),
(608,309,q),
(595,291,o),
(553.5,270,q),
(512,249,o),
(316.5,189.5,q),
(121,130,o),
(72,130,q)
);
}
);
width = 565;
}
);
unicode = 62;
},
{
category = Letter;
glyphname = question;
layers = (
{
layerId = "7e2a03ba-2254-48dc-b40c-8c8f8912cf0a";
name = Fore;
shapes = (
{
closed = 1;
nodes = (
(571,592,o),
(571,546,q),
(571,500,o),
(540,459,q),
(509,418,o),
(461.5,391.5,q),
(414,365,o),
(363.5,341,q),
(313,317,o),
(267.5,279.5,q),
(222,242,o),
(202,193,q),
(193,170,o),
(142,170,q),
(124,170,o),
(117.5,173,q),
(111,176,o),
(111,186,q),
(133,241,o),
(175.5,284,q),
(218,327,o),
(262.5,354,q),
(307,381,o),
(349,406,q),
(444,464,o),
(444,541,q),
(444,565,o),
(423,575,q),
(402,585,o),
(374,585,q),
(346,585,o),
(312,568,q),
(278,551,o),
(260,534,q),
(241,517,l),
(217,495,o),
(197.5,495,q),
(178,495,o),
(178,504.5,q),
(178,514,o),
(226,583,q),
(274,652,o),
(294,652,q),
(305,652,o),
(324,642.5,q),
(343,633,o),
(347,633,q),
(351,633,o),
(359,635,q),
(378,651,o),
(458,651,q),
(484,651,o),
(507,644.5,q),
(530,638,o),
(550.5,615,q)
);
},
{
closed = 1;
nodes = (
(151,107,o),
(153,72,q),
(153,42,o),
(123,22.5,q),
(93,3,o),
(63,3,q),
(20,3,o),
(18,38,q),
(18,39,l),
(18,68,o),
(48.5,87.5,q),
(79,107,o),
(107,107,q)
);
}
);
width = 389;
}
);
unicode = 63;
},
{
category = Letter;
glyphname = at;
layers = (
{
layerId = "7e2a03ba-2254-48dc-b40c-8c8f8912cf0a";
name = Fore;
shapes = (
{
closed = 1;
nodes = (
(164,-204,o),
(106,-131.5,q),
(48,-59,o),
(48,47,q),
(48,177,o),
(126.5,293.5,q),
(205,410,o),
(331,478.5,q),
(457,547,o),
(593,547,q),
(684,547,o),
(754.5,522.5,q),
(825,498,o),
(866,457,q),
(950,375,o),
(950,265,q),
(950,184,o),
(925,116.5,q),
(900,49,o),
(861,5,q),
(822,-39,o),
(772,-70,q),
(679,-127,o),
(584,-127,q),
(522,-127,o),
(494,-101.5,q),
(466,-76,o),
(466,-35,q),
(466,-18,o),
(473,3,q),
(480,24,o),
(480,27,q),
(480,34,o),
(471.5,34,q),
(463,34,o),
(424,11.5,q),
(385,-11,o),
(349.5,-11,q),
(314,-11,o),
(298,6,q),
(274,31,o),
(274,57.5,q),
(274,84,o),
(281.5,109,q),
(289,134,o),
(310.5,165,q),
(332,196,o),
(364.5,221.5,q),
(397,247,o),
(453.5,264.5,q),
(510,282,o),
(580,283,q),
(597,283,o),
(597,301,q),
(597,309,o),
(593,317,q),
(589,325,o),
(570.5,333,q),
(552,341,o),
(526,341,q),
(500,341,o),
(474,333.5,q),
(448,326,o),
(446,326,q),
(436,326,o),
(436,336.5,q),
(436,347,o),
(450.5,362,q),
(465,377,o),
(500,390,q),
(535,403,o),
(581,403,q),
(706,403,o),
(706,320,q),
(706,280,o),
(684.5,230.5,q),
(663,181,o),
(636.5,142,q),
(610,103,o),
(588.5,57.5,q),
(567,12,o),
(567,-19,q),
(567,-67,o),
(621,-67,q),
(656,-67,o),
(695,-46,q),
(734,-25,o),
(768.5,13.5,q),
(803,52,o),
(826,115,q),
(849,178,o),
(849,253,q),
(849,347,o),
(775.5,415,q),
(702,483,o),
(578,483,q),
(491,483,o),
(417.5,453,q),
(344,423,o),
(296,376.5,q),
(248,330,o),
(214,273,q),
(150,166,o),
(150,69,q),
(150,-131,o),
(378,-131,q),
(399,-131,o),
(399,-140,q),
(399,-169,o),
(350,-191,q),
(320,-204,o),
(277,-204,q)
);
},
{
closed = 1;
nodes = (
(568,215,o),
(554,219.5,q),
(540,224,o),
(529,224,q),
(459,224,o),
(420,181,q),
(381,138,o),
(381,105,q),
(381,72,o),
(412,72,q),
(462,72,o),
(515,125.5,q),
(568,179,o),
(568,207,q)
);
}
);
width = 932;
}
);
unicode = 64;
},
{
category = Letter;
glyphname = A;
layers = (
{
layerId = "7e2a03ba-2254-48dc-b40c-8c8f8912cf0a";
name = Fore;
shapes = (
{
closed = 1;
nodes = (
(100,252,o),
(98,261,q),
(98,278,o),
(122,300,q),
(146,322,o),
(160.5,328,q),
(175,334,o),
(257,336,q),
(271,352,l),
(575,703,o),
(693,703,q),
(703,704,o),
(716,704,q),
(785,704,o),
(785,671,q),
(785,665,o),
(772,639,q),
(727,549,l),
(695,485,o),
(665,419,q),
(503,62,o),
(477,-49,q),
(477,-57,o),
(456.5,-57,q),
(436,-57,o),
(407,-34.5,q),
(378,-12,o),
(378,5,q),
(378,36,o),
(427,122,q),
(476,208,o),
(476,234,q),
(476,269,o),
(340,269,q),
(320,269,o),
(278,267,q),
(240,217,l),
(170,123,o),
(106,-16,q),
(95,-41,o),
(39,-41,q),
(-17,-41,o),
(-17,-25,q),
(-17,-14,o),
(45.5,71.5,q),
(108,157,o),
(194,261,q),
(179,259,o),
(156,257,q),
(133,255,o),
(120.5,253.5,q),
(108,252,o),
(107,252,q)
);
},
{
closed = 1;
nodes = (
(600,524,o),
(600,541,q),
(600,558,o),
(583,558,q),
(553,558,o),
(484,494.5,q),
(415,431,o),
(334,336,q),
(443,334,l),
(483,334,o),
(522,381,q),
(561,428,o),
(580.5,476,q)
);
}
);
width = 579;
}
);
unicode = 65;
},
{
category = Letter;
glyphname = B;
layers = (
{
layerId = "7e2a03ba-2254-48dc-b40c-8c8f8912cf0a";
name = Fore;
shapes = (
{
closed = 1;
nodes = (
(312,-22,o),
(245,-22,q),
(178,-22,o),
(149.5,-15.5,q),
(121,-9,o),
(116,-9,q),
(106,-9,o),
(96,-15,q),
(64,-44,o),
(19,-44,q),
(-26,-44,o),
(-26,-28,q),
(-26,-17,o),
(43.5,103,q),
(113,223,o),
(197.5,370,q),
(282,517,o),
(306.5,572,q),
(331,627,o),
(331,667,q),
(331,675,l),
(331,702,o),
(486,702,q),
(628,702,o),
(668,687,q),
(720,667,o),
(733,634,q),
(741,614,o),
(741,586,q),
(741,541,o),
(708,501,q),
(647,429,o),
(550,406,q),
(513,397,o),
(506,391,q),
(499,385,o),
(499,378.5,q),
(499,372,o),
(513.5,362.5,q),
(528,353,o),
(545.5,342,q),
(563,331,o),
(577.5,306,q),
(592,281,o),
(592,242.5,q),
(592,204,o),
(567.5,157,q),
(543,110,o),
(498.5,69.5,q),
(454,29,o),
(383,3.5,q)
);
},
{
closed = 1;
nodes = (
(473,231,o),
(473,255.5,q),
(473,280,o),
(465.5,297.5,q),
(458,315,o),
(448,324,q),
(438,333,o),
(424,338,q),
(403,346,o),
(382,346,q),
(372,346,l),
(359,346,o),
(359,355,q),
(359,376,o),
(374.5,399.5,q),
(390,423,o),
(410,423,q),
(491,423,o),
(555,477,q),
(619,531,o),
(619,592,q),
(619,645,o),
(549,645,q),
(491,645,o),
(468,617,q),
(405,539,o),
(286,326.5,q),
(167,114,o),
(167,77,q),
(167,62,o),
(183.5,51,q),
(200,40,o),
(243.5,40,q),
(287,40,o),
(334.5,64.5,q),
(382,89,o),
(411,124,q),
(440,159,o),
(456.5,195,q)
);
}
);
width = 568;
}
);
unicode = 66;
},
{
category = Letter;
glyphname = C;
layers = (
{
layerId = "7e2a03ba-2254-48dc-b40c-8c8f8912cf0a";
name = Fore;
shapes = (
{
closed = 1;
nodes = (
(69,-24,o),
(69,144,q),
(69,193,o),
(92.5,263,q),
(116,333,o),
(162,408.5,q),
(208,484,o),
(266,549,q),
(324,614,o),
(402,656,q),
(480,698,o),
(559,698,q),
(596,698,o),
(616,689.5,q),
(636,681,o),
(637.5,681,q),
(639,681,o),
(662.5,691,q),
(686,701,o),
(718.5,701,q),
(751,701,o),
(751,682.5,q),
(751,664,o),
(712.5,602,q),
(674,540,o),
(620,483,q),
(566,426,o),
(534,426,q),
(530,425,o),
(524,425,q),
(505,425,o),
(505,436,q),
(505,438,o),
(519,458.5,q),
(533,479,o),
(547,513.5,q),
(561,548,o),
(561,569,q),
(561,590,o),
(559,599,q),
(557,608,o),
(545.5,620,q),
(534,632,o),
(514,632,q),
(460,632,o),
(385.5,550,q),
(311,468,o),
(257.5,357.5,q),
(204,247,o),
(204,170,q),
(204,78,o),
(288,78,q),
(388,78,o),
(482,207,q),
(486,215,o),
(490.5,215,q),
(495,215,o),
(497.5,214.5,q),
(500,214,o),
(504.5,208.5,q),
(509,203,o),
(509,188,q),
(509,173,o),
(488.5,138,q),
(468,103,o),
(434,66,q),
(400,29,o),
(346,2.5,q),
(292,-24,o),
(234,-24,q)
);
}
);
width = 495;
}
);
unicode = 67;
},
{
category = Letter;
glyphname = D;
layers = (
{
layerId = "7e2a03ba-2254-48dc-b40c-8c8f8912cf0a";
name = Fore;
shapes = (
{
closed = 1;
nodes = (
(179,-23,o),
(164,-19.5,q),
(149,-16,o),
(138.5,-13.5,q),
(128,-11,o),
(125,-10,q),
(122,-9,o),
(116,-9,q),
(104,-9,o),
(94,-15,q),
(59,-44,o),
(2,-44,q),
(-28,-44,o),
(-28,-30.5,q),
(-28,-17,o),
(41.5,103,q),
(111,223,o),
(195.5,370,q),
(280,517,o),
(304.5,572,q),
(329,627,o),
(329,667,q),
(329,675,l),
(329,704,o),
(496,704,q),
(744,704,o),
(744,535,q),
(744,413,o),
(661,266,q),
(618,189,o),
(560,125,q),
(502,61,o),
(415.5,19,q),
(329,-23,o),
(232,-23,q)
);
},
{
closed = 1;
nodes = (
(637,516,o),
(637,558.5,q),
(637,601,o),
(612.5,623,q),
(588,645,o),
(530,645,q),
(490,645,o),
(466,617,q),
(403,538,o),
(284,325.5,q),
(165,113,o),
(165,77,q),
(165,37,o),
(250,37,q),
(310,37,o),
(371,79,q),
(432,121,o),
(478,184.5,q),
(524,248,o),
(561,319.5,q),
(598,391,o),
(617.5,453.5,q)
);
}
);
width = 598;
}
);
unicode = 68;
},
{
category = Letter;
glyphname = E;
layers = (
{
layerId = "7e2a03ba-2254-48dc-b40c-8c8f8912cf0a";
name = Fore;
shapes = (
{
closed = 1;
nodes = (
(381,333,l),
(318,333,o),
(284,292,q),
(260,262,o),
(220.5,194,q),
(181,126,o),
(181,86,q),
(181,49,o),
(254,49,q),
(299,49,o),
(350,66,q),
(453,100,o),
(513,196,q),
(520,205,o),
(537,205,q),
(554,205,o),
(554,185.5,q),
(554,166,o),
(522,104,q),
(490,42,o),
(465,11,q),
(452,-5,o),
(414.5,-7,q),
(377,-9,o),
(300,-9,q),
(202,-9,l),
(145,-8,l),
(118,-6,l),
(117,-6,o),
(111,-6,q),
(105,-6,o),
(96,-15,q),
(63,-44,o),
(2,-44,q),
(-27,-44,o),
(-27,-31,q),
(-27,-28,l),
(-27,-17,o),
(42.5,102.5,q),
(112,222,o),
(197,369,q),
(282,516,o),
(306,570.5,q),
(330,625,o),
(330,664,q),
(330,675,l),
(330,692,o),
(543,692,q),
(613,692,o),
(665,690,q),
(680,707,o),
(742,707,q),
(768,707,o),
(768,694,q),
(768,671,o),
(722.5,601.5,q),
(677,532,o),
(643,507,q),
(632,498,o),
(615,498,q),
(598,498,o),
(598,505,q),
(598,508,o),
(601,513,q),
(617,544,o),
(617,583,q),
(617,638,o),
(541,638,q),
(495,638,o),
(468.5,614,q),
(442,590,o),
(416,547,q),
(390,504,o),
(377.5,473,q),
(365,442,o),
(365,434,q),
(365,410,o),
(388.5,404.5,q),
(412,399,o),
(482,399,q),
(556,402,l),
(566,402,o),
(566,394.5,q),
(566,387,o),
(555.5,369.5,q),
(545,352,o),
(534,345,q),
(512,330,o),
(466,330,q)
);
}
);
width = 551;
}
);
unicode = 69;
},
{
category = Letter;
glyphname = F;
layers = (
{
layerId = "7e2a03ba-2254-48dc-b40c-8c8f8912cf0a";
name = Fore;
shapes = (
{
closed = 1;
nodes = (
(367,333,l),
(304,333,o),
(271,292,q),
(218,223,o),
(161.5,111.5,q),
(105,0,o),
(83,-16,q),
(47,-44,o),
(-9,-44,q),
(-39,-44,o),
(-39,-31,q),
(-39,-28,l),
(-39,-17,o),
(30.5,102.5,q),
(100,222,o),
(184.5,369,q),
(269,516,o),
(293.5,571,q),
(318,626,o),
(318,665,q),
(318,675,l),
(318,692,o),
(531,692,q),
(601,692,o),
(653,690,q),
(668,707,o),
(729,707,q),
(756,707,o),
(756,694,q),
(756,670,o),
(707.5,597.5,q),
(659,525,o),
(626,504,q),
(612,497,o),
(599,497,q),
(586,497,o),
(586,505,q),
(586,506,o),
(591,516,q),
(605,544,o),
(605,583,q),
(605,638,o),
(528,638,q),
(482,638,o),
(455.5,614,q),
(429,590,o),
(403,547,q),
(377,504,o),
(364.5,473,q),
(352,442,o),
(352,430.5,q),
(352,419,o),
(363,409,q),
(374,399,o),
(470,399,q),
(513,399,o),
(528,400.5,q),
(543,402,o),
(544,402,q),
(553,402,o),
(553,395,q),
(553,391,o),
(552,389,q),
(538,355,o),
(518.5,342.5,q),
(499,330,o),
(453,330,q)
);
}
);
width = 416;
}
);
unicode = 70;
},
{
category = Letter;
glyphname = G;
layers = (
{
layerId = "7e2a03ba-2254-48dc-b40c-8c8f8912cf0a";
name = Fore;
shapes = (
{
closed = 1;
nodes = (
(393,-6,o),
(382.5,7,q),
(372,20,o),
(369,33,q),
(366,46,l),
(363,57,o),
(351.5,57,q),
(340,57,o),
(331,50,q),
(237,-24,o),
(156,-24,q),
(52,-24,o),
(52,115,q),
(52,164,o),
(77.5,237,q),
(103,310,o),
(151,389.5,q),
(199,469,o),
(259.5,538.5,q),
(320,608,o),
(399.5,653,q),
(479,698,o),
(558,698,q),
(601,698,o),
(628,683,q),
(632,681,o),
(637,681,q),
(642,681,o),
(647,684,q),
(672,701,o),
(711,701,q),
(750,701,o),
(750,682,q),
(750,658,o),
(700,587,q),
(622,476,o),
(572,476,q),
(559,476,o),
(554.5,478,q),
(550,480,o),
(550,486,q),
(550,492,o),
(556,506,q),
(576,548,o),
(576,575.5,q),
(576,603,o),
(565.5,617.5,q),
(555,632,o),
(522,632,q),
(462,632,o),
(379.5,541.5,q),
(297,451,o),
(238,332.5,q),
(179,214,o),
(179,137,q),
(179,72,o),
(233,72,q),
(275,72,o),
(328.5,115,q),
(382,158,o),
(416.5,207.5,q),
(451,257,o),
(451,278.5,q),
(451,300,o),
(430,308.5,q),
(409,317,o),
(349,317,q),
(337,317,o),
(337,326,q),
(337,343,o),
(356.5,361,q),
(376,379,o),
(394,381,q),
(466,386,o),
(545.5,386,q),
(625,386,o),
(625,372,q),
(625,360,o),
(611.5,335,q),
(598,310,o),
(589.5,294.5,q),
(581,279,o),
(564.5,251.5,q),
(548,224,o),
(538,208,q),
(528,192,o),
(507.5,159.5,q),
(487,127,o),
(475,107,q),
(463,87,o),
(445.5,54,q),
(428,21,o),
(420,7.5,q),
(412,-6,o),
(407,-6,q)
);
}
);
width = 514;
}
);
unicode = 71;
},
{
category = Letter;
glyphname = H;
layers = (
{
layerId = "7e2a03ba-2254-48dc-b40c-8c8f8912cf0a";
name = Fore;
shapes = (
{
closed = 1;
nodes = (
(360,675,l),
(360,701,o),
(467,701,q),
(521,701,o),
(521,681,q),
(521,673,o),
(513,665,q),
(475,613,o),
(351,402,q),
(475,401,l),
(516,401,o),
(550,434,q),
(567,452,o),
(580.5,467.5,q),
(594,483,o),
(611,512,q),
(628,541,o),
(638,558,q),
(652,583,o),
(687,654,q),
(687,659,o),
(694.5,666.5,q),
(702,674,o),
(712.5,679.5,q),
(723,685,o),
(745,689,q),
(767,693,o),
(797,693,q),
(827,693,o),
(827,680,q),
(827,674,o),
(822.5,666.5,q),
(818,659,o),
(770.5,586,q),
(723,513,o),
(675,434.5,q),
(627,356,o),
(573.5,264,q),
(520,172,o),
(486.5,96,q),
(453,20,o),
(453,-15,q),
(447,-32,o),
(428,-32,q),
(373,-32,o),
(352,-23,q),
(331,-14,o),
(331,4,q),
(331,35,o),
(397.5,149,q),
(464,263,o),
(464,287.5,q),
(464,312,o),
(444,324,q),
(424,336,o),
(377,336,q),
(330,336,o),
(312,335,q),
(278,280,o),
(234,194,q),
(190,108,o),
(160,53,q),
(130,-2,o),
(112,-16,q),
(75,-44,o),
(21,-44,q),
(-10,-44,o),
(-10,-28,q),
(-10,-19,o),
(16.5,25.5,q),
(43,70,o),
(102,165.5,q),
(161,261,o),
(204,333,q),
(143,330,l),
(128,330,o),
(128,338,q),
(128,355,o),
(149.5,372,q),
(171,389,o),
(185,394,q),
(199,399,o),
(243,401,q),
(280,464,o),
(338,576,q),
(360,624,o),
(360,662,q)
);
}
);
width = 549;
}
);
unicode = 72;
},
{
category = Letter;
glyphname = I;
layers = (
{
layerId = "7e2a03ba-2254-48dc-b40c-8c8f8912cf0a";
name = Fore;
shapes = (
{
closed = 1;
nodes = (
(163,30,o),
(165.5,20,q),
(168,10,o),
(168,5,q),
(168,-18,o),
(70.5,-18,q),
(-27,-18,o),
(-27,5,q),
(-21,17,l),
(13,37,o),
(115,202.5,q),
(217,368,o),
(322,576,q),
(344,620,o),
(344,659,q),
(344,675,l),
(344,701,o),
(451,701,q),
(505,701,o),
(505,681,q),
(505,673,o),
(497,665,q),
(429,577,o),
(296,335.5,q),
(163,94,o),
(163,50,q)
);
}
);
width = 247;
}
);
unicode = 73;
},
{
category = Letter;
glyphname = J;
layers = (
{
layerId = "7e2a03ba-2254-48dc-b40c-8c8f8912cf0a";
name = Fore;
shapes = (
{
closed = 1;
nodes = (
(284,50,o),
(366,181,q),
(479,363,o),
(586,576,q),
(608,621,o),
(608,662,q),
(608,675,l),
(608,701,o),
(715,701,q),
(769,701,o),
(769,681,q),
(769,673,o),
(751.5,651.5,q),
(734,630,o),
(652.5,492.5,q),
(571,355,o),
(547.5,311.5,q),
(524,268,o),
(503.5,228.5,q),
(483,189,o),
(472.5,169.5,q),
(462,150,o),
(446.5,121.5,q),
(431,93,o),
(421,80.5,q),
(411,68,o),
(395.5,50,q),
(380,32,o),
(366,24.5,q),
(352,17,o),
(333.5,7.5,q),
(315,-2,o),
(293,-5,q),
(234,-13,o),
(188.5,-13,q),
(143,-13,o),
(113,4,q),
(109,6,o),
(103.5,6,q),
(98,6,o),
(94,3,q),
(67,-14,o),
(29,-14,q),
(-9,-14,o),
(-9,5,q),
(-9,34,o),
(67.5,155.5,q),
(144,277,o),
(195,304,q),
(206,311,o),
(225,311,q),
(244,311,o),
(244,300,q),
(244,298,o),
(223,264,q),
(202,230,o),
(181.5,182.5,q),
(161,135,o),
(161,107.5,q),
(161,80,o),
(173.5,65,q),
(186,50,o),
(208,50,q)
);
}
);
width = 504;
}
);
unicode = 74;
},
{
category = Letter;
glyphname = K;
layers = (
{
layerId = "7e2a03ba-2254-48dc-b40c-8c8f8912cf0a";
name = Fore;
shapes = (
{
closed = 1;
nodes = (
(460,-6,l),
(460,-22,o),
(412,-22,q),
(327,-22,o),
(327,12,q),
(327,43,o),
(378,163.5,q),
(429,284,o),
(429,311,q),
(429,361,o),
(351,361,q),
(317,361,l),
(270,278,l),
(238,222,o),
(201,147,q),
(164,72,o),
(143,36,q),
(122,0,o),
(102,-16,q),
(67,-44,o),
(10,-44,q),
(-16,-44,o),
(-19,-35,q),
(-20,-32,o),
(-20,-25,q),
(-20,-18,o),
(9,30.5,q),
(38,79,o),
(99.5,178.5,q),
(161,278,o),
(207,357,q),
(138,354,l),
(131,354,o),
(128,362,q),
(128,379,o),
(146,394.5,q),
(164,410,o),
(179,415.5,q),
(194,421,o),
(245,423,q),
(294,510,o),
(328,576,q),
(350,627,o),
(350,666,q),
(350,675,l),
(350,701,o),
(456,701,q),
(510,701,o),
(510,681,q),
(510,673,o),
(487.5,644,q),
(465,615,o),
(352,422,q),
(382,423,o),
(409,435,q),
(436,447,o),
(495,502,q),
(554,557,o),
(639,661,q),
(641,665,o),
(647,671.5,q),
(653,678,o),
(684.5,688.5,q),
(716,699,o),
(771.5,699,q),
(827,699,o),
(827,681,q),
(827,675,o),
(739,613,q),
(475,427,o),
(475,397,q),
(475,384,o),
(507,361,q),
(539,338,o),
(539,315,q),
(539,314,o),
(499,192.5,q),
(459,71,o),
(459,15,q)
);
}
);
width = 514;
}
);
unicode = 75;
},
{
category = Letter;
glyphname = L;
layers = (
{
layerId = "7e2a03ba-2254-48dc-b40c-8c8f8912cf0a";
name = Fore;
shapes = (
{
closed = 1;
nodes = (
(116,-6,l),
(102,-6,o),
(95,-15,q),
(61,-44,o),
(3,-44,q),
(-27,-44,o),
(-27,-31,q),
(-27,-28,l),
(-27,-17,o),
(42.5,102.5,q),
(112,222,o),
(196.5,369,q),
(281,516,o),
(305.5,571,q),
(330,626,o),
(330,662,q),
(330,675,l),
(330,701,o),
(437,701,q),
(491,701,o),
(491,681,q),
(491,673,o),
(483,665,q),
(403,535,o),
(271,294,q),
(257,269,l),
(243,244,o),
(237,233.5,q),
(231,223,o),
(218.5,197.5,q),
(206,172,o),
(200,156,q),
(183,111,o),
(183,86,q),
(183,49,o),
(249,49,q),
(256,49,l),
(297,49,o),
(346,66,q),
(442,100,o),
(502,196,q),
(506,205,o),
(524.5,205,q),
(543,205,o),
(543,189,q),
(543,165,o),
(511,103,q),
(479,41,o),
(453,11,q),
(440,-7,o),
(403,-7,q),
(366,-9,o),
(243,-9,q),
(130,-7,l)
);
}
);
width = 523;
}
);
unicode = 76;
},
{
category = Letter;
glyphname = M;
layers = (
{
layerId = "7e2a03ba-2254-48dc-b40c-8c8f8912cf0a";
name = Fore;
shapes = (
{
closed = 1;
nodes = (
(372,83,o),
(341.5,83,q),
(311,83,o),
(301.5,91.5,q),
(292,100,o),
(292,136.5,q),
(292,173,o),
(331,306.5,q),
(370,440,o),
(370,460.5,q),
(370,481,o),
(362,481,q),
(350,481,o),
(332,460.5,q),
(314,440,o),
(302,420,q),
(290,399,l),
(226,295,o),
(173.5,190.5,q),
(121,86,o),
(96.5,37.5,q),
(72,-11,o),
(54,-24,q),
(36,-37,o),
(2.5,-37,q),
(-31,-37,o),
(-31,-22,q),
(-31,-19,l),
(-31,-9,o),
(21,74,q),
(213,379,o),
(310,572,q),
(333,618,o),
(333,658,q),
(333,670,l),
(333,688,o),
(374.5,699,q),
(416,710,o),
(443,710,q),
(476,710,l),
(518,710,o),
(538,694,q),
(547,688,o),
(547,678,q),
(547,668,o),
(507.5,539.5,q),
(468,411,o),
(468,385,q),
(468,359,o),
(476,359,q),
(501,359,o),
(564,420.5,q),
(627,482,o),
(708,568,q),
(774,640,o),
(834,692,q),
(847,704,o),
(865,706,q),
(904,712,o),
(948.5,712,q),
(993,712,o),
(993,692,q),
(993,688,o),
(992.5,686,q),
(992,684,o),
(955,625.5,q),
(918,567,o),
(865,480.5,q),
(812,394,o),
(759,301.5,q),
(706,209,o),
(669,125.5,q),
(632,42,o),
(632,3,q),
(623,-14,o),
(604,-14,q),
(505,-14,o),
(505,21,q),
(505,102,o),
(706,410,q),
(732,449,o),
(732,459,q),
(732,469,o),
(717,469,q),
(679,469,o),
(557,333.5,q),
(435,198,o),
(385,107,q)
);
}
);
width = 719;
}
);
unicode = 77;
},
{
category = Letter;
glyphname = N;
layers = (
{
layerId = "7e2a03ba-2254-48dc-b40c-8c8f8912cf0a";
name = Fore;
shapes = (
{
closed = 1;
nodes = (
(355,425,o),
(355,443.5,q),
(355,462,o),
(344.5,462,q),
(334,462,o),
(316,441,q),
(298,420,o),
(286,400,q),
(273,379,l),
(193,248,o),
(92,32,q),
(72,-12,o),
(54,-24.5,q),
(36,-37,o),
(2.5,-37,q),
(-31,-37,o),
(-31,-22,q),
(-31,-19,l),
(-31,-6,o),
(20,76,q),
(215,389,o),
(305,571,q),
(328,617,o),
(328,654,q),
(328,670,l),
(328,677,o),
(333.5,684.5,q),
(339,692,o),
(368,700.5,q),
(397,709,o),
(448,709,q),
(525,709,o),
(525,680,q),
(525,671,o),
(484,486,q),
(443,301,o),
(443,262.5,q),
(443,224,o),
(451,224,q),
(463,224,o),
(476,237,q),
(489,250,o),
(496,262,q),
(503,275,l),
(567,380,o),
(618,483.5,q),
(669,587,o),
(693,636,q),
(717,685,o),
(735,698,q),
(761,713,o),
(801,713,q),
(841,713,o),
(841,701,q),
(841,699,l),
(841,692,o),
(788,615,q),
(735,538,o),
(647.5,398.5,q),
(560,259,o),
(495,132,q),
(467,67,o),
(467,28,q),
(467,16,o),
(462.5,10,q),
(458,4,o),
(431.5,-1.5,q),
(405,-7,o),
(377,-7,q),
(345,-7,l),
(334,-7,o),
(318,-2,q),
(290,6,o),
(290,23,q),
(290,67,o),
(322.5,246,q)
);
}
);
width = 547;
}
);
unicode = 78;
},
{
category = Letter;
glyphname = O;
layers = (
{
layerId = "7e2a03ba-2254-48dc-b40c-8c8f8912cf0a";
name = Fore;
shapes = (
{
closed = 1;
nodes = (
(747,483,o),
(724.5,411,q),
(702,339,o),
(658,264,q),
(614,189,o),
(556.5,125.5,q),
(499,62,o),
(420.5,21.5,q),
(342,-19,o),
(258.5,-19,q),
(175,-19,o),
(127,27.5,q),
(79,74,o),
(79,156,q),
(79,212,o),
(101.5,284,q),
(124,356,o),
(168,431,q),
(212,506,o),
(269.5,569,q),
(327,632,o),
(405.5,672.5,q),
(484,713,o),
(567.5,713,q),
(651,713,o),
(699,667,q),
(747,621,o),
(747,539,q)
);
},
{
closed = 1;
nodes = (
(629,658,o),
(549,658,q),
(482,658,o),
(399.5,573,q),
(317,488,o),
(259.5,367.5,q),
(202,247,o),
(202,152,q),
(202,42,o),
(282,42,q),
(348,42,o),
(431,127,q),
(514,212,o),
(571.5,332.5,q),
(629,453,o),
(629,548,q)
);
}
);
width = 602;
}
);
unicode = 79;
},
{
category = Letter;
glyphname = P;
layers = (
{
layerId = "7e2a03ba-2254-48dc-b40c-8c8f8912cf0a";
name = Fore;
shapes = (
{
closed = 1;
nodes = (
(712,397,o),
(675.5,363.5,q),
(639,330,o),
(570,306,q),
(501,282,o),
(408,282,q),
(315,282,o),
(279,261,q),
(243,240,o),
(209,180,q),
(184,138,o),
(158.5,83,q),
(133,28,o),
(126,6,q),
(119,-16,o),
(88,-29.5,q),
(57,-43,o),
(30,-44,q),
(2,-46,l),
(-28,-46,o),
(-28,-33,q),
(-28,-30,l),
(-28,-19,o),
(41.5,101,q),
(111,221,o),
(195.5,368,q),
(280,515,o),
(304.5,570,q),
(329,625,o),
(329,663,q),
(329,673,l),
(329,689,o),
(397.5,697.5,q),
(466,706,o),
(545,706,q),
(671,706,o),
(720.5,671.5,q),
(770,637,o),
(770,571,q),
(770,505,o),
(741,451,q)
);
},
{
closed = 1;
nodes = (
(314,378,o),
(314,365.5,q),
(314,353,o),
(328,349,q),
(342,345,o),
(395.5,345,q),
(449,345,o),
(499.5,364,q),
(550,383,o),
(579,410,q),
(608,437,o),
(627,470,q),
(659,526,o),
(659,561,q),
(659,596,o),
(649.5,613.5,q),
(640,631,o),
(622,638,q),
(592,649,o),
(543.5,649,q),
(495,649,o),
(467.5,618,q),
(440,587,o),
(377,482.5,q)
);
}
);
width = 528;
}
);
unicode = 80;
},
{
category = Letter;
glyphname = Q;
layers = (
{
layerId = "7e2a03ba-2254-48dc-b40c-8c8f8912cf0a";
name = Fore;
shapes = (
{
closed = 1;
nodes = (
(177,-19,o),
(129,27.5,q),
(81,74,o),
(81,156,q),
(81,212,o),
(103.5,284,q),
(126,356,o),
(170,431,q),
(214,506,o),
(271.5,569,q),
(329,632,o),
(407.5,672.5,q),
(486,713,o),
(569.5,713,q),
(653,713,o),
(701,667,q),
(749,621,o),
(749,530,q),
(749,439,o),
(680,303.5,q),
(611,168,o),
(511,92,q),
(471,61,o),
(471,43,q),
(471,38,o),
(475,25.5,q),
(479,13,o),
(479,0,q),
(479,-34,o),
(455.5,-71,q),
(432,-108,o),
(404,-108,q),
(401,-105,l),
(399,-99,o),
(397,-88,q),
(386,-10,o),
(343,-10,q),
(330,-12,l),
(303,-19,o),
(261,-19,q)
);
},
{
closed = 1;
nodes = (
(414,282,o),
(416,272,q),
(416,268,o),
(419.5,241,q),
(423,214,o),
(426.5,200.5,q),
(430,187,o),
(434,177,q),
(443,154,o),
(457,154,q),
(478,154,o),
(519.5,218,q),
(561,282,o),
(596,378.5,q),
(631,475,o),
(631,548,q),
(631,658,o),
(551,658,q),
(485,658,o),
(402,573,q),
(319,488,o),
(261.5,367.5,q),
(204,247,o),
(204,152,q),
(204,131,o),
(207.5,110.5,q),
(211,90,o),
(230.5,66,q),
(250,42,o),
(284,42,q),
(345,42,o),
(345,65,q),
(345,75,o),
(334,94,q),
(323,113,o),
(323,139,q),
(323,187,o),
(355.5,234.5,q),
(388,282,o),
(407,282,q)
);
}
);
width = 602;
}
);
unicode = 81;
},
{
category = Letter;
glyphname = R;
layers = (
{
layerId = "7e2a03ba-2254-48dc-b40c-8c8f8912cf0a";
name = Fore;
shapes = (
{
closed = 1;
nodes = (
(484,0,l),
(484,-16,o),
(436,-16,q),
(352,-16,o),
(352,16,q),
(352,48,o),
(396.5,154,q),
(441,260,o),
(441,286,q),
(441,339,o),
(376,339,q),
(360,338,l),
(348,338,o),
(348,347,q),
(348,366,o),
(362.5,385.5,q),
(377,405,o),
(399,405,q),
(490,405,o),
(562,459,q),
(634,513,o),
(634,573,q),
(634,616,o),
(607.5,633,q),
(581,650,o),
(535,650,q),
(489,650,o),
(465,622,q),
(406,548,o),
(275.5,312.5,q),
(145,77,o),
(129,23,q),
(120,-2,o),
(82.5,-14,q),
(45,-26,o),
(9.5,-26,q),
(-26,-26,o),
(-26,-12,q),
(-26,-10,l),
(-26,1,o),
(43,118,q),
(112,235,o),
(195.5,378.5,q),
(279,522,o),
(303.5,577,q),
(328,632,o),
(328,670,q),
(328,680,l),
(328,707,o),
(480,707,q),
(643,707,o),
(695,674,q),
(717,660,o),
(732.5,633,q),
(748,606,o),
(748,564,q),
(748,522,o),
(714,479,q),
(680,436,o),
(641.5,415.5,q),
(603,395,o),
(565,386,q),
(527,377,o),
(508,371,q),
(489,365,o),
(489,352,q),
(489,344,o),
(503.5,332.5,q),
(518,321,o),
(533,305,q),
(548,289,o),
(548,271,q),
(548,253,o),
(515,167.5,q),
(482,82,o),
(482,30,q)
);
}
);
width = 541;
}
);
unicode = 82;
},
{
category = Letter;
glyphname = S;
layers = (
{
layerId = "7e2a03ba-2254-48dc-b40c-8c8f8912cf0a";
name = Fore;
shapes = (
{
closed = 1;
nodes = (
(555,128,o),
(467.5,56.5,q),
(380,-15,o),
(244,-15,q),
(169,-15,o),
(130,7,q),
(126,9,o),
(121,9,q),
(116,9,o),
(84,-2,q),
(52,-13,o),
(19.5,-13,q),
(-13,-13,o),
(-13,6,q),
(-13,32,o),
(50,141.5,q),
(113,251,o),
(162,289,q),
(183,305,o),
(203,305,q),
(223,305,o),
(223,294,q),
(223,292,o),
(209.5,269.5,q),
(196,247,o),
(182.5,210,q),
(169,173,o),
(169,146.5,q),
(169,120,o),
(174.5,102,q),
(180,84,o),
(202.5,65.5,q),
(225,47,o),
(257.5,47,q),
(290,47,o),
(318.5,55,q),
(347,63,o),
(375,80,q),
(403,97,o),
(421,130,q),
(439,163,o),
(439,206.5,q),
(439,250,o),
(412,295,q),
(385,340,o),
(353,371.5,q),
(321,403,o),
(294,443.5,q),
(267,484,o),
(267,522.5,q),
(267,561,o),
(287.5,594,q),
(308,627,o),
(338.5,646.5,q),
(369,666,o),
(408,679,q),
(474,701,o),
(525,701,q),
(576,701,o),
(600.5,696.5,q),
(625,692,o),
(637.5,688,q),
(650,684,o),
(653,684,q),
(656,684,o),
(661,687,q),
(691,704,o),
(726,704,q),
(761,704,o),
(761,687,q),
(761,659,o),
(694.5,561.5,q),
(628,464,o),
(595,464,q),
(568,464,o),
(568,476,q),
(568,478,o),
(575,490,q),
(597,530,o),
(597,581,q),
(597,609,o),
(573,624.5,q),
(549,640,o),
(523.5,640,q),
(498,640,o),
(471.5,632,q),
(445,624,o),
(418.5,600,q),
(392,576,o),
(392,542.5,q),
(392,509,o),
(417.5,472.5,q),
(443,436,o),
(473.5,405.5,q),
(504,375,o),
(529.5,328.5,q),
(555,282,o),
(555,234,q)
);
}
);
width = 528;
}
);
unicode = 83;
},
{
category = Letter;
glyphname = T;
layers = (
{
layerId = "7e2a03ba-2254-48dc-b40c-8c8f8912cf0a";
name = Fore;
shapes = (
{
closed = 1;
nodes = (
(719,713,o),
(719,693.5,q),
(719,674,o),
(680,603,q),
(641,532,o),
(615,496,q),
(599,472,o),
(577.5,472,q),
(556,472,o),
(556,486,q),
(557,495,l),
(570,544,o),
(570,578,q),
(570,630,o),
(542,630,q),
(530,630,o),
(518,621.5,q),
(506,613,o),
(500,604,q),
(494,595,l),
(480,572,o),
(325,309,q),
(290,249,o),
(253,172.5,q),
(216,96,o),
(193,52.5,q),
(170,9,o),
(147,-9.5,q),
(124,-28,o),
(72.5,-28,q),
(21,-28,o),
(21,-11,q),
(21,-8,l),
(21,2,o),
(74,86,q),
(269,393,o),
(369,588,q),
(378,606,o),
(378,614,q),
(378,627,o),
(361,627,q),
(306,627,o),
(193,503,q),
(182,483,o),
(142,483,q),
(133,483,o),
(133,492,q),
(133,499,o),
(146,521,q),
(166,557,l),
(254,711,o),
(281,711,q),
(333,711,o),
(359,691,q),
(429,693,o),
(488,693,q),
(547,693,o),
(605,691,q),
(655,713,o),
(705,713,q)
);
}
);
width = 383;
}
);
unicode = 84;
},
{
category = Letter;
glyphname = U;
layers = (
{
layerId = "7e2a03ba-2254-48dc-b40c-8c8f8912cf0a";
name = Fore;
shapes = (
{
closed = 1;
nodes = (
(145,-25,o),
(97.5,9,q),
(50,43,o),
(50,105,q),
(50,145,o),
(89.5,223.5,q),
(129,302,o),
(197.5,416,q),
(266,530,o),
(295.5,588.5,q),
(325,647,o),
(325,684,q),
(325,694,o),
(331,700,q),
(345,714,o),
(427,714,q),
(481,714,o),
(481,693,q),
(481,683,o),
(474,676,q),
(419,599,o),
(305,402,q),
(191,205,o),
(191,151,q),
(191,72,o),
(263,72,q),
(328,72,o),
(364,106,q),
(391,133,o),
(409,162,q),
(449,223,o),
(513,353.5,q),
(577,484,o),
(627.5,585.5,q),
(678,687,o),
(698.5,703.5,q),
(719,720,o),
(770.5,720,q),
(822,720,o),
(822,708,q),
(822,700,o),
(804.5,679,q),
(787,658,o),
(753,606,q),
(719,554,o),
(674.5,482,q),
(630,410,o),
(597,355,q),
(564,300,o),
(519.5,224.5,q),
(475,149,o),
(467,136,q),
(373,-25,o),
(217,-25,q)
);
}
);
width = 503;
}
);
unicode = 85;
},
{
category = Letter;
glyphname = V;
layers = (
{
layerId = "7e2a03ba-2254-48dc-b40c-8c8f8912cf0a";
name = Fore;
shapes = (
{
closed = 1;
nodes = (
(217,687,l),
(217,713,o),
(311,713,q),
(368,713,o),
(368,683,q),
(368,664,o),
(294,441.5,q),
(220,219,o),
(220,197,q),
(220,175,o),
(240,175,q),
(256,175,o),
(264,183,q),
(274,193,l),
(276,195,o),
(282,201.5,q),
(288,208,o),
(291,211,q),
(331,251,o),
(460.5,424.5,q),
(590,598,o),
(633,683,q),
(644,705,o),
(658,712,q),
(683,724,o),
(746,726,q),
(766,726,l),
(818,726,o),
(818,709,q),
(818,702,o),
(809,693,q),
(713,600,o),
(505.5,365,q),
(298,130,o),
(255,56,q),
(240,30,o),
(227,17,q),
(214,4,o),
(179,-6.5,q),
(144,-17,o),
(91.5,-17,q),
(39,-17,o),
(39,7,q),
(42,18,l),
(74,111,o),
(131,303.5,q),
(188,496,o),
(209,588,q),
(219,648,o),
(219,666,q)
);
}
);
width = 420;
}
);
unicode = 86;
},
{
category = Letter;
glyphname = W;
layers = (
{
layerId = "7e2a03ba-2254-48dc-b40c-8c8f8912cf0a";
name = Fore;
shapes = (
{
closed = 1;
nodes = (
(218,686,l),
(218,713,o),
(311,713,q),
(369,713,o),
(369,684,q),
(369,679,o),
(367,677,q),
(360,638,o),
(288,428,q),
(216,218,o),
(216,196.5,q),
(216,175,o),
(236,175,q),
(251,175,o),
(259,183,q),
(273,197,o),
(294,218,q),
(315,239,o),
(409,369.5,q),
(503,500,o),
(560,595,q),
(579,633,o),
(686,633,q),
(713,633,o),
(713,616,q),
(706,597,l),
(676,536,o),
(625,382,q),
(574,228,o),
(574,201.5,q),
(574,175,o),
(594,175,q),
(609,175,o),
(617,183,q),
(631,197,o),
(645,211,q),
(682,248,o),
(807.5,422.5,q),
(933,597,o),
(977,683,q),
(988,705,o),
(1002,712,q),
(1027,724,o),
(1090,726,q),
(1110,726,l),
(1162,726,o),
(1162,709,q),
(1162,702,o),
(1153,693,q),
(1055,600,o),
(865.5,377.5,q),
(676,155,o),
(608,56,q),
(594,35,o),
(586,26,q),
(578,17,o),
(560,5,q),
(526,-17,o),
(441,-17,q),
(392,-17,o),
(392,7,q),
(395,18,l),
(401,37,o),
(417,82,q),
(433,127,o),
(444,158,q),
(455,189,o),
(468,226,q),
(493,301,o),
(493,318,q),
(493,335,o),
(478,335,q),
(462,335,o),
(442,311,q),
(363,217,o),
(250,56,q),
(231,29,o),
(220,17.5,q),
(209,6,o),
(174,-5.5,q),
(139,-17,o),
(86.5,-17,q),
(34,-17,o),
(34,7,q),
(37,18,l),
(72,119,o),
(130.5,309,q),
(189,499,o),
(210,588,q),
(219,639,o),
(219,664,q)
);
}
);
width = 747;
}
);
unicode = 87;
},
{
category = Letter;
glyphname = X;
layers = (
{
layerId = "7e2a03ba-2254-48dc-b40c-8c8f8912cf0a";
name = Fore;
shapes = (
{
closed = 1;
nodes = (
(370,245,l),
(370,265,o),
(354,265,q),
(341,265,o),
(321,249,q),
(264,199,o),
(201,132.5,q),
(138,66,o),
(117.5,38,q),
(97,10,o),
(90.5,3.5,q),
(84,-3,o),
(55,-14,q),
(26,-25,o),
(-12.5,-25,q),
(-51,-25,o),
(-51,-13,q),
(-51,12,o),
(342,344,q),
(377,372,o),
(379,417,q),
(383,491,o),
(383,527,q),
(383,628,o),
(366,679,q),
(361,694,l),
(361,711,o),
(435,711,q),
(471,711,o),
(486,699.5,q),
(501,688,o),
(501,657,q),
(501,626,o),
(494,526,q),
(494,499,o),
(513,499,q),
(523,499,o),
(536,510,q),
(668,627,o),
(691.5,657,q),
(715,687,o),
(730,694,q),
(760,706,o),
(814,708,q),
(831,708,l),
(880,708,o),
(880,692,q),
(880,683,o),
(866,675,q),
(739,603,o),
(531,433,q),
(526,430,o),
(518.5,424.5,q),
(511,419,o),
(498,398,q),
(485,377,o),
(483,352,q),
(476,226,o),
(476,144,q),
(476,50,o),
(490,22,q),
(494,14,o),
(494,9,q),
(494,-6,o),
(463.5,-12.5,q),
(433,-19,o),
(405,-19,q),
(377,-19,o),
(369,-7,q),
(361,5,o),
(361,42,q),
(361,79,o),
(369,223,q)
);
}
);
width = 537;
}
);
unicode = 88;
},
{
category = Letter;
glyphname = Y;
layers = (
{
layerId = "7e2a03ba-2254-48dc-b40c-8c8f8912cf0a";
name = Fore;
shapes = (
{
closed = 1;
nodes = (
(191,620,l),
(191,662,o),
(185,674,q),
(179,686,o),
(179,694,q),
(179,714,o),
(257.5,714,q),
(336,714,o),
(336,677,q),
(336,652,o),
(319.5,556.5,q),
(303,461,o),
(302,425.5,q),
(301,390,o),
(321,390,q),
(333,390,o),
(348,403,q),
(409,457,o),
(485,539.5,q),
(561,622,o),
(586,654.5,q),
(611,687,o),
(628,694,q),
(664,708,o),
(714,710,q),
(731,710,l),
(788,710,o),
(788,692,q),
(788,682,o),
(771,672,q),
(707,635,o),
(550.5,504,q),
(394,373,o),
(322,296,q),
(293,265,o),
(224,136.5,q),
(155,8,o),
(130,-9,q),
(107,-29,o),
(62,-29,q),
(17,-29,o),
(17,-12,q),
(17,-9,l),
(17,-2,o),
(50,53,q),
(157,228,o),
(170,273,q),
(192,345,o),
(192,514,q)
);
}
);
width = 355;
}
);
unicode = 89;
},
{
category = Letter;
glyphname = Z;
layers = (
{
layerId = "7e2a03ba-2254-48dc-b40c-8c8f8912cf0a";
name = Fore;
shapes = (
{
closed = 1;
nodes = (
(795,606,o),
(585,444,q),
(498,377,o),
(410.5,309,q),
(323,241,o),
(261.5,179.5,q),
(200,118,o),
(200,85,q),
(200,67,o),
(223,60.5,q),
(246,54,o),
(275,54,q),
(304,54,o),
(350.5,73,q),
(397,92,o),
(434,119,q),
(513,178,o),
(550,219,q),
(567,238,l),
(588,255,o),
(603,255,q),
(605,255,l),
(621,255,o),
(621,245,q),
(619,221,o),
(540.5,98.5,q),
(462,-24,o),
(436,-27,q),
(425,-27,l),
(365,-27,o),
(335,-4,q),
(239,-13,o),
(212,-13,q),
(79,-13,o),
(31.5,-5,q),
(-16,3,o),
(-16,29,q),
(-16,64,o),
(46.5,131,q),
(109,198,o),
(198.5,270,q),
(288,342,o),
(378,411,q),
(468,480,o),
(531,532.5,q),
(594,585,o),
(595,600,q),
(595,601,l),
(595,628,o),
(540.5,628,q),
(486,628,o),
(431,599.5,q),
(376,571,o),
(313,519,q),
(290,501,o),
(275.5,501,q),
(261,501,o),
(261,512,q),
(262,523,o),
(310,597,q),
(358,671,o),
(389,697,q),
(402,709,o),
(421,709,q),
(463,709,o),
(490,687,q),
(556,693,o),
(639,693,q),
(795,693,o),
(795,654,q)
);
}
);
width = 579;
}
);
unicode = 90;
},
{
category = Letter;
glyphname = bracketleft;
layers = (
{
layerId = "7e2a03ba-2254-48dc-b40c-8c8f8912cf0a";
name = Fore;
shapes = (
{
closed = 1;
nodes = (
(585,750,o),
(585,743.5,q),
(585,737,o),
(565,727,q),
(545,717,o),
(533.5,709,q),
(522,701,o),
(496.5,670,q),
(471,639,o),
(441,588,q),
(181,135,l),
(106,6,o),
(106,-32,q),
(106,-41,l),
(106,-76,o),
(98,-76,q),
(83,-76,o),
(66,-37.5,q),
(49,1,o),
(49,41,q),
(49,60,o),
(57.5,77.5,q),
(66,95,o),
(71,105.5,q),
(76,116,o),
(86,132,q),
(96,148,o),
(102,157,q),
(125,196,o),
(149.5,233.5,q),
(174,271,o),
(215,344,q),
(256,417,o),
(303,503.5,q),
(350,590,o),
(365,617,q),
(380,644,o),
(384.5,651.5,q),
(389,659,o),
(406.5,678.5,q),
(424,698,o),
(444.5,713,q),
(465,728,o),
(500,740.5,q),
(535,753,o),
(575,753,q)
);
}
);
width = 268;
}
);
unicode = 91;
},
{
category = Letter;
glyphname = backslash;
layers = (
{
layerId = "7e2a03ba-2254-48dc-b40c-8c8f8912cf0a";
name = Fore;
shapes = (
{
closed = 1;
nodes = (
(337,-56,o),
(305,-56,q),
(295,-56,l),
(248,-56,o),
(245,-30,q),
(240,17,o),
(158,538,q),
(132,703,l),
(131,705,o),
(131,708,q),
(131,729,o),
(162,729,q),
(173,729,l),
(221,729,o),
(222,703,q),
(224,669,o),
(271.5,354,q),
(319,39,o),
(336,-30,q),
(337,-32,o),
(337,-35,q)
);
}
);
width = 357;
}
);
unicode = 92;
},
{
category = Letter;
glyphname = bracketright;
layers = (
{
layerId = "7e2a03ba-2254-48dc-b40c-8c8f8912cf0a";
name = Fore;
shapes = (
{
closed = 1;
nodes = (
(-62,-73,o),
(-62,-66.5,q),
(-62,-60,o),
(-42,-50,q),
(-22,-40,o),
(-10.5,-32,q),
(1,-24,o),
(26.5,7,q),
(52,38,o),
(82,89,q),
(342,542,l),
(417,671,o),
(417,709,q),
(417,718,l),
(417,753,o),
(425,753,q),
(440,753,o),
(457,714.5,q),
(474,676,o),
(474,636,q),
(474,617,o),
(465.5,599.5,q),
(457,582,o),
(452,571.5,q),
(447,561,o),
(437,545,q),
(427,529,o),
(422,520,q),
(398,481,o),
(373.5,443.5,q),
(349,406,o),
(308,333,q),
(267,260,o),
(220,173.5,q),
(173,87,o),
(158,60,q),
(143,33,o),
(138.5,25.5,q),
(134,18,o),
(116.5,-1.5,q),
(99,-21,o),
(78.5,-36,q),
(58,-51,o),
(23,-63.5,q),
(-12,-76,o),
(-52,-76,q)
);
}
);
width = 309;
}
);
unicode = 93;
},
{
category = Letter;
glyphname = asciicircum;
layers = (
{
layerId = "7e2a03ba-2254-48dc-b40c-8c8f8912cf0a";
name = Fore;
shapes = (
{
closed = 1;
nodes = (
(248,143,l),
(248,130,o),
(239,130,q),
(219,130,o),
(198,171,q),
(195,177,o),
(190,177,q),
(185,177,o),
(179,173,q),
(125,137,o),
(95,137,q),
(65,137,o),
(65,145,q),
(65,148,o),
(76,158,q),
(122,205,o),
(133,220.5,q),
(144,236,o),
(149,239.5,q),
(154,243,o),
(166.5,243,q),
(179,243,o),
(193,229,q),
(198,225,o),
(203,225,q),
(208,225,o),
(223.5,234.5,q),
(239,244,o),
(261,244,q),
(271,243,o),
(271,233,q)
);
}
);
width = 279;
}
);
unicode = 94;
},
{
category = Letter;
glyphname = underscore;
layers = (
{
layerId = "7e2a03ba-2254-48dc-b40c-8c8f8912cf0a";
name = Fore;
shapes = (
{
closed = 1;
nodes = (
(484,-1,l),
(498,-1,o),
(498,-10,q),
(498,-24,o),
(484.5,-40,q),
(471,-56,o),
(440,-56,q),
(365,-52,o),
(237,-52,q),
(17,-57,l),
(4,-57,o),
(4,-47,q),
(4,-34,o),
(18,-17.5,q),
(32,-1,o),
(62,-1,q),
(356,-3,l)
);
}
);
width = 538;
}
);
unicode = 95;
},
{
category = Letter;
glyphname = grave;
layers = (
{
layerId = "7e2a03ba-2254-48dc-b40c-8c8f8912cf0a";
name = Fore;
shapes = (
{
closed = 1;
nodes = (
(342,554,o),
(350.5,554,q),
(359,554,o),
(362.5,551.5,q),
(366,549,o),
(367.5,546.5,q),
(369,544,o),
(372,537,q),
(378,526,l),
(388,508,o),
(403,486,q),
(436,439,o),
(436,435,q),
(436,431,o),
(426,431,q),
(419,431,l),
(395,435,o),
(347.5,466.5,q),
(300,498,o),
(300,514,q),
(300,530,o),
(321,542,q)
);
}
);
width = 400;
}
);
unicode = 96;
},
{
category = Letter;
glyphname = a;
layers = (
{
layerId = "7e2a03ba-2254-48dc-b40c-8c8f8912cf0a";
name = Fore;
shapes = (
{
closed = 1;
nodes = (
(252,56,l),
(252,64,o),
(246,64,q),
(237,64,o),
(209.5,38,q),
(182,12,o),
(140.5,-14.5,q),
(99,-41,o),
(57.5,-41,q),
(16,-41,o),
(16,20,q),
(16,96,o),
(82,195,q),
(116,245,o),
(160.5,287.5,q),
(205,330,o),
(269,357.5,q),
(333,385,o),
(403,385,q),
(440,385,o),
(466,365.5,q),
(492,346,o),
(492,317.5,q),
(492,289,o),
(475,289,q),
(466,289,o),
(451,300,q),
(423,319,o),
(363,319,q),
(284,319,o),
(213.5,247.5,q),
(143,176,o),
(143,106,q),
(143,97,o),
(148.5,89,q),
(154,81,o),
(164,81,q),
(194,81,o),
(241,122.5,q),
(288,164,o),
(333,242,q),
(336,251,o),
(355,259,q),
(374,267,o),
(400,267,q),
(437,264,o),
(437,251,q),
(437,250,o),
(429.5,238.5,q),
(422,227,o),
(403,197,q),
(384,167,o),
(349.5,98.5,q),
(315,30,o),
(309,-10,q),
(308,-22,o),
(299,-22,q),
(250,-22,o),
(250,35,q)
);
}
);
width = 400;
}
);
unicode = 97;
},
{
category = Letter;
glyphname = b;
layers = (
{
layerId = "7e2a03ba-2254-48dc-b40c-8c8f8912cf0a";
name = Fore;
shapes = (
{
closed = 1;
nodes = (
(152,-23,o),
(127.5,-14.5,q),
(103,-6,o),
(99,-6,q),
(88,-6,o),
(73,-29,q),
(53,-61,o),
(-2,-61,q),
(-35,-61,o),
(-35,-45,q),
(-34,-41,l),
(452,799,o),
(461,818,q),
(485,862,o),
(573,862,q),
(603,862,o),
(603,846,q),
(603,837,o),
(556,772,q),
(380,534,o),
(285,349,q),
(283,345,o),
(283,339,q),
(283,330,o),
(291,330,q),
(299,330,o),
(318,344,q),
(373,384,o),
(429,384,q),
(488,384,o),
(488,311,q),
(488,272,o),
(464,216.5,q),
(440,161,o),
(400,107,q),
(360,53,o),
(300,15,q),
(240,-23,o),
(178,-23,q)
);
},
{
closed = 1;
nodes = (
(269,34,o),
(327,123.5,q),
(385,213,o),
(385,275,q),
(385,302,o),
(363,302,q),
(330,302,o),
(277.5,256.5,q),
(225,211,o),
(187,160,q),
(149,109,o),
(149,90,q),
(150,84,o),
(153,74.5,q),
(156,65,o),
(172.5,49.5,q),
(189,34,o),
(214,34,q)
);
}
);
width = 433;
}
);
unicode = 98;
},
{
category = Letter;
glyphname = c;
layers = (
{
layerId = "7e2a03ba-2254-48dc-b40c-8c8f8912cf0a";
name = Fore;
shapes = (
{
closed = 1;
nodes = (
(333,364,l),
(350,364,o),
(360,381,q),
(368,403,o),
(419,402.5,q),
(470,402,o),
(470,381,q),
(470,378,o),
(447,355,q),
(424,332,o),
(391,289.5,q),
(358,247,o),
(340,204,q),
(338,198,o),
(324.5,198,q),
(311,198,o),
(303,210.5,q),
(295,223,o),
(295,237.5,q),
(295,252,o),
(298.5,263,q),
(302,274,o),
(302,279,q),
(302,298,o),
(281,298,q),
(223,298,o),
(178,231.5,q),
(133,165,o),
(133,110,q),
(133,37,o),
(204,37,q),
(247,37,o),
(279,57,q),
(286,63,o),
(293,63,q),
(304,63,o),
(304,52,q),
(304,26,o),
(257,-8.5,q),
(210,-43,o),
(144.5,-43,q),
(79,-43,o),
(54.5,-10.5,q),
(30,22,o),
(30,61.5,q),
(30,101,o),
(51.5,151,q),
(73,201,o),
(108.5,249.5,q),
(144,298,o),
(200,331.5,q),
(256,365,o),
(316,365,q)
);
}
);
width = 340;
}
);
unicode = 99;
},
{
category = Letter;
glyphname = d;
layers = (
{
layerId = "7e2a03ba-2254-48dc-b40c-8c8f8912cf0a";
name = Fore;
shapes = (
{
closed = 1;
nodes = (
(370,271,o),
(370,284.5,q),
(370,298,o),
(358,307,q),
(346,316,o),
(321,316,q),
(263,316,o),
(199,237,q),
(135,158,o),
(135,102,q),
(135,72,o),
(156,72,q),
(184,72,o),
(237,119,q),
(290,166,o),
(330,218.5,q)
);
},
{
closed = 1;
nodes = (
(292,-26,l),
(244,-26,o),
(244,28,q),
(246,48,l),
(239,58,l),
(233,58,o),
(224,51,q),
(138,-32,o),
(73,-32,q),
(53,-32,o),
(36.5,-16.5,q),
(20,-1,o),
(20,37,q),
(20,113,o),
(86,212,q),
(190,369,o),
(348,369,q),
(370,369,o),
(388.5,362.5,q),
(407,356,o),
(411.5,356,q),
(416,356,o),
(428,371.5,q),
(440,387,o),
(505,498,q),
(656,755,o),
(682,808,q),
(704,852,o),
(793,852,q),
(820,852,o),
(820,836,q),
(820,830,o),
(777.5,774,q),
(735,718,o),
(656.5,603,q),
(578,488,o),
(511,367,q),
(338,91,o),
(305,-14,q),
(301,-26,o),
(294,-26,q)
);
}
);
width = 406;
}
);
unicode = 100;
},
{
category = Letter;
glyphname = e;
layers = (
{
layerId = "7e2a03ba-2254-48dc-b40c-8c8f8912cf0a";
name = Fore;
shapes = (
{
closed = 1;
nodes = (
(84,-57,o),
(57,-22.5,q),
(30,12,o),
(30,62.5,q),
(30,113,o),
(52,168.5,q),
(74,224,o),
(112.5,276,q),
(151,328,o),
(213.5,363.5,q),
(276,399,o),
(348,399,q),
(381,399,o),
(398,378.5,q),
(415,358,o),
(415,330,q),
(415,272,o),
(374,222,q),
(333,172,o),
(283,146,q),
(233,120,o),
(194.5,116.5,q),
(156,113,o),
(143,102,q),
(130,91,o),
(130,58,q),
(130,25,o),
(145,8,q),
(160,-9,o),
(175,-15,q),
(190,-21,o),
(190,-27,q),
(190,-41,o),
(175,-49,q),
(160,-57,o),
(142,-57,q)
);
},
{
closed = 1;
nodes = (
(318,336,o),
(290,336,q),
(250,336,o),
(201.5,280,q),
(153,224,o),
(153,179,q),
(153,168,o),
(170,168,q),
(211,168,o),
(264.5,210,q),
(318,252,o),
(318,305,q)
);
}
);
width = 346;
}
);
unicode = 101;
},
{
category = Letter;
glyphname = f;
layers = (
{
layerId = "7e2a03ba-2254-48dc-b40c-8c8f8912cf0a";
name = Fore;
shapes = (
{
closed = 1;
nodes = (
(469,366,l),
(480,365,o),
(480,355,q),
(480,354,l),
(480,331,o),
(444,321,q),
(424,321,o),
(388,308.5,q),
(352,296,o),
(342,290,q),
(316,277,o),
(316,265,q),
(316,253,o),
(344,234,q),
(354,228,o),
(363,210,q),
(372,192,o),
(372,164,q),
(372,100,o),
(311.5,-20,q),
(251,-140,o),
(167.5,-255,q),
(84,-370,o),
(-10.5,-456,q),
(-105,-542,o),
(-165,-542,q),
(-182,-542,o),
(-191,-534,q),
(-200,-526,o),
(-201.5,-518,q),
(-203,-510,o),
(-203,-496,q),
(-203,-436,o),
(-99,-221.5,q),
(5,-7,o),
(168,265,q),
(170,269,o),
(170,273,q),
(170,297,o),
(119,297,q),
(110,297,o),
(110,307,q),
(110,324,o),
(146,347,q),
(156,354,o),
(180,354,q),
(196,354,l),
(218,354,o),
(223,362,q),
(336,565,o),
(449.5,708.5,q),
(563,852,o),
(627,852,q),
(668,852,o),
(668,801,q),
(668,736,o),
(620,650.5,q),
(572,565,o),
(508.5,506,q),
(445,447,o),
(402,447,q),
(391,447,o),
(391,453,q),
(391,462,o),
(404,471,q),
(459,508,o),
(510,589,q),
(561,670,o),
(561,704,q),
(561,715,o),
(553,715,q),
(515,715,o),
(418.5,569.5,q),
(322,424,o),
(322,383,q),
(322,360,o),
(354,360,q)
);
},
{
closed = 1;
nodes = (
(217,223,o),
(206,206,q),
(108,38,o),
(35,-123.5,q),
(-38,-285,o),
(-38,-338,q),
(-38,-339,l),
(-38,-359,o),
(-23,-359,q),
(-5,-359,o),
(43,-307.5,q),
(91,-256,o),
(142,-183.5,q),
(193,-111,o),
(232.5,-20,q),
(272,71,o),
(272,138,q),
(272,223,o),
(228,223,q)
);
}
);
width = 386;
}
);
unicode = 102;
},
{
category = Letter;
glyphname = g;
layers = (
{
layerId = "7e2a03ba-2254-48dc-b40c-8c8f8912cf0a";
name = Fore;
shapes = (
{
closed = 1;
nodes = (
(-60,-503,o),
(32.5,-364.5,q),
(125,-226,o),
(197,-88,q),
(269,50,o),
(269,64.5,q),
(269,79,o),
(261,79,q),
(253,79,o),
(234,63.5,q),
(215,48,o),
(193.5,29,q),
(172,10,o),
(138.5,-5.5,q),
(105,-21,o),
(72,-21,q),
(31,-21,o),
(31,40,q),
(31,89,o),
(58,150.5,q),
(85,212,o),
(132,269.5,q),
(179,327,o),
(255,366,q),
(331,405,o),
(418,405,q),
(440,405,o),
(466,397,q),
(518,381,o),
(518,339,q),
(518,309,o),
(501,309,q),
(496,309,o),
(484,316,q),
(448,340,o),
(373,340,q),
(298,340,o),
(227.5,265.5,q),
(157,191,o),
(157,120,q),
(157,95,o),
(178,95,q),
(210,95,o),
(266.5,140.5,q),
(323,186,o),
(379,275,q),
(382,289,o),
(425,289,q),
(468,289,o),
(468,274,q),
(468,263,o),
(398.5,130.5,q),
(329,-2,o),
(281,-87.5,q),
(233,-173,o),
(165.5,-277,q),
(98,-381,o),
(38,-456,q),
(-22,-531,o),
(-87,-582.5,q),
(-152,-634,o),
(-203,-634,q),
(-245,-634,o),
(-245,-564,q),
(-245,-494,o),
(-204,-408.5,q),
(-163,-323,o),
(-105.5,-251.5,q),
(-48,-180,o),
(17,-130,q),
(82,-80,o),
(126,-80,q),
(129,-80,l),
(141,-80,o),
(141,-87,q),
(141,-94,o),
(129,-100,q),
(91,-119,o),
(32.5,-184.5,q),
(-26,-250,o),
(-73.5,-335,q),
(-121,-420,o),
(-121,-478,q),
(-121,-479,l),
(-121,-503,o),
(-103,-503,q)
);
}
);
width = 426;
}
);
unicode = 103;
},
{
category = Letter;
glyphname = h;
layers = (
{
layerId = "7e2a03ba-2254-48dc-b40c-8c8f8912cf0a";
name = Fore;
shapes = (
{
closed = 1;
nodes = (
(509,370,o),
(509,320,q),
(509,270,o),
(474,194,q),
(423,87,o),
(358,9,q),
(327,-28,o),
(280,-28,q),
(265,-28,o),
(265,-20,q),
(269,-9,l),
(316,60,o),
(352.5,133.5,q),
(389,207,o),
(389,240,q),
(389,246,o),
(385.5,250,q),
(382,254,o),
(374,255,q),
(333,255,o),
(263.5,188,q),
(194,121,o),
(143.5,53,q),
(93,-15,o),
(78.5,-41.5,q),
(64,-68,o),
(49,-73.5,q),
(34,-79,o),
(0,-79,q),
(-34,-79,o),
(-34,-67,q),
(-34,-63,o),
(-24.5,-48,q),
(-15,-33,o),
(47.5,87,q),
(110,207,o),
(179.5,331.5,q),
(249,456,o),
(331.5,586,q),
(414,716,o),
(496.5,798.5,q),
(579,881,o),
(640,881,q),
(687,881,o),
(687,826,q),
(687,720,o),
(590.5,599,q),
(494,478,o),
(414,441,q),
(396,433,o),
(376.5,433,q),
(357,433,o),
(357,442,q),
(363,452,l),
(461,520,o),
(518.5,609,q),
(576,698,o),
(576,734,q),
(576,746,o),
(573,750.5,q),
(570,755,o),
(559,755,q),
(523,755,o),
(441.5,638,q),
(360,521,o),
(295,397,q),
(230,273,o),
(230,246,q),
(230,235,o),
(237.5,235,q),
(245,235,o),
(258,245,q),
(273,259,o),
(296.5,280,q),
(320,301,o),
(375.5,335.5,q),
(431,370,o),
(466,370,q)
);
}
);
width = 468;
}
);
unicode = 104;
},
{
category = Letter;
glyphname = i;
layers = (
{
layerId = "7e2a03ba-2254-48dc-b40c-8c8f8912cf0a";
name = Fore;
shapes = (
{
closed = 1;
nodes = (
(58,-51,o),
(41,-33.5,q),
(24,-16,o),
(24,9,q),
(24,23,o),
(89.5,150.5,q),
(155,278,o),
(157,323,q),
(157,337,o),
(175,349,q),
(207,368,o),
(270,368,q),
(282,368,o),
(295.5,363.5,q),
(309,359,o),
(309,351,q),
(309,347,o),
(306,344,q),
(268,296,o),
(195,171,q),
(122,46,o),
(85,-32,q),
(80,-51,o),
(72,-51,q)
);
},
{
closed = 1;
nodes = (
(247,424,o),
(245,459,q),
(245,460,l),
(245,490,o),
(274.5,509,q),
(304,528,o),
(333,528,q),
(377,528,o),
(379,493,q),
(379,463,o),
(350,443.5,q),
(321,424,o),
(291,424,q)
);
}
);
width = 206;
}
);
unicode = 105;
},
{
category = Letter;
glyphname = j;
layers = (
{
layerId = "7e2a03ba-2254-48dc-b40c-8c8f8912cf0a";
name = Fore;
shapes = (
{
closed = 1;
nodes = (
(276,368,o),
(289.5,363,q),
(303,358,o),
(303,350,q),
(303,348,o),
(301,344,q),
(269,297,o),
(198.5,167.5,q),
(128,38,o),
(55,-90,q),
(-18,-218,o),
(-102.5,-347.5,q),
(-187,-477,o),
(-274.5,-557.5,q),
(-362,-638,o),
(-435,-638,q),
(-475,-638,o),
(-474.5,-563.5,q),
(-474,-489,o),
(-431.5,-401.5,q),
(-389,-314,o),
(-330.5,-245.5,q),
(-272,-177,o),
(-206.5,-130.5,q),
(-141,-84,o),
(-95,-84,q),
(-83,-84,o),
(-83,-91,q),
(-83,-98,o),
(-96,-104,q),
(-134,-123,o),
(-193.5,-188.5,q),
(-253,-254,o),
(-301.5,-339,q),
(-350,-424,o),
(-350,-482,q),
(-350,-507,o),
(-333,-507,q),
(-235,-507,o),
(46,60,q),
(145,243,o),
(150,323,q),
(150,337,o),
(168,349,q),
(200,368,o),
(264,368,q)
);
},
{
closed = 1;
nodes = (
(374,463,o),
(345,443.5,q),
(316,424,o),
(285,424,q),
(240,424,o),
(240,460,q),
(240,490,o),
(270,509,q),
(300,528,o),
(324.5,528,q),
(349,528,o),
(361.5,518.5,q),
(374,509,o),
(374,493,q)
);
}
);
width = 233;
}
);
unicode = 106;
},
{
category = Letter;
glyphname = k;
layers = (
{
layerId = "7e2a03ba-2254-48dc-b40c-8c8f8912cf0a";
name = Fore;
shapes = (
{
closed = 1;
nodes = (
(386,-128,o),
(376,-130,q),
(330,-130,o),
(294,-33,q),
(258,64,o),
(258,136,q),
(258,147,o),
(269,150,q),
(310,164,o),
(364.5,203,q),
(419,242,o),
(419,285,q),
(419,299,o),
(405,299,q),
(343,299,o),
(232.5,190.5,q),
(122,82,o),
(76,-4,q),
(72,-13,o),
(60.5,-13,q),
(49,-13,o),
(34.5,7,q),
(20,27,o),
(20,48,q),
(20,69,o),
(27,84,q),
(128,288,o),
(217.5,436,q),
(307,584,o),
(372,671.5,q),
(437,759,o),
(508,820.5,q),
(579,882,o),
(633,882,q),
(680,882,o),
(680,826,q),
(680,752,o),
(627,664.5,q),
(574,577,o),
(510,518,q),
(419,433,o),
(369,433,q),
(350,433,o),
(350,443,q),
(356,452,l),
(454,520,o),
(511.5,609,q),
(569,698,o),
(569,734,q),
(569,755,o),
(552,755,q),
(516,755,o),
(437.5,648,q),
(359,541,o),
(297.5,426,q),
(236,311,o),
(236,284,q),
(236,271,o),
(248,271,q),
(257,271,o),
(269.5,282,q),
(282,293,o),
(305,310.5,q),
(328,328,o),
(389,357,q),
(450,386,o),
(498.5,386,q),
(547,386,o),
(547,340,q),
(547,302,o),
(518,267,q),
(489,232,o),
(454,211,q),
(419,190,o),
(389,168.5,q),
(359,147,o),
(358,133,q),
(356,105,o),
(356,82,q),
(356,59,o),
(359,26.5,q),
(362,-6,o),
(366,-31,q),
(374,-70,o),
(383,-110,q),
(386,-122,l)
);
}
);
width = 450;
}
);
unicode = 107;
},
{
category = Letter;
glyphname = l;
layers = (
{
layerId = "7e2a03ba-2254-48dc-b40c-8c8f8912cf0a";
name = Fore;
shapes = (
{
closed = 1;
nodes = (
(91,171,o),
(132,251,q),
(173,331,o),
(243,448,q),
(347,621,o),
(457,791,q),
(474,818,o),
(510,835,q),
(546,852,o),
(575,852,q),
(604,852,o),
(605,836,q),
(605,831,o),
(599,825,q),
(565,794,o),
(485,681.5,q),
(405,569,o),
(315.5,424,q),
(226,279,o),
(158.5,118,q),
(91,-43,o),
(91,-145,q),
(91,-160,o),
(82,-160,q),
(65,-160,o),
(53,-147.5,q),
(41,-135,o),
(36,-116,q),
(25,-78,o),
(25,-38,q),
(25,2,o),
(58,86.5,q)
);
}
);
width = 191;
}
);
unicode = 108;
},
{
category = Letter;
glyphname = m;
layers = (
{
layerId = "7e2a03ba-2254-48dc-b40c-8c8f8912cf0a";
name = Fore;
shapes = (
{
closed = 1;
nodes = (
(534,-50,o),
(525,-29.5,q),
(516,-9,o),
(516,5,q),
(516,58,o),
(597,188,q),
(624,232,o),
(624,247,q),
(624,262,o),
(610,262,q),
(573,262,o),
(513,205.5,q),
(453,149,o),
(411,92,q),
(369,36,l),
(352,12,o),
(316.5,12,q),
(281,12,o),
(281,25,q),
(281,45,o),
(329.5,124.5,q),
(378,204,o),
(378,231,q),
(378,239,o),
(373.5,243.5,q),
(369,248,o),
(364,248,q),
(332,248,o),
(293,222.5,q),
(254,197,o),
(220,160,q),
(153,87,o),
(112,24,q),
(96,-1,l),
(75,-31,o),
(20,-31,q),
(-5,-31,o),
(-5,-18,q),
(-5,9,o),
(98,192,q),
(201,375,o),
(232,387,q),
(249,397,o),
(278.5,397,q),
(308,397,o),
(308,387.5,q),
(308,378,o),
(273.5,326.5,q),
(239,275,o),
(239,258,q),
(242,251,o),
(249,251,q),
(256,251,o),
(264,258,q),
(272,265,o),
(290,280.5,q),
(308,296,o),
(356.5,321.5,q),
(405,347,o),
(444.5,347,q),
(484,347,o),
(484,313,q),
(484,289,o),
(474,269,q),
(464,249,o),
(464,245,q),
(464,237,o),
(472.5,237,q),
(481,237,o),
(488,246,q),
(503,261,o),
(527.5,283,q),
(552,305,o),
(609.5,341.5,q),
(667,378,o),
(703,378,q),
(752,378,o),
(752,335,q),
(752,299,o),
(726.5,251.5,q),
(701,204,o),
(692,187.5,q),
(683,171,o),
(654.5,125,q),
(626,79,o),
(616,62.5,q),
(606,46,o),
(588.5,12.5,q),
(571,-21,o),
(563,-35.5,q),
(555,-50,o),
(551,-50,q)
);
}
);
width = 702;
}
);
unicode = 109;
},
{
category = Letter;
glyphname = n;
layers = (
{
layerId = "7e2a03ba-2254-48dc-b40c-8c8f8912cf0a";
name = Fore;
shapes = (
{
closed = 1;
nodes = (
(257,-43,o),
(257,-30,q),
(259,-24,l),
(319,66,o),
(362,149.5,q),
(405,233,o),
(405,258,q),
(405,266,o),
(401,270.5,q),
(397,275,o),
(389,276,q),
(350,276,o),
(284.5,226,q),
(219,176,o),
(169.5,123,q),
(120,70,o),
(96,36.5,q),
(72,3,o),
(24,3,q),
(-2,3,o),
(-2,16,q),
(-2,42,o),
(96,199.5,q),
(194,357,o),
(226,369,q),
(243,379,o),
(269.5,379,q),
(296,379,o),
(296,368.5,q),
(296,358,o),
(272,323,q),
(248,288,o),
(248,278,q),
(250,270,o),
(256.5,270,q),
(263,270,o),
(268,274,q),
(416,389,o),
(504,389,q),
(541,389,o),
(541,346,q),
(541,318,o),
(499.5,225,q),
(458,132,o),
(394.5,44.5,q),
(331,-43,o),
(285,-43,q)
);
}
);
width = 479;
}
);
unicode = 110;
},
{
category = Letter;
glyphname = o;
layers = (
{
layerId = "7e2a03ba-2254-48dc-b40c-8c8f8912cf0a";
name = Fore;
shapes = (
{
closed = 1;
nodes = (
(63,-2,o),
(48.5,26,q),
(34,54,o),
(34,95,q),
(34,159,o),
(75.5,229,q),
(117,299,o),
(192.5,349,q),
(268,399,o),
(352,399,q),
(391,399,o),
(417,378,q),
(443,357,o),
(443,336.5,q),
(443,316,o),
(437,304,q),
(431,292,o),
(431,288,q),
(431,276,o),
(450,276,q),
(469,276,o),
(479,281,q),
(489,286,o),
(491,286,q),
(499,286,o),
(499,265.5,q),
(499,245,o),
(479,217.5,q),
(459,190,o),
(430,177,q),
(426,169,o),
(419,154.5,q),
(412,140,o),
(386,104.5,q),
(360,69,o),
(330.5,41.5,q),
(301,14,o),
(252.5,-8.5,q),
(204,-31,o),
(164,-31,q),
(124,-31,o),
(86,-13,q)
);
},
{
closed = 1;
nodes = (
(309,167,o),
(300,167,q),
(287,167,o),
(270.5,161,q),
(254,155,o),
(252,155,q),
(246,155,o),
(246,164,q),
(246,203,o),
(274,231,q),
(285,243,o),
(306,251.5,q),
(327,260,o),
(338.5,271.5,q),
(350,283,o),
(350,311,q),
(350,345,o),
(314,345,q),
(250,345,o),
(192,254.5,q),
(134,164,o),
(134,93,q),
(134,69,o),
(150.5,52,q),
(167,35,o),
(190,35,q),
(242,35,o),
(275.5,78.5,q),
(309,122,o),
(309,159,q)
);
}
);
width = 426;
}
);
unicode = 111;
},
{
category = Letter;
glyphname = p;
layers = (
{
layerId = "7e2a03ba-2254-48dc-b40c-8c8f8912cf0a";
name = Fore;
shapes = (
{
closed = 1;
nodes = (
(55,-37,o),
(48,-46,q),
(14,-90,o),
(-92.5,-294,q),
(-199,-498,o),
(-228,-581,q),
(-232,-593,o),
(-247,-593,q),
(-262,-593,o),
(-282,-571,q),
(-302,-549,o),
(-302,-524,q),
(-302,-489,o),
(-202,-311.5,q),
(-102,-134,o),
(35.5,98,q),
(173,330,o),
(196.5,374.5,q),
(220,419,o),
(221,421.5,q),
(222,424,o),
(228,431.5,q),
(234,439,o),
(242,444,q),
(265,459,o),
(303,459,q),
(324,459,o),
(324,446,q),
(324,440,o),
(296.5,398,q),
(269,356,o),
(269,346,q),
(269,336,o),
(276,336,q),
(283,336,o),
(302,348,q),
(361,385,o),
(411,385,q),
(431,385,o),
(447,369,q),
(463,353,o),
(463,316,q),
(463,235,o),
(415,153.5,q),
(367,72,o),
(281.5,17.5,q),
(196,-37,o),
(100,-37,q)
);
},
{
closed = 1;
nodes = (
(358,278,o),
(352,286.5,q),
(346,295,o),
(337,295,q),
(301,295,o),
(258,261,q),
(215,227,o),
(183.5,184,q),
(152,141,o),
(130.5,105,q),
(109,69,o),
(109,59,q),
(109,49,o),
(123.5,39,q),
(138,29,o),
(158,29,q),
(221,29,o),
(289.5,115,q),
(358,201,o),
(358,264,q)
);
}
);
width = 408;
}
);
unicode = 112;
},
{
category = Letter;
glyphname = q;
layers = (
{
layerId = "7e2a03ba-2254-48dc-b40c-8c8f8912cf0a";
name = Fore;
shapes = (
{
closed = 1;
nodes = (
(329,-39,l),
(379,-39,o),
(379,-67,q),
(379,-76,o),
(358.5,-85.5,q),
(338,-95,o),
(309.5,-106,q),
(281,-117,o),
(243,-147,q),
(205,-177,o),
(177.5,-220.5,q),
(150,-264,o),
(74,-409,q),
(-2,-554,o),
(-28,-629,q),
(-32,-641,o),
(-48,-641,q),
(-64,-641,o),
(-84.5,-619.5,q),
(-105,-598,o),
(-105,-572,q),
(-105,-546,o),
(-58,-467.5,q),
(-11,-389,o),
(36,-315.5,q),
(83,-242,o),
(83,-229,q),
(83,-216,o),
(75.5,-204.5,q),
(68,-193,o),
(59,-186.5,q),
(50,-180,o),
(50,-176,q),
(50,-160,o),
(87.5,-127.5,q),
(125,-95,o),
(170,-70,q),
(182,-63,o),
(203.5,-29.5,q),
(225,4,o),
(240,34,q),
(255,64,l),
(256,66,o),
(256,70,q),
(256,78,o),
(248,78,q),
(240,78,o),
(221.5,64.5,q),
(203,51,o),
(183.5,35.5,q),
(164,20,o),
(133.5,6.5,q),
(103,-7,o),
(73,-7,q),
(32,-7,o),
(32,54,q),
(32,103,o),
(57,162,q),
(82,221,o),
(127,276,q),
(172,331,o),
(245.5,368,q),
(319,405,o),
(405,405,q),
(441,405,o),
(479.5,388,q),
(518,371,o),
(518,340,q),
(518,309,o),
(502,309,q),
(498,309,o),
(489.5,316.5,q),
(481,324,o),
(451.5,332,q),
(422,340,o),
(367,340,q),
(286,340,o),
(219,269.5,q),
(152,199,o),
(152,128,q),
(152,103,o),
(173,103,q),
(206,103,o),
(260,145,q),
(314,187,o),
(370,275,q),
(379,289,o),
(422.5,289,q),
(466,289,o),
(466,272,q),
(466,267,o),
(436,225,q),
(336,82,o),
(289,-17,q),
(285,-24,o),
(285,-30,q),
(285,-41,o),
(299,-41,q)
);
}
);
width = 423;
}
);
unicode = 113;
},
{
category = Letter;
glyphname = r;
layers = (
{
layerId = "7e2a03ba-2254-48dc-b40c-8c8f8912cf0a";
name = Fore;
shapes = (
{
closed = 1;
nodes = (
(320,166,o),
(320,184.5,q),
(320,203,o),
(332,227,q),
(332,240,o),
(322,240,q),
(283,240,o),
(233,193.5,q),
(183,147,o),
(149,97.5,q),
(115,48,o),
(87,-2,q),
(70,-32,o),
(17,-32,q),
(-10,-32,o),
(-10,-20,q),
(-10,7,o),
(88.5,181.5,q),
(187,356,o),
(219,368,q),
(241,379,o),
(268.5,379,q),
(296,379,o),
(296,367.5,q),
(296,356,o),
(273,323,q),
(250,290,o),
(250,281,q),
(250,272,o),
(257,272,q),
(261,272,o),
(279,284,q),
(323,317,o),
(387,352,q),
(396,364,l),
(420,394,o),
(465.5,394,q),
(511,394,o),
(511,376,q),
(509,371,o),
(501,360,q),
(422,252,o),
(368,134,q),
(364,127,o),
(359,127,q),
(340,127,o),
(330,146.5,q)
);
}
);
width = 401;
}
);
unicode = 114;
},
{
category = Letter;
glyphname = s;
layers = (
{
layerId = "7e2a03ba-2254-48dc-b40c-8c8f8912cf0a";
name = Fore;
shapes = (
{
closed = 1;
nodes = (
(-50,-39,o),
(-39,-37,q),
(31,-37,o),
(110.5,8,q),
(190,53,o),
(190,102,q),
(190,138,o),
(142,171.5,q),
(94,205,o),
(94,242,q),
(94,297,o),
(164,337.5,q),
(234,378,o),
(323,378,q),
(339,378,o),
(344,377.5,q),
(349,377,o),
(353.5,383.5,q),
(358,390,o),
(364,398,q),
(370,406,o),
(386,412.5,q),
(402,419,o),
(424,419,q),
(475,419,o),
(475,404,q),
(475,401,o),
(474,399,q),
(458,385,o),
(417,330,q),
(376,275,o),
(357,227,q),
(353,218,o),
(339.5,218,q),
(326,218,o),
(313,233.5,q),
(300,249,o),
(300,263.5,q),
(300,278,o),
(305,294.5,q),
(310,311,o),
(310,314,q),
(310,327,o),
(294,327,q),
(263,327,o),
(229.5,308.5,q),
(196,290,o),
(196,255,q),
(196,221,o),
(246,186,q),
(265,172,o),
(280.5,150,q),
(296,128,o),
(296,104,q),
(296,36,o),
(207,-19.5,q),
(118,-75,o),
(14,-75,q),
(-45,-75,o),
(-50,-47,q)
);
}
);
width = 346;
}
);
unicode = 115;
},
{
category = Letter;
glyphname = t;
layers = (
{
layerId = "7e2a03ba-2254-48dc-b40c-8c8f8912cf0a";
name = Fore;
shapes = (
{
closed = 1;
nodes = (
(594,641,l),
(604,641,o),
(604,637,q),
(604,633,o),
(602,627,q),
(600,621,o),
(593.5,612,q),
(587,603,o),
(578,596,q),
(554,577,o),
(518.5,577,q),
(483,577,o),
(466.5,575,q),
(450,573,o),
(438,565,q),
(426,557,o),
(422,553,q),
(418,549,o),
(408,533,q),
(398,517,o),
(394,511,q),
(341,437,o),
(222.5,232,q),
(104,27,o),
(75,-85,q),
(72,-95,o),
(56.5,-95,q),
(41,-95,o),
(14,-69,q),
(-13,-43,o),
(-13,-16,q),
(-13,11,o),
(68.5,145,q),
(150,279,o),
(232,408.5,q),
(314,538,o),
(314,552.5,q),
(314,567,o),
(302,570.5,q),
(290,574,o),
(260,574,q),
(227,574,l),
(214,574,o),
(214,586,q),
(214,598,o),
(225.5,611.5,q),
(237,625,o),
(260.5,635,q),
(284,645,o),
(308.5,655,q),
(333,665,o),
(372.5,700,q),
(412,735,o),
(452,790,q),
(477,824,o),
(538,824,q),
(559,824,o),
(559,811,q),
(559,803,o),
(514,738,q),
(469,673,o),
(469,656.5,q),
(469,640,o),
(499,640,q),
(511,639,o),
(545,639,q)
);
}
);
width = 210;
}
);
unicode = 116;
},
{
category = Letter;
glyphname = u;
layers = (
{
layerId = "7e2a03ba-2254-48dc-b40c-8c8f8912cf0a";
name = Fore;
shapes = (
{
closed = 1;
nodes = (
(295,97,o),
(290,97,q),
(288,97,l),
(273,90,l),
(208,27,o),
(167,3.5,q),
(126,-20,o),
(82,-20,q),
(62,-20,o),
(46,-8,q),
(30,4,o),
(30,38,q),
(30,72,o),
(65,158,q),
(100,244,o),
(152,322.5,q),
(204,401,o),
(243,411,q),
(256,415,o),
(278,415,q),
(300,415,o),
(300,403,q),
(300,399,o),
(264,347.5,q),
(228,296,o),
(192.5,230,q),
(157,164,o),
(157,131,q),
(157,98,o),
(180,98,q),
(223,98,o),
(279,154,q),
(335,210,o),
(426,331,q),
(451,367,o),
(506,367,q),
(536,367,o),
(536,355,q),
(536,352,o),
(533,347,q),
(376,105,o),
(344,0,q),
(340,-12,o),
(334,-12,q),
(331,-12,l),
(291,-12,o),
(291,52,q),
(295,90,l)
);
}
);
width = 444;
}
);
unicode = 117;
},
{
category = Letter;
glyphname = v;
layers = (
{
layerId = "7e2a03ba-2254-48dc-b40c-8c8f8912cf0a";
name = Fore;
shapes = (
{
closed = 1;
nodes = (
(59,-44,o),
(50.5,-29.5,q),
(42,-15,o),
(42,1,q),
(42,62,o),
(68,145,q),
(94,228,o),
(120,281,q),
(146,334,l),
(142,334,o),
(149.5,341.5,q),
(157,349,o),
(164,354,q),
(184,365,o),
(207.5,365,q),
(231,365,o),
(231,357,q),
(231,355,o),
(222,338,q),
(213,321,o),
(186.5,238,q),
(160,155,o),
(160,114,q),
(160,73,o),
(180,73,q),
(225,73,o),
(287.5,159,q),
(350,245,o),
(350,295,q),
(324,305,o),
(324,329.5,q),
(324,354,o),
(343.5,379.5,q),
(363,405,o),
(374,405,q),
(375,405,o),
(389.5,400.5,q),
(404,396,o),
(429.5,396,q),
(455,396,o),
(475,402,q),
(495,408,o),
(505.5,413.5,q),
(516,419,o),
(519,419,q),
(527,419,o),
(527,409,q),
(527,404,o),
(520,386,q),
(513,368,o),
(506,356,q),
(486,324,o),
(452,311,q),
(444,307,o),
(444,302,q),
(444,277,o),
(429,250,q),
(384,163,o),
(264.5,59.5,q),
(145,-44,o),
(79,-44,q)
);
}
);
width = 392;
}
);
unicode = 118;
},
{
category = Letter;
glyphname = w;
layers = (
{
layerId = "7e2a03ba-2254-48dc-b40c-8c8f8912cf0a";
name = Fore;
shapes = (
{
closed = 1;
nodes = (
(289,86,l),
(289,103,o),
(282,103,q),
(265,103,o),
(199,28,q),
(174,-1,o),
(141,-24.5,q),
(108,-48,o),
(85.5,-48,q),
(63,-48,o),
(54.5,-33.5,q),
(46,-19,o),
(46,-3,q),
(46,65,o),
(75,159,q),
(104,253,o),
(134,312,q),
(163,372,l),
(184,403,o),
(236,403,q),
(253,403,o),
(253,395,q),
(253,393,o),
(244,376,q),
(235,359,o),
(206,270.5,q),
(177,182,o),
(177,145.5,q),
(177,109,o),
(192,109,q),
(207,109,o),
(229,127,q),
(251,145,o),
(272,172,q),
(317,230,o),
(340,268,q),
(351,286,l),
(363,298,l),
(388,317,o),
(427,317,q),
(444,317,o),
(444,309,q),
(444,307,o),
(436,292,q),
(428,277,o),
(408.5,215.5,q),
(389,154,o),
(389,115,q),
(389,76,o),
(412,76,q),
(454,76,o),
(508,157,q),
(562,238,o),
(562,285,q),
(536,295,o),
(536,319.5,q),
(536,344,o),
(555.5,369.5,q),
(575,395,o),
(586,395,q),
(587,395,o),
(601.5,390.5,q),
(616,386,o),
(641,386,q),
(666,386,o),
(686.5,392,q),
(707,398,o),
(717.5,403.5,q),
(728,409,o),
(730,409,q),
(739,409,o),
(739,400,q),
(739,391,o),
(736,379,q),
(733,367,o),
(714.5,340.5,q),
(696,314,o),
(664,301,q),
(656,297,o),
(656,292,q),
(656,267,o),
(641,240,q),
(599,160,o),
(498,68,q),
(397,-24,o),
(336,-24,q),
(287,-24,o),
(287,41,q)
);
}
);
width = 612;
}
);
unicode = 119;
},
{
category = Letter;
glyphname = x;
layers = (
{
layerId = "7e2a03ba-2254-48dc-b40c-8c8f8912cf0a";
name = Fore;
shapes = (
{
closed = 1;
nodes = (
(343,293,o),
(424,381,q),
(424,383,o),
(431,389.5,q),
(438,396,o),
(465,404.5,q),
(492,413,o),
(532,413,q),
(572,413,o),
(572,399,q),
(572,391,o),
(529,365,q),
(486,339,o),
(434,309.5,q),
(382,280,o),
(339,239.5,q),
(296,199,o),
(296,166,q),
(296,112,o),
(302,66,q),
(308,20,o),
(314,1,q),
(320,-18,l),
(320,-32,o),
(304,-32,q),
(213,-32,o),
(213,5,q),
(213,18,l),
(213,138,o),
(193.5,138,q),
(174,138,o),
(137.5,100,q),
(101,62,o),
(75,24,q),
(49,-13,l),
(28,-39,o),
(-27,-39,q),
(-45,-39,o),
(-55,-35.5,q),
(-65,-32,o),
(-66,-28,q),
(-66,-25,l),
(-66,-10,o),
(24,70,q),
(114,150,o),
(169,192,q),
(198,214,o),
(198,246.5,q),
(198,279,o),
(194,304,q),
(190,329,o),
(184.5,337.5,q),
(179,346,o),
(175,352,q),
(171,358,o),
(171,362,q),
(171,377,o),
(202.5,389,q),
(234,401,o),
(253.5,401,q),
(273,401,o),
(280,398,q),
(292,394,o),
(292,343.5,q),
(292,293,o),
(309,293,q)
);
}
);
width = 406;
}
);
unicode = 120;
},
{
category = Letter;
glyphname = y;
layers = (
{
layerId = "7e2a03ba-2254-48dc-b40c-8c8f8912cf0a";
name = Fore;
shapes = (
{
closed = 1;
nodes = (
(-249,-627,o),
(-249,-557,q),
(-249,-487,o),
(-208,-401.5,q),
(-167,-316,o),
(-109.5,-244.5,q),
(-52,-173,o),
(13,-123,q),
(78,-73,o),
(122,-73,q),
(137,-73,o),
(137,-80,q),
(137,-87,o),
(125,-93,q),
(87,-113,o),
(28.5,-178.5,q),
(-30,-244,o),
(-77.5,-328.5,q),
(-125,-413,o),
(-125,-471,q),
(-125,-496,o),
(-107,-496,q),
(-72,-496,o),
(-1,-398,q),
(114,-241,o),
(234,2,q),
(270,74,o),
(270,88,q),
(270,102,o),
(262,102,q),
(252,102,o),
(242,92,q),
(130,-4,o),
(68,-4,q),
(23,-4,o),
(23,44.5,q),
(23,93,o),
(76.5,194.5,q),
(130,296,o),
(185,351,q),
(197,363,o),
(218,370.5,q),
(239,378,o),
(261.5,378,q),
(284,378,o),
(284,368,q),
(284,364,o),
(252,322,q),
(155,193,o),
(155,138,q),
(155,114,o),
(176,114,q),
(213,114,o),
(290.5,186,q),
(368,258,o),
(426,355,q),
(444,391,o),
(506,391,q),
(536,391,o),
(536,379,q),
(536,376,o),
(533,371,q),
(436,211,o),
(356,62.5,q),
(276,-86,o),
(227.5,-166.5,q),
(179,-247,o),
(119.5,-334,q),
(60,-421,o),
(5.5,-483.5,q),
(-49,-546,o),
(-105.5,-586.5,q),
(-162,-627,o),
(-207,-627,q)
);
}
);
width = 429;
}
);
unicode = 121;
},
{
category = Letter;
glyphname = z;
layers = (
{
layerId = "7e2a03ba-2254-48dc-b40c-8c8f8912cf0a";
name = Fore;
shapes = (
{
closed = 1;
nodes = (
(272,-86,o),
(218.5,-188,q),
(165,-290,o),
(90.5,-387,q),
(16,-484,o),
(-71,-555.5,q),
(-158,-627,o),
(-218,-627,q),
(-260,-627,o),
(-260,-557,q),
(-260,-487,o),
(-219,-401.5,q),
(-178,-316,o),
(-120.5,-244.5,q),
(-63,-173,o),
(2,-123,q),
(67,-73,o),
(111,-73,q),
(126,-73,o),
(126,-80,q),
(126,-87,o),
(114,-93,q),
(76,-113,o),
(17.5,-178.5,q),
(-41,-244,o),
(-88.5,-328.5,q),
(-136,-413,o),
(-136,-471,q),
(-136,-496,o),
(-118,-496,q),
(-81,-496,o),
(-9.5,-419,q),
(62,-342,o),
(120,-237.5,q),
(178,-133,o),
(178,-67,q),
(178,-21,o),
(154.5,5.5,q),
(131,32,o),
(86,32,q),
(53,32,o),
(31,26.5,q),
(9,21,o),
(4.5,21,q),
(0,21,o),
(0,29.5,q),
(0,38,o),
(0.5,41.5,q),
(1,45,o),
(4.5,54,q),
(8,63,o),
(12.5,71,q),
(17,79,o),
(26.5,87.5,q),
(36,96,o),
(48,100,q),
(60,104,o),
(79,111,q),
(98,118,o),
(146.5,139.5,q),
(195,161,o),
(232.5,182.5,q),
(270,204,o),
(300.5,233.5,q),
(331,263,o),
(331,288,q),
(331,323,o),
(253,323,q),
(219,323,o),
(188,314,q),
(156,306,l),
(149,306,o),
(149,316,q),
(149,341,o),
(204,366,q),
(259,391,o),
(332,391,q),
(359,391,o),
(393,382,q),
(458,366,o),
(458,325,q),
(458,291,o),
(416,251,q),
(374,211,o),
(323,182,q),
(188,107,o),
(188,91,q),
(188,82,o),
(201,73.5,q),
(214,65,o),
(230,56.5,q),
(246,48,o),
(259,26,q),
(272,4,o),
(272,-29,q)
);
}
);
width = 364;
}
);
unicode = 122;
},
{
category = Letter;
glyphname = braceleft;
layers = (
{
layerId = "7e2a03ba-2254-48dc-b40c-8c8f8912cf0a";
name = Fore;
shapes = (
{
closed = 1;
nodes = (
(83,-76,o),
(66,-37.5,q),
(49,1,o),
(49,38.5,q),
(49,76,o),
(111,173.5,q),
(173,271,o),
(173,288,q),
(173,321,o),
(147,351,q),
(142,358,o),
(142,362,q),
(142,374,o),
(164,378,q),
(185,378,o),
(211,395,q),
(261,428,o),
(288,476,q),
(367,623,o),
(378,641,q),
(389,659,o),
(406.5,678.5,q),
(424,698,o),
(444.5,713,q),
(465,728,o),
(500,740.5,q),
(535,753,o),
(575,753,q),
(585,750,o),
(585,743.5,q),
(585,737,o),
(566,727.5,q),
(547,718,o),
(536.5,711,q),
(526,704,o),
(506,684,q),
(469,644,o),
(417.5,546,q),
(366,448,o),
(336,417,q),
(306,386,o),
(235,362,q),
(215,355,o),
(215,344,q),
(215,339,o),
(220,327,q),
(245,289,o),
(245,258,q),
(245,244,o),
(210.5,186.5,q),
(176,129,o),
(141,64,q),
(106,-1,o),
(106,-32,q),
(106,-41,l),
(106,-76,o),
(98,-76,q)
);
}
);
width = 268;
}
);
unicode = 123;
},
{
category = Letter;
glyphname = bar;
layers = (
{
layerId = "7e2a03ba-2254-48dc-b40c-8c8f8912cf0a";
name = Fore;
shapes = (
{
closed = 1;
nodes = (
(112,-59,o),
(70,-59,q),
(28,-59,o),
(28,-44,q),
(28,-40,o),
(31,-34,q),
(53,-2,l),
(418,632,o),
(456,703,q),
(470,729,o),
(521,729,q),
(523,729,l),
(553,729,o),
(553,714,q),
(553,710,o),
(550,704,q),
(529,671,l),
(160,35,o),
(125,-34,q)
);
}
);
width = 322;
}
);
unicode = 124;
},
{
category = Letter;
glyphname = braceright;
layers = (
{
layerId = "7e2a03ba-2254-48dc-b40c-8c8f8912cf0a";
name = Fore;
shapes = (
{
closed = 1;
nodes = (
(440,753,o),
(457,714.5,q),
(474,676,o),
(474,638.5,q),
(474,601,o),
(411.5,503.5,q),
(349,406,o),
(349,392,q),
(349,378,o),
(351,368.5,q),
(353,359,o),
(356.5,352,q),
(360,345,o),
(363,340,q),
(368,333,o),
(375,326,q),
(380,319,o),
(380,315,q),
(380,305,o),
(359,299,q),
(318,299,o),
(268,246,q),
(249,226,o),
(235,201,q),
(149,45,o),
(141,31.5,q),
(133,18,o),
(116,-1.5,q),
(99,-21,o),
(78.5,-36,q),
(58,-51,o),
(22.5,-63.5,q),
(-13,-76,o),
(-53,-76,q),
(-63,-73,o),
(-63,-66.5,q),
(-63,-60,o),
(-44,-50.5,q),
(-25,-41,o),
(-14.5,-33.5,q),
(-4,-26,o),
(16,-6,q),
(56,35,o),
(117,156,q),
(155,229,o),
(185.5,260,q),
(216,291,o),
(287,316,q),
(307,323,o),
(307,334,q),
(307,340,o),
(292.5,369,q),
(278,398,o),
(278,416,q),
(278,434,o),
(347.5,551,q),
(417,668,o),
(417,709,q),
(417,718,l),
(417,753,o),
(425,753,q)
);
}
);
width = 309;
}
);
unicode = 125;
},
{
category = Letter;
glyphname = asciitilde;
layers = (
{
layerId = "7e2a03ba-2254-48dc-b40c-8c8f8912cf0a";
name = Fore;
shapes = (
{
closed = 1;
nodes = (
(185,135,o),
(125,135,q),
(65,135,o),
(65,156,q),
(65,169,o),
(87.5,193,q),
(110,217,o),
(123,217,q),
(153,201,o),
(196,201,q),
(239,201,o),
(276,207,q),
(278,207,l),
(283,207,o),
(283,199,q),
(283,191,o),
(270,176.5,q),
(257,162,o),
(221,148.5,q)
);
}
);
width = 283;
}
);
unicode = 126;
},
{
category = Letter;
glyphname = exclamdown;
layers = (
{
layerId = "7e2a03ba-2254-48dc-b40c-8c8f8912cf0a";
name = Fore;
shapes = (
{
closed = 1;
nodes = (
(243,410,o),
(272.5,430,q),
(302,450,o),
(326.5,450,q),
(351,450,o),
(364,440.5,q),
(377,431,o),
(377,415,q),
(377,384,o),
(348,364.5,q),
(319,345,o),
(294,345,q),
(269,345,o),
(256,354.5,q),
(243,364,o),
(243,380,q)
);
},
{
closed = 1;
nodes = (
(-117,-201,o),
(-117,-188,q),
(-117,-175,o),
(-54,-85.5,q),
(9,4,o),
(89,117,q),
(169,230,o),
(197,280,q),
(211,305,o),
(246.5,305,q),
(282,305,o),
(282,297,q),
(276,282,l),
(124,46,o),
(26,-170,q),
(-1,-201,o),
(-93,-201,q)
);
}
);
width = 299;
}
);
unicode = 161;
},
{
category = Letter;
glyphname = cent;
layers = (
{
layerId = "7e2a03ba-2254-48dc-b40c-8c8f8912cf0a";
name = Fore;
shapes = (
{
closed = 1;
nodes = (
(258,70,o),
(287,88,q),
(300,96,o),
(305,96,q),
(313,96,o),
(315,85,q),
(315,59,o),
(268,24.5,q),
(221,-10,o),
(151,-10,q),
(150,-10,l),
(132,-41,l),
(120,-62,o),
(95.5,-62,q),
(71,-62,o),
(71,-55,q),
(76,-45,l),
(78,-42,o),
(83,-34,q),
(88,-26,o),
(93,-18,q),
(98,-10,o),
(102,-2,q),
(43,21,o),
(43,101,q),
(43,140,o),
(62,188,q),
(81,236,o),
(115.5,282,q),
(150,328,o),
(207.5,361.5,q),
(265,395,o),
(332,400,q),
(340,412,l),
(346,421,o),
(348,426,q),
(361,448,o),
(385,448,q),
(409,448,o),
(409,441,q),
(404,431,l),
(402,428,o),
(384,399,q),
(446,392,o),
(446,374,q),
(446,371,o),
(436,360,q),
(397,320,o),
(377,278,q),
(375,272,o),
(365.5,272,q),
(356,272,o),
(351.5,278,q),
(347,284,o),
(343,296,q),
(339,308,o),
(334,314,q),
(196,71,l),
(202,70,o),
(215,70,q)
);
},
{
closed = 1;
nodes = (
(235,331,o),
(189,263.5,q),
(143,196,o),
(143,141,q),
(143,106,o),
(156,90,q),
(293,331,l),
(292,331,l)
);
}
);
width = 355;
}
);
unicode = 162;
},
{
category = Letter;
glyphname = sterling;
layers = (
{
layerId = "7e2a03ba-2254-48dc-b40c-8c8f8912cf0a";
name = Fore;
shapes = (
{
closed = 1;
nodes = (
(189,3,l),
(177,3,o),
(169,-5,q),
(136,-34,o),
(81,-34,q),
(52,-34,o),
(52,-21,q),
(52,-18,l),
(52,-5,o),
(106,86,q),
(194,235,o),
(248,329,q),
(173,329,o),
(146,327,q),
(141,327,l),
(129,327,o),
(129,334,q),
(129,346,o),
(144.5,365.5,q),
(160,385,o),
(185,385,q),
(250,385,o),
(280,384,q),
(350,509,o),
(372.5,560,q),
(395,611,o),
(395,649,q),
(395,657,l),
(395,682,o),
(497,682,q),
(549,682,o),
(549,663,q),
(549,655,o),
(541,647,q),
(496,582,o),
(388,382,q),
(427,382,l),
(470,382,o),
(522,385,q),
(527,385,l),
(539,385,o),
(539,377,q),
(539,366,o),
(523,346.5,q),
(507,327,o),
(482,327,q),
(370,328,l),
(358,328,l),
(350,311,l),
(344,300,o),
(342.5,298,q),
(341,296,o),
(321.5,261,q),
(302,226,o),
(290,203,q),
(278,180,o),
(266,146.5,q),
(254,113,o),
(254,92,q),
(254,56,o),
(323,56,q),
(360,56,o),
(408,72,q),
(501,103,o),
(560,197,q),
(561,206,o),
(580,206,q),
(599,206,o),
(599,186.5,q),
(599,167,o),
(568.5,108,q),
(538,49,o),
(513,19,q),
(501,4,o),
(464,2,q),
(400,0,o),
(328,0,q)
);
}
);
width = 558;
}
);
unicode = 163;
},
{
category = Letter;
glyphname = yen;
layers = (
{
layerId = "7e2a03ba-2254-48dc-b40c-8c8f8912cf0a";
name = Fore;
shapes = (
{
closed = 1;
nodes = (
(163,347,l),
(153,347,o),
(153,355,q),
(153,366,o),
(168.5,385.5,q),
(184,405,o),
(209,405,q),
(279,405,l),
(283,460,o),
(283,521,q),
(282,569,l),
(282,625,o),
(271,652,q),
(265,658,o),
(265,668,q),
(265,687,o),
(338,687,q),
(411,687,o),
(411,643,q),
(388,439,l),
(388,410,o),
(407,410,q),
(418,410,o),
(432,422,q),
(491,473,o),
(556,540,q),
(621,607,o),
(633.5,623,q),
(646,639,o),
(649,643.5,q),
(652,648,o),
(653.5,649.5,q),
(655,651,o),
(658,654.5,q),
(661,658,o),
(663.5,659.5,q),
(666,661,o),
(670,663.5,q),
(674,666,o),
(684,670,q),
(709,681,o),
(758,682,q),
(774,683,l),
(827,683,o),
(827,667,q),
(827,657,o),
(811,648,q),
(768,623,o),
(675,550.5,q),
(582,478,o),
(497,403,q),
(544,403,o),
(567,405,q),
(572,405,l),
(584,405,o),
(584,398,q),
(584,386,o),
(568.5,366.5,q),
(553,347,o),
(528,347,q),
(436,347,l),
(399,312,o),
(380,285,q),
(415,285,l),
(506,287,l),
(518,287,o),
(518,280,q),
(518,268,o),
(502,248.5,q),
(486,229,o),
(461,229,q),
(347,230,l),
(335,209,o),
(303,148.5,q),
(271,88,o),
(252,57,q),
(233,26,o),
(219,17,q),
(197,-2,o),
(166,-2,q),
(114,-2,o),
(114,17,q),
(114,24,o),
(165.5,111.5,q),
(217,199,o),
(235,232,q),
(215,232,l),
(97,229,l),
(87,229,o),
(87,237,q),
(87,248,o),
(102.5,267.5,q),
(118,287,o),
(143,287,q),
(260,286,l),
(268,305,o),
(274,350,q)
);
}
);
width = 539;
}
);
unicode = 165;
},
{
category = Letter;
glyphname = brokenbar;
layers = (
{
layerId = "7e2a03ba-2254-48dc-b40c-8c8f8912cf0a";
name = Fore;
shapes = (
{
closed = 1;
nodes = (
(114,-55,o),
(72,-55,q),
(30,-55,o),
(30,-40,q),
(30,-36,o),
(33,-30,q),
(55,2,l),
(173,203,o),
(211,274,q),
(225,300,o),
(276,300,q),
(278,300,l),
(308,300,o),
(308,285,q),
(308,281,o),
(305,275,q),
(284,242,l),
(162,39,o),
(127,-30,q)
);
},
{
closed = 1;
nodes = (
(359,374,o),
(317,374,q),
(275,374,o),
(275,389,q),
(275,393,o),
(278,399,q),
(300,431,l),
(418,632,o),
(456,703,q),
(470,729,o),
(521,729,q),
(523,729,l),
(553,729,o),
(553,714,q),
(553,710,o),
(550,704,q),
(529,671,l),
(407,468,o),
(372,399,q)
);
}
);
width = 322;
}
);
unicode = 166;
},
{
category = Letter;
glyphname = section;
layers = (
{
layerId = "7e2a03ba-2254-48dc-b40c-8c8f8912cf0a";
name = Fore;
shapes = (
{
closed = 1;
nodes = (
(74,-4,o),
(53.5,5,q),
(33,14,o),
(33,25.5,q),
(33,37,o),
(51,37,q),
(130,37,o),
(192.5,72,q),
(255,107,o),
(255,151,q),
(255,173,o),
(235,195,q),
(215,217,o),
(191.5,231.5,q),
(168,246,o),
(148,267,q),
(128,288,o),
(128,313,q),
(128,338,o),
(145.5,364,q),
(163,390,o),
(185.5,406,q),
(208,422,o),
(244,438,q),
(293,458,o),
(351,474,q),
(363,477,l),
(381,483,o),
(381,491,q),
(381,499,o),
(369,508,q),
(333,533,o),
(333,561,q),
(333,610,o),
(415.5,645.5,q),
(498,681,o),
(587,681,q),
(676,681,o),
(676,650,q),
(676,639,o),
(662,639,q),
(652,639,l),
(574,639,o),
(519.5,612,q),
(465,585,o),
(465,556,q),
(465,516,o),
(534,478,q),
(559,463,o),
(580.5,437.5,q),
(602,412,o),
(602,375,q),
(602,338,o),
(563,306,q),
(524,274,o),
(476.5,259,q),
(429,244,o),
(390,228.5,q),
(351,213,o),
(351,202,q),
(351,191,o),
(367.5,172,q),
(384,153,o),
(384,135,q),
(384,86,o),
(293,41,q),
(202,-4,o),
(107,-4,q)
);
},
{
closed = 1;
nodes = (
(481,402,o),
(458,418.5,q),
(435,435,o),
(411,435,q),
(365,435,o),
(306,400.5,q),
(247,366,o),
(247,327,q),
(247,311,o),
(266,290,q),
(285,269,o),
(315,269,q),
(376,269,o),
(428.5,303,q),
(481,337,o),
(481,376,q)
);
}
);
width = 515;
}
);
unicode = 167;
},
{
category = Letter;
glyphname = dieresis;
layers = (
{
layerId = "7e2a03ba-2254-48dc-b40c-8c8f8912cf0a";
name = Fore;
shapes = (
{
closed = 1;
nodes = (
(375,528,o),
(375,496,q),
(375,480,o),
(354,462,q),
(333,444,o),
(311,444,q),
(268,444,o),
(268,473,q),
(268,493,o),
(289.5,510.5,q),
(311,528,o),
(338,528,q)
);
},
{
closed = 1;
nodes = (
(560,528,o),
(560,496,q),
(560,480,o),
(539.5,462,q),
(519,444,o),
(496,444,q),
(453,444,o),
(453,473,q),
(453,493,o),
(474.5,510.5,q),
(496,528,o),
(523,528,q)
);
}
);
width = 400;
}
);
unicode = 168;
},
{
category = Letter;
glyphname = copyright;
layers = (
{
layerId = "7e2a03ba-2254-48dc-b40c-8c8f8912cf0a";
name = Fore;
shapes = (
{
closed = 1;
nodes = (
(81,-20,o),
(53,6.5,q),
(25,33,o),
(25,75,q),
(25,149,o),
(94,218.5,q),
(163,288,o),
(259,288,q),
(315,288,o),
(342.5,262.5,q),
(370,237,o),
(370,196,q),
(370,122,o),
(300.5,51,q),
(231,-20,o),
(137,-20,q)
);
},
{
closed = 1;
nodes = (
(179,261,o),
(125,201.5,q),
(71,142,o),
(71,82,q),
(71,50,o),
(91,30.5,q),
(111,11,o),
(151,11,q),
(222,11,o),
(273.5,69,q),
(325,127,o),
(325,188,q),
(325,221,o),
(306,241,q),
(287,261,o),
(249,261,q)
);
},
{
closed = 1;
nodes = (
(244,224,l),
(248,224,o),
(256,229,q),
(264,234,o),
(279.5,233.5,q),
(295,233,o),
(295,224,q),
(295,223,o),
(288,214,q),
(260,183,o),
(247,153,q),
(246,150,o),
(242,150,q),
(227,150,o),
(227,169,q),
(230,186,l),
(230,195,o),
(221,195,q),
(195,195,o),
(175,165.5,q),
(155,136,o),
(155,111,q),
(155,79,o),
(186,79,q),
(206,79,o),
(214.5,84.5,q),
(223,90,o),
(227,90,q),
(231,90,o),
(231,82,q),
(231,74,o),
(210,58.5,q),
(189,43,o),
(159.5,43,q),
(130,43,o),
(119,57.5,q),
(108,72,o),
(108,91,q),
(108,129,o),
(146,177,q),
(184,225,o),
(236,225,q)
);
}
);
width = 340;
}
);
unicode = 169;
},
{
category = Letter;
glyphname = ordfeminine;
layers = (
{
layerId = "7e2a03ba-2254-48dc-b40c-8c8f8912cf0a";
name = Fore;
shapes = (
{
closed = 1;
nodes = (
(285,571,l),
(278,571,o),
(278,579,q),
(278,587,o),
(289,598,q),
(300,609,o),
(326,618.5,q),
(352,628,o),
(374.5,628,q),
(397,628,o),
(408.5,626.5,q),
(420,625,o),
(437,620,q),
(475,607,o),
(475,566,q),
(475,527,o),
(449.5,479,q),
(424,431,o),
(412,411,q),
(388,371,o),
(356,323,q),
(350,316,o),
(342,316,q),
(334,316,o),
(324.5,327,q),
(315,338,o),
(309,348.5,q),
(303,359,o),
(302,359,q),
(299,359,o),
(270,342,q),
(241,325,o),
(215.5,325,q),
(190,325,o),
(178,338,q),
(160,356,o),
(160,378,q),
(160,400,o),
(170,423.5,q),
(180,447,o),
(202.5,474,q),
(225,501,o),
(272,519.5,q),
(319,538,o),
(382,540,q),
(384,540,l),
(395,540,o),
(395,553,q),
(395,582,o),
(340,582,q),
(318,582,o),
(301,575,q)
);
},
{
closed = 1;
nodes = (
(330,300,l),
(337,300,o),
(337,291,q),
(337,282,o),
(326,263.5,q),
(315,245,o),
(299,245,q),
(256,248,o),
(193,248,q),
(79,244,l),
(72,244,o),
(72,252.5,q),
(72,261,o),
(83,280.5,q),
(94,300,o),
(110,300,q),
(264,298,l)
);
},
{
closed = 1;
nodes = (
(374,490,o),
(364,493.5,q),
(354,497,o),
(346,497,q),
(295,497,o),
(267,465.5,q),
(239,434,o),
(239,410,q),
(239,386,o),
(261,386,q),
(297,386,o),
(335.5,425,q),
(374,464,o),
(374,484,q)
);
}
);
width = 326;
}
);
unicode = 170;
},
{
category = Letter;
glyphname = guillemotleft;
layers = (
{
layerId = "7e2a03ba-2254-48dc-b40c-8c8f8912cf0a";
name = Fore;
shapes = (
{
closed = 1;
nodes = (
(474,-45,o),
(451,-47,q),
(403,-47,o),
(384,-28,q),
(348,8,o),
(317,71.5,q),
(286,135,o),
(286,166,q),
(286,190,o),
(369.5,247.5,q),
(453,305,o),
(544,352.5,q),
(635,400,o),
(658,400,q),
(670,401,o),
(685,401,q),
(734,401,o),
(734,387,q),
(734,381,o),
(725,376,q),
(704,365,l),
(389,195,o),
(389,157,q),
(389,136,o),
(409.5,90.5,q),
(430,45,o),
(450,10,q),
(471,-24,l),
(474,-30,o),
(474,-34,q)
);
},
{
closed = 1;
nodes = (
(265,-50,o),
(241,-52,q),
(192,-52,o),
(174,-34,q),
(141,-2,o),
(104.5,78.5,q),
(68,159,o),
(68,184.5,q),
(68,210,o),
(139.5,263,q),
(211,316,o),
(291.5,358.5,q),
(372,401,o),
(398,401,q),
(411,402,o),
(425,402,q),
(472,402,o),
(472,388,q),
(472,382,o),
(463,377,q),
(170,220,o),
(170,177,q),
(170,150,o),
(193,98.5,q),
(216,47,o),
(239,9,q),
(262,-29,l),
(265,-35,o),
(265,-38,q)
);
}
);
width = 592;
}
);
unicode = 171;
},
{
category = Letter;
glyphname = logicalnot;
layers = (
{
layerId = "7e2a03ba-2254-48dc-b40c-8c8f8912cf0a";
name = Fore;
shapes = (
{
closed = 1;
nodes = (
(642,383,l),
(620,332,l),
(599,290,o),
(536,185,q),
(516,151,o),
(466,151,q),
(438,151,o),
(438,162,q),
(445,177,l),
(479,231,o),
(534,325,q),
(459,328,o),
(367,328,q),
(147,323,l),
(134,323,o),
(134,333,q),
(134,346,o),
(155.5,372,q),
(177,398,o),
(207,398,q),
(501,396,l),
(629,398,l),
(643,398,o),
(643,389,q)
);
}
);
width = 538;
}
);
unicode = 172;
},
{
category = Letter;
glyphname = registered;
layers = (
{
layerId = "7e2a03ba-2254-48dc-b40c-8c8f8912cf0a";
name = Fore;
shapes = (
{
closed = 1;
nodes = (
(143,159,o),
(115,185.5,q),
(87,212,o),
(87,254,q),
(87,328,o),
(156,397.5,q),
(225,467,o),
(321,467,q),
(377,467,o),
(404.5,441.5,q),
(432,416,o),
(432,375,q),
(432,301,o),
(362.5,230,q),
(293,159,o),
(199,159,q)
);
},
{
closed = 1;
nodes = (
(241,440,o),
(187,380.5,q),
(133,321,o),
(133,261,q),
(133,229,o),
(153,209.5,q),
(173,190,o),
(213,190,q),
(284,190,o),
(335.5,248,q),
(387,306,o),
(387,367,q),
(387,400,o),
(368,420,q),
(349,440,o),
(311,440,q)
);
},
{
closed = 1;
nodes = (
(161,233,o),
(161,236,q),
(161,237,l),
(161,239,o),
(178,267,q),
(233,361,o),
(239.5,376.5,q),
(246,392,o),
(246,400,q),
(246,402,l),
(246,409,o),
(278,409,q),
(310,409,o),
(323,407.5,q),
(336,406,o),
(347,398,q),
(358,390,o),
(358,371,q),
(358,352,o),
(330,338,q),
(323,334,o),
(313,332,q),
(292,328,o),
(292,325,q),
(292,322,o),
(301,316,q),
(310,310,o),
(310,305,q),
(310,300,o),
(302,279,q),
(294,258,o),
(294,246,q),
(294,239,l),
(294,235,o),
(274.5,235,q),
(255,235,o),
(255,243,q),
(255,251,o),
(265,273.5,q),
(275,296,o),
(275,302,q),
(275,314,o),
(263,314,q),
(260,314,l),
(257,314,o),
(257,318,q),
(257,322,o),
(261,329,q),
(265,336,o),
(270,336,q),
(292,336,o),
(306.5,347,q),
(321,358,o),
(321,373,q),
(321,391,o),
(297,391,q),
(286,391,o),
(276.5,379,q),
(267,367,o),
(238,313,q),
(209,259,o),
(205,245,q),
(201,233,o),
(168,233,q)
);
}
);
width = 340;
}
);
unicode = 174;
},
{
category = Letter;
glyphname = macron;
layers = (
{
layerId = "7e2a03ba-2254-48dc-b40c-8c8f8912cf0a";
name = Fore;
shapes = (
{
closed = 1;
nodes = (
(522,498,l),
(530,498,o),
(530,488.5,q),
(530,479,o),
(518.5,458,q),
(507,437,o),
(491,437,q),
(447,440,o),
(384,440,q),
(268,436,l),
(261,436,o),
(261,445.5,q),
(261,455,o),
(272,476.5,q),
(283,498,o),
(299,498,q),
(455,496,l)
);
}
);
width = 400;
}
);
unicode = 175;
},
{
category = Letter;
glyphname = degree;
layers = (
{
layerId = "7e2a03ba-2254-48dc-b40c-8c8f8912cf0a";
name = Fore;
shapes = (
{
closed = 1;
nodes = (
(243,449,o),
(265,449,q),
(287,449,o),
(304.5,468.5,q),
(322,488,o),
(322,506,q),
(322,527,o),
(300,527,q),
(278,527,o),
(260.5,507.5,q),
(243,488,o),
(243,470,q)
);
},
{
closed = 1;
nodes = (
(194,417,o),
(194,463,q),
(194,498,o),
(228.5,530.5,q),
(263,563,o),
(311,563,q),
(372,563,o),
(372,520,q),
(372,486,o),
(335.5,451.5,q),
(299,417,o),
(255,417,q)
);
}
);
width = 252;
}
);
unicode = 176;
},
{
category = Letter;
glyphname = plusminus;
layers = (
{
layerId = "7e2a03ba-2254-48dc-b40c-8c8f8912cf0a";
name = Fore;
shapes = (
{
closed = 1;
nodes = (
(553,222,l),
(567,222,o),
(567,213,q),
(567,198,o),
(546,173,q),
(525,148,o),
(494,148,q),
(419,152,o),
(291,152,q),
(71,147,l),
(58,147,o),
(58,157,q),
(58,170,o),
(79.5,196,q),
(101,222,o),
(131,222,q),
(425,220,l)
);
},
{
closed = 1;
nodes = (
(553,446,l),
(604,446,o),
(631,448,q),
(658,450,o),
(659,450,q),
(673,450,o),
(673,440,q),
(673,427,o),
(651.5,401,q),
(630,375,o),
(600,375,q),
(439,376,l),
(409,320,o),
(389.5,287,q),
(370,254,o),
(320,254,q),
(292,254,o),
(292,265,q),
(299,280,l),
(328,325,o),
(358,377,q),
(304,377,l),
(178,374,l),
(164,374,o),
(164,384,q),
(164,397,o),
(185.5,423,q),
(207,449,o),
(237,449,q),
(398,448,l),
(434,515,o),
(447,537,q),
(467,571,o),
(516,571,q),
(545,571,o),
(545,560,q),
(538,545,l),
(508,499,o),
(480,447,q)
);
}
);
width = 566;
}
);
unicode = 177;
},
{
category = Letter;
glyphname = twosuperior;
layers = (
{
layerId = "7e2a03ba-2254-48dc-b40c-8c8f8912cf0a";
name = Fore;
shapes = (
{
closed = 1;
nodes = (
(110,210,l),
(85,210,o),
(85,219,q),
(85,221,o),
(86,223,q),
(101,275,o),
(158,330,q),
(215,385,o),
(274.5,422.5,q),
(334,460,o),
(382,498.5,q),
(430,537,o),
(430,561,q),
(430,585,o),
(399.5,585,q),
(369,585,o),
(338,569.5,q),
(307,554,o),
(292,539,q),
(277,524,l),
(262,513,o),
(249.5,513,q),
(237,513,o),
(237,519,q),
(238,529,o),
(274,581.5,q),
(310,634,o),
(326,635,q),
(357,635,o),
(376,621,q),
(400,630,o),
(427,630,q),
(454,630,o),
(458.5,629.5,q),
(463,629,o),
(474.5,625.5,q),
(486,622,o),
(495,617,q),
(519,604,o),
(519,579,q),
(519,544,o),
(471,499.5,q),
(423,455,o),
(365.5,419.5,q),
(308,384,o),
(260,342,q),
(212,300,o),
(212,269,q),
(212,251,o),
(239.5,251,q),
(267,251,o),
(289.5,260,q),
(312,269,o),
(329,282,q),
(360,304,o),
(380,329,q),
(388,338,l),
(398,348,o),
(410.5,348,q),
(423,348,o),
(423,342,q),
(421,326,o),
(385,268,q),
(349,210,o),
(332,210,q),
(228,213,l)
);
}
);
width = 367;
}
);
unicode = 178;
},
{
category = Letter;
glyphname = threesuperior;
layers = (
{
layerId = "7e2a03ba-2254-48dc-b40c-8c8f8912cf0a";
name = Fore;
shapes = (
{
closed = 1;
nodes = (
(351,429,o),
(263,429,q),
(256,429,o),
(256,437.5,q),
(256,446,o),
(266.5,456.5,q),
(277,467,o),
(287,467,q),
(360,467,o),
(400.5,496,q),
(441,525,o),
(444,555,q),
(444,588,o),
(408,588,q),
(380,588,o),
(354,575.5,q),
(328,563,o),
(316,550,q),
(304,538,l),
(297,528,o),
(283.5,528,q),
(270,528,o),
(270,534,q),
(270,535,l),
(271,544,o),
(299.5,588,q),
(328,632,o),
(342,633,q),
(374,633,o),
(389,620,q),
(399,630,o),
(450,630,q),
(480,630,o),
(498,609.5,q),
(516,589,o),
(516,561.5,q),
(516,534,o),
(495,509.5,q),
(474,485,o),
(448.5,474.5,q),
(423,464,o),
(401.5,455.5,q),
(380,447,o),
(380,442,q),
(380,439,o),
(390.5,433.5,q),
(401,428,o),
(411.5,413.5,q),
(422,399,o),
(422,373,q),
(422,304,o),
(360,255,q),
(298,206,o),
(228,206,q),
(104,206,o),
(104,233,q),
(104,234,l),
(105,252,o),
(140,310.5,q),
(175,369,o),
(200,369,q),
(212,369,o),
(212,364,q),
(212,363,l),
(189,320,o),
(189,280.5,q),
(189,241,o),
(229.5,241,q),
(270,241,o),
(310.5,284.5,q),
(351,328,o),
(351,380,q)
);
}
);
width = 367;
}
);
unicode = 179;
},
{
category = Letter;
glyphname = acute;
layers = (
{
layerId = "7e2a03ba-2254-48dc-b40c-8c8f8912cf0a";
name = Fore;
shapes = (
{
closed = 1;
nodes = (
(495,488,o),
(441.5,463.5,q),
(388,439,o),
(367.5,439,q),
(347,439,o),
(347,447,q),
(347,451,o),
(377,481,q),
(407,511,o),
(414,520,q),
(421,529,o),
(424.5,534,q),
(428,539,o),
(430,541.5,q),
(432,544,o),
(434,546,q),
(439,551,o),
(447.5,551,q),
(456,551,o),
(475.5,535.5,q),
(495,520,o),
(495,504,q)
);
}
);
width = 400;
}
);
unicode = 180;
},
{
category = Letter;
glyphname = mu;
layers = (
{
layerId = "7e2a03ba-2254-48dc-b40c-8c8f8912cf0a";
name = Fore;
shapes = (
{
closed = 1;
nodes = (
(295,97,o),
(290,97,q),
(288,97,l),
(273,90,l),
(208,27,o),
(167,3.5,q),
(126,-20,o),
(82,-20,q),
(65,-20,o),
(53,-12,q),
(-55,-206,o),
(-105,-349,q),
(-110,-361,o),
(-124.5,-361,q),
(-139,-361,o),
(-159,-339,q),
(-179,-317,o),
(-179,-292,q),
(-179,-268,o),
(-157,-224,q),
(-135,-180,o),
(-118,-148.5,q),
(-101,-117,o),
(-87.5,-93,q),
(-74,-69,o),
(-50,-27.5,q),
(-26,14,o),
(-9.5,42,q),
(7,70,o),
(36.5,120.5,q),
(66,171,o),
(85,203,q),
(122,282,o),
(165.5,342.5,q),
(209,403,o),
(243,411,q),
(256,415,o),
(278,415,q),
(300,415,o),
(300,403,q),
(300,399,o),
(264,347.5,q),
(228,296,o),
(192.5,230,q),
(157,164,o),
(157,131,q),
(157,98,o),
(180,98,q),
(223,98,o),
(279,154,q),
(335,210,o),
(426,331,q),
(451,367,o),
(506,367,q),
(536,367,o),
(536,355,q),
(536,352,o),
(533,347,q),
(376,105,o),
(344,0,q),
(340,-12,o),
(334,-12,q),
(331,-12,l),
(291,-12,o),
(291,52,q),
(295,90,l)
);
}
);
width = 444;
}
);
unicode = 181;
},
{
category = Letter;
glyphname = paragraph;
layers = (
{
layerId = "7e2a03ba-2254-48dc-b40c-8c8f8912cf0a";
name = Fore;
shapes = (
{
closed = 1;
nodes = (
(147,-6,o),
(147,3,q),
(154,18,l),
(496,601,l),
(499,607,o),
(499,610,q),
(499,622,o),
(484,622,q),
(453,622,o),
(435.5,604.5,q),
(418,587,o),
(333,441.5,q),
(248,296,o),
(172,160,q),
(96,23,l),
(73,-12,o),
(18,-12,q),
(1,-12,o),
(1,-2,q),
(8,14,l),
(14,23,o),
(29.5,47.5,q),
(45,72,o),
(55,87,q),
(65,102,o),
(81,127.5,q),
(97,153,o),
(108,170.5,q),
(119,188,o),
(132.5,210.5,q),
(146,233,o),
(155,249,q),
(164,265,o),
(172,281,q),
(188,313,o),
(188,323.5,q),
(188,334,o),
(169,341.5,q),
(150,349,o),
(126.5,355.5,q),
(103,362,o),
(84,386,q),
(65,410,o),
(65,440.5,q),
(65,471,o),
(73.5,498.5,q),
(82,526,o),
(106,560,q),
(130,594,o),
(166,621.5,q),
(202,649,o),
(264.5,668,q),
(327,687,o),
(403.5,687,q),
(480,687,o),
(514,677,q),
(537,695,o),
(601,695,q),
(618,695,o),
(618,687,q),
(618,683,o),
(614,676,q),
(522,534,o),
(401,321,q),
(280,108,o),
(244,32,q),
(226,-6,o),
(164,-6,q)
);
}
);
width = 356;
}
);
unicode = 182;
},
{
category = Letter;
glyphname = periodcentered;
layers = (
{
layerId = "7e2a03ba-2254-48dc-b40c-8c8f8912cf0a";
name = Fore;
shapes = (
{
closed = 1;
nodes = (
(122,242,o),
(150,242,q),
(205,242,o),
(205,207,q),
(205,181,o),
(179,159,q),
(153,137,o),
(124,137,q),
(70,137,o),
(70,173,q),
(70,197,o),
(96,219.5,q)
);
}
);
width = 197;
}
);
unicode = 183;
},
{
category = Letter;
glyphname = cedilla;
layers = (
{
layerId = "7e2a03ba-2254-48dc-b40c-8c8f8912cf0a";
name = Fore;
shapes = (
{
closed = 1;
nodes = (
(129,-80,o),
(139.5,-89.5,q),
(150,-99,o),
(150,-113.5,q),
(150,-128,o),
(133.5,-142,q),
(117,-156,o),
(91.5,-156,q),
(66,-156,o),
(54,-146,q),
(42,-136,o),
(42,-128,q),
(42,-120,o),
(48,-120,q),
(50,-120,o),
(57,-124.5,q),
(64,-129,o),
(77.5,-129,q),
(91,-129,o),
(101.5,-122.5,q),
(112,-116,o),
(112,-105.5,q),
(112,-95,o),
(103,-87,q),
(94,-79,o),
(94,-75,q),
(94,-74,l),
(95,-60,o),
(120,-48,q),
(123,-46,o),
(123,-45,q),
(119,-41,l),
(119,-38,o),
(128,-38,q),
(157,-42,l),
(147,-43,o),
(138,-52.5,q),
(129,-62,o),
(129,-71,q)
);
}
);
width = 340;
}
);
unicode = 184;
},
{
category = Letter;
glyphname = onesuperior;
layers = (
{
layerId = "7e2a03ba-2254-48dc-b40c-8c8f8912cf0a";
name = Fore;
shapes = (
{
closed = 1;
nodes = (
(195,223,l),
(195,204,o),
(141.5,204,q),
(88,204,o),
(88,218,q),
(91,225,l),
(110,239,o),
(159,317,q),
(208,395,o),
(264,502,q),
(269,512,o),
(269,522,q),
(269,538,o),
(247,541,q),
(225,544,o),
(225,547,q),
(225,567,o),
(284,594,q),
(343,621,o),
(373,621,q),
(403,621,o),
(403,611,q),
(396,596,l),
(372,566,o),
(288,423,q),
(195,263,o),
(195,230,q)
);
}
);
width = 246;
}
);
unicode = 185;
},
{
category = Letter;
glyphname = ordmasculine;
layers = (
{
layerId = "7e2a03ba-2254-48dc-b40c-8c8f8912cf0a";
name = Fore;
shapes = (
{
closed = 1;
nodes = (
(177,361,o),
(177,422,q),
(177,469,o),
(207,520,q),
(237,571,o),
(292,607.5,q),
(347,644,o),
(408,644,q),
(427,644,o),
(451,632.5,q),
(475,621,o),
(475,595,q),
(475,583,o),
(471,574.5,q),
(467,566,o),
(467,563,q),
(467,554,o),
(480.5,554,q),
(494,554,o),
(501.5,558,q),
(509,562,o),
(511,562,q),
(516,562,o),
(516,546.5,q),
(516,531,o),
(501.5,511,q),
(487,491,o),
(466,482,q),
(463,476,o),
(458,465.5,q),
(453,455,o),
(434,428.5,q),
(415,402,o),
(393,382,q),
(371,362,o),
(335.5,345.5,q),
(300,329,o),
(271.5,329,q),
(243,329,o),
(221,340,q)
);
},
{
closed = 1;
nodes = (
(378,474,o),
(369,474,q),
(342,468,l),
(339,466,o),
(335.5,466,q),
(332,466,o),
(332,473,q),
(332,498,o),
(351,521,q),
(359,529,o),
(375,535.5,q),
(391,542,o),
(399,551,q),
(407,560,o),
(407,580,q),
(407,604,o),
(381,604,q),
(334,604,o),
(292,538,q),
(250,472,o),
(250,420,q),
(250,403,o),
(262,390.5,q),
(274,378,o),
(291,378,q),
(329,378,o),
(353.5,409.5,q),
(378,441,o),
(378,468,q)
);
},
{
closed = 1;
nodes = (
(330,300,l),
(337,300,o),
(337,291,q),
(337,282,o),
(326,263.5,q),
(315,245,o),
(299,245,q),
(256,248,o),
(193,248,q),
(79,244,l),
(72,244,o),
(72,252.5,q),
(72,261,o),
(83,280.5,q),
(94,300,o),
(110,300,q),
(264,298,l)
);
}
);
width = 326;
}
);
unicode = 186;
},
{
category = Letter;
glyphname = guillemotright;
layers = (
{
layerId = "7e2a03ba-2254-48dc-b40c-8c8f8912cf0a";
name = Fore;
shapes = (
{
closed = 1;
nodes = (
(233,393,o),
(256,395,q),
(305,395,o),
(323,377,q),
(359,342,o),
(390,277.5,q),
(421,213,o),
(421,183,q),
(421,159,o),
(337.5,101,q),
(254,43,o),
(163,-4,q),
(72,-51,o),
(49,-51,q),
(35,-52,o),
(19,-52,q),
(-27,-52,o),
(-27,-38,q),
(-27,-33,o),
(-18,-28,q),
(8,-14,l),
(318,155,o),
(318,192,q),
(318,213,o),
(297.5,258,q),
(277,303,o),
(256,338,q),
(236,372,l),
(233,378,o),
(233,382,q)
);
},
{
closed = 1;
nodes = (
(442,399,o),
(465,401,q),
(513,401,o),
(532,382,q),
(566,351,o),
(602.5,271,q),
(639,191,o),
(639,165,q),
(639,139,o),
(567.5,86,q),
(496,33,o),
(415,-9.5,q),
(334,-52,o),
(308,-52,q),
(294,-53,o),
(279,-53,q),
(235,-53,o),
(235,-39,q),
(235,-33,o),
(244,-29,q),
(259,-21,l),
(537,131,o),
(537,172,q),
(537,199,o),
(514,250.5,q),
(491,302,o),
(468,340,q),
(445,377,l),
(442,383,o),
(442,387,q)
);
}
);
width = 651;
}
);
unicode = 187;
},
{
category = Letter;
glyphname = onequarter;
layers = (
{
layerId = "7e2a03ba-2254-48dc-b40c-8c8f8912cf0a";
name = Fore;
shapes = (
{
closed = 1;
nodes = (
(654,134,o),
(643.5,120,q),
(633,106,o),
(617,106,q),
(592,106,l),
(568,63,o),
(558,38,q),
(549,12,l),
(542,-5,o),
(501.5,-5,q),
(461,-5,o),
(461,8,q),
(461,12,o),
(482,42.5,q),
(503,73,o),
(522,104,q),
(508,104,l),
(369,104,o),
(369,130,q),
(369,167,o),
(483.5,268.5,q),
(598,370,o),
(658,401,q),
(681,413,o),
(723,413,q),
(765,413,o),
(765,403,q),
(757,388,l),
(724,345,o),
(615,148,q),
(642,148,o),
(648,150,q),
(654,150,o),
(654,142,q)
);
},
{
closed = 1;
nodes = (
(57,-5,o),
(57,5,q),
(57,8,o),
(63,16,q),
(82,31,o),
(632,599,q),
(653,620,o),
(700,620,q),
(724,620,o),
(724,610,q),
(724,608,o),
(718,600,q),
(678,558,o),
(467.5,345,q),
(257,132,o),
(149,16,q),
(129,-5,o),
(80,-5,q)
);
},
{
closed = 1;
nodes = (
(195,223,l),
(195,204,o),
(141.5,204,q),
(88,204,o),
(88,218,q),
(91,225,l),
(110,239,o),
(159,317,q),
(208,395,o),
(264,502,q),
(269,512,o),
(269,522,q),
(269,538,o),
(247,541,q),
(225,544,o),
(225,547,q),
(225,567,o),
(284,594,q),
(343,621,o),
(373,621,q),
(403,621,o),
(403,611,q),
(396,596,l),
(372,566,o),
(288,423,q),
(195,263,o),
(195,230,q)
);
},
{
closed = 1;
nodes = (
(642,329,o),
(635,329,q),
(605,329,o),
(534.5,262.5,q),
(464,196,o),
(464,169,q),
(464,151,o),
(548,147,q),
(587,212,o),
(640,313,q),
(642,317,o),
(642,321,q)
);
}
);
width = 697;
}
);
unicode = 188;
},
{
category = Letter;
glyphname = onehalf;
layers = (
{
layerId = "7e2a03ba-2254-48dc-b40c-8c8f8912cf0a";
name = Fore;
shapes = (
{
closed = 1;
nodes = (
(398,-3,l),
(373,-3,o),
(373,6,q),
(373,8,o),
(374,10,q),
(389,62,o),
(446,117,q),
(503,172,o),
(562.5,209.5,q),
(622,247,o),
(670,285.5,q),
(718,324,o),
(718,348,q),
(718,372,o),
(687.5,372,q),
(657,372,o),
(626,357,q),
(595,342,o),
(580,326,q),
(565,311,l),
(550,300,o),
(537.5,300,q),
(525,300,o),
(525,306,q),
(526,316,o),
(562,368.5,q),
(598,421,o),
(614,422,q),
(645,422,o),
(664,408,q),
(688,417,o),
(715,417,q),
(742,417,o),
(746.5,416.5,q),
(751,416,o),
(762.5,412.5,q),
(774,409,o),
(783,404,q),
(807,391,o),
(807,366,q),
(807,331,o),
(759,286.5,q),
(711,242,o),
(653.5,206.5,q),
(596,171,o),
(548,129,q),
(500,87,o),
(500,56,q),
(500,38,o),
(527.5,38,q),
(555,38,o),
(577.5,47,q),
(600,56,o),
(617,69,q),
(651,95,o),
(668,116,q),
(676,125,l),
(686,135,o),
(698.5,135,q),
(711,135,o),
(711,129,q),
(709,113,o),
(673,55,q),
(637,-3,o),
(620,-3,q),
(516,0,l)
);
},
{
closed = 1;
nodes = (
(57,-5,o),
(57,5,q),
(57,8,o),
(63,16,q),
(82,31,o),
(632,599,q),
(653,620,o),
(700,620,q),
(724,620,o),
(724,610,q),
(724,608,o),
(718,600,q),
(678,558,o),
(467.5,345,q),
(257,132,o),
(149,16,q),
(129,-5,o),
(80,-5,q)
);
},
{
closed = 1;
nodes = (
(195,223,l),
(195,204,o),
(141.5,204,q),
(88,204,o),
(88,218,q),
(91,225,l),
(110,239,o),
(159,317,q),
(208,395,o),
(264,502,q),
(269,512,o),
(269,522,q),
(269,538,o),
(247,541,q),
(225,544,o),
(225,547,q),
(225,567,o),
(284,594,q),
(343,621,o),
(373,621,q),
(403,621,o),
(403,611,q),
(396,596,l),
(372,566,o),
(288,423,q),
(195,263,o),
(195,230,q)
);
}
);
width = 727;
}
);
unicode = 189;
},
{
category = Letter;
glyphname = threequarters;
layers = (
{
layerId = "7e2a03ba-2254-48dc-b40c-8c8f8912cf0a";
name = Fore;
shapes = (
{
closed = 1;
nodes = (
(778,134,o),
(767.5,120,q),
(757,106,o),
(741,106,q),
(716,106,l),
(692,63,o),
(682,38,q),
(673,12,l),
(666,-5,o),
(625.5,-5,q),
(585,-5,o),
(585,8,q),
(585,12,o),
(606,42.5,q),
(627,73,o),
(646,104,q),
(632,104,l),
(493,104,o),
(493,130,q),
(493,167,o),
(607.5,268.5,q),
(722,370,o),
(782,401,q),
(805,413,o),
(847,413,q),
(889,413,o),
(889,403,q),
(881,388,l),
(848,345,o),
(739,148,q),
(766,148,o),
(772,150,q),
(778,150,o),
(778,142,q)
);
},
{
closed = 1;
nodes = (
(351,429,o),
(263,429,q),
(256,429,o),
(256,437.5,q),
(256,446,o),
(266.5,456.5,q),
(277,467,o),
(287,467,q),
(360,467,o),
(400.5,496,q),
(441,525,o),
(444,555,q),
(444,588,o),
(408,588,q),
(380,588,o),
(354,575.5,q),
(328,563,o),
(316,550,q),
(304,538,l),
(297,528,o),
(283.5,528,q),
(270,528,o),
(270,534,q),
(270,535,l),
(271,544,o),
(299.5,588,q),
(328,632,o),
(342,633,q),
(374,633,o),
(389,620,q),
(399,630,o),
(450,630,q),
(480,630,o),
(498,609.5,q),
(516,589,o),
(516,561.5,q),
(516,534,o),
(495,509.5,q),
(474,485,o),
(448.5,474.5,q),
(423,464,o),
(401.5,455.5,q),
(380,447,o),
(380,442,q),
(380,439,o),
(390.5,433.5,q),
(401,428,o),
(411.5,413.5,q),
(422,399,o),
(422,373,q),
(422,304,o),
(360,255,q),
(298,206,o),
(228,206,q),
(104,206,o),
(104,233,q),
(104,234,l),
(105,252,o),
(140,310.5,q),
(175,369,o),
(200,369,q),
(212,369,o),
(212,364,q),
(212,363,l),
(189,320,o),
(189,280.5,q),
(189,241,o),
(229.5,241,q),
(270,241,o),
(310.5,284.5,q),
(351,328,o),
(351,380,q)
);
},
{
closed = 1;
nodes = (
(181,-5,o),
(181,5,q),
(181,8,o),
(187,16,q),
(206,31,o),
(756,599,q),
(777,620,o),
(824,620,q),
(848,620,o),
(848,610,q),
(848,608,o),
(842,600,q),
(802,558,o),
(591.5,345,q),
(381,132,o),
(273,16,q),
(253,-5,o),
(204,-5,q)
);
},
{
closed = 1;
nodes = (
(766,329,o),
(759,329,q),
(729,329,o),
(658.5,262.5,q),
(588,196,o),
(588,169,q),
(588,151,o),
(672,147,q),
(711,212,o),
(764,313,q),
(766,317,o),
(766,321,q)
);
}
);
width = 821;
}
);
unicode = 190;
},
{
category = Letter;
glyphname = questiondown;
layers = (
{
layerId = "7e2a03ba-2254-48dc-b40c-8c8f8912cf0a";
name = Fore;
shapes = (
{
closed = 1;
nodes = (
(442,452,o),
(466.5,452,q),
(491,452,o),
(504,442.5,q),
(517,433,o),
(517,417,q),
(517,387,o),
(487.5,367,q),
(458,347,o),
(434,347,q),
(384,347,o),
(382,382,q),
(382,412,o),
(412,432,q)
);
},
{
closed = 1;
nodes = (
(-36,-138,o),
(-36,-92,q),
(-36,-46,o),
(-5,-5,q),
(26,36,o),
(73.5,62.5,q),
(121,89,o),
(171.5,113,q),
(222,137,o),
(267.5,174.5,q),
(313,212,o),
(333,261,q),
(342,285,o),
(393,285,q),
(423,285,o),
(424,268,q),
(402,213,o),
(359,170,q),
(316,127,o),
(271.5,100,q),
(227,73,o),
(185,48,q),
(90,-10,o),
(90,-86,q),
(90,-111,o),
(111,-120.5,q),
(132,-130,o),
(160.5,-130,q),
(189,-130,o),
(223,-113.5,q),
(257,-97,o),
(276,-80,q),
(294,-63,l),
(319,-40,o),
(338,-40,q),
(357,-40,o),
(357,-50,q),
(357,-60,o),
(309,-129,q),
(261,-198,o),
(241.5,-198,q),
(222,-198,o),
(206,-188,q),
(190,-178,o),
(185.5,-178,q),
(181,-178,o),
(172,-183,q),
(149,-197,o),
(77,-197,q),
(51,-197,o),
(28,-190.5,q),
(5,-184,o),
(-15.5,-161,q)
);
}
);
width = 439;
}
);
unicode = 191;
},
{
category = Letter;
glyphname = Agrave;
layers = (
{
layerId = "7e2a03ba-2254-48dc-b40c-8c8f8912cf0a";
name = Fore;
shapes = (
{
closed = 1;
nodes = (
(100,252,o),
(98,261,q),
(98,278,o),
(122,300,q),
(146,322,o),
(160.5,328,q),
(175,334,o),
(257,336,q),
(271,352,l),
(575,703,o),
(693,703,q),
(703,704,o),
(716,704,q),
(785,704,o),
(785,671,q),
(785,665,o),
(772,639,q),
(727,549,l),
(695,485,o),
(665,419,q),
(503,62,o),
(477,-49,q),
(477,-57,o),
(456.5,-57,q),
(436,-57,o),
(407,-34.5,q),
(378,-12,o),
(378,5,q),
(378,36,o),
(427,122,q),
(476,208,o),
(476,234,q),
(476,269,o),
(340,269,q),
(320,269,o),
(278,267,q),
(240,217,l),
(170,123,o),
(106,-16,q),
(95,-41,o),
(39,-41,q),
(-17,-41,o),
(-17,-25,q),
(-17,-14,o),
(45.5,71.5,q),
(108,157,o),
(194,261,q),
(179,259,o),
(156,257,q),
(133,255,o),
(120.5,253.5,q),
(108,252,o),
(107,252,q)
);
},
{
closed = 1;
nodes = (
(600,524,o),
(600,541,q),
(600,558,o),
(583,558,q),
(553,558,o),
(484,494.5,q),
(415,431,o),
(334,336,q),
(443,334,l),
(483,334,o),
(522,381,q),
(561,428,o),
(580.5,476,q)
);
},
{
closed = 1;
nodes = (
(704,852,o),
(712.5,852,q),
(721,852,o),
(724.5,849.5,q),
(728,847,o),
(729.5,844.5,q),
(731,842,o),
(734,835,q),
(740,824,l),
(750,806,o),
(765,784,q),
(798,737,o),
(798,733,q),
(798,729,o),
(788,729,q),
(781,729,l),
(757,733,o),
(709.5,764.5,q),
(662,796,o),
(662,812,q),
(662,828,o),
(683,840,q)
);
}
);
width = 579;
}
);
unicode = 192;
},
{
category = Letter;
glyphname = Aacute;
layers = (
{
layerId = "7e2a03ba-2254-48dc-b40c-8c8f8912cf0a";
name = Fore;
shapes = (
{
closed = 1;
nodes = (
(475,-57,o),
(455.5,-57,q),
(436,-57,o),
(407,-34.5,q),
(378,-12,o),
(378,5,q),
(378,36,o),
(427,122,q),
(476,208,o),
(476,234,q),
(476,269,o),
(340,269,q),
(320,269,o),
(278,267,q),
(240,217,l),
(170,123,o),
(106,-16,q),
(95,-41,o),
(39,-41,q),
(-17,-41,o),
(-17,-25,q),
(-17,-14,o),
(45.5,71.5,q),
(108,157,o),
(194,261,q),
(179,259,o),
(156,257,q),
(133,255,o),
(120.5,253.5,q),
(108,252,o),
(107,252,q),
(99,252,o),
(98.5,265,q),
(98,278,o),
(122,300,q),
(146,322,o),
(160.5,328,q),
(175,334,o),
(257,336,q),
(271,352,l),
(575,703,o),
(693,703,q),
(716,704,l),
(785,704,o),
(785,671,q),
(785,665,o),
(772,639,q),
(727,549,l),
(695,485,o),
(665,419,q),
(503,62,o),
(477,-49,q)
);
},
{
closed = 1;
nodes = (
(553,558,o),
(484,494.5,q),
(415,431,o),
(334,336,q),
(392,335,o),
(443,334,q),
(483,334,o),
(522,381,q),
(561,428,o),
(580.5,476,q),
(600,524,o),
(600,541,q),
(600,558,o),
(583,558,q)
);
},
{
closed = 1;
nodes = (
(833,786,o),
(779.5,761.5,q),
(726,737,o),
(705.5,737,q),
(685,737,o),
(685,745,q),
(685,749,o),
(715,779,q),
(745,809,o),
(752,818,q),
(759,827,o),
(762.5,832,q),
(766,837,o),
(768,839.5,q),
(770,842,o),
(772,844,q),
(777,849,o),
(785.5,849,q),
(794,849,o),
(813.5,833.5,q),
(833,818,o),
(833,802,q)
);
}
);
width = 579;
}
);
unicode = 193;
},
{
category = Letter;
glyphname = Acircumflex;
layers = (
{
layerId = "7e2a03ba-2254-48dc-b40c-8c8f8912cf0a";
name = Fore;
shapes = (
{
closed = 1;
nodes = (
(475,-57,o),
(455.5,-57,q),
(436,-57,o),
(407,-34.5,q),
(378,-12,o),
(378,5,q),
(378,36,o),
(427,122,q),
(476,208,o),
(476,234,q),
(476,269,o),
(340,269,q),
(320,269,o),
(278,267,q),
(240,217,l),
(170,123,o),
(106,-16,q),
(95,-41,o),
(39,-41,q),
(-17,-41,o),
(-17,-25,q),
(-17,-14,o),
(45.5,71.5,q),
(108,157,o),
(194,261,q),
(179,259,o),
(156,257,q),
(133,255,o),
(120.5,253.5,q),
(108,252,o),
(107,252,q),
(99,252,o),
(98.5,265,q),
(98,278,o),
(122,300,q),
(146,322,o),
(160.5,328,q),
(175,334,o),
(257,336,q),
(271,352,l),
(575,703,o),
(693,703,q),
(716,704,l),
(785,704,o),
(785,671,q),
(785,665,o),
(772,639,q),
(727,549,l),
(695,485,o),
(665,419,q),
(503,62,o),
(477,-49,q)
);
},
{
closed = 1;
nodes = (
(553,558,o),
(484,494.5,q),
(415,431,o),
(334,336,q),
(392,335,o),
(443,334,q),
(483,334,o),
(522,381,q),
(561,428,o),
(580.5,476,q),
(600,524,o),
(600,541,q),
(600,558,o),
(583,558,q)
);
},
{
closed = 1;
nodes = (
(820,737,l),
(820,724,o),
(811,724,q),
(791,724,o),
(770,765,q),
(767,771,o),
(762,771,q),
(757,771,o),
(751,767,q),
(697,731,o),
(667,731,q),
(637,731,o),
(637,739,q),
(637,742,o),
(648,752,q),
(694,799,o),
(705,814.5,q),
(716,830,o),
(721,833.5,q),
(726,837,o),
(738.5,837,q),
(751,837,o),
(765,823,q),
(770,819,o),
(775,819,q),
(780,819,o),
(795.5,828.5,q),
(811,838,o),
(833,838,q),
(843,837,o),
(843,827,q)
);
}
);
width = 579;
}
);
unicode = 194;
},
{
category = Letter;
glyphname = Atilde;
layers = (
{
layerId = "7e2a03ba-2254-48dc-b40c-8c8f8912cf0a";
name = Fore;
shapes = (
{
closed = 1;
nodes = (
(849,812,l),
(856,812,o),
(856,806.5,q),
(856,801,o),
(850,793,q),
(844,785,o),
(829.5,776,q),
(815,767,o),
(794,759,q),
(746,740,o),
(662,740,q),
(578,740,o),
(578,761,q),
(578,774,o),
(606.5,798,q),
(635,822,o),
(652,822,q),
(688,806,o),
(763,806,q)
);
},
{
closed = 1;
nodes = (
(100,252,o),
(98,261,q),
(98,278,o),
(122,300,q),
(146,322,o),
(160.5,328,q),
(175,334,o),
(257,336,q),
(271,352,l),
(575,703,o),
(693,703,q),
(703,704,o),
(716,704,q),
(785,704,o),
(785,671,q),
(785,665,o),
(772,639,q),
(727,549,l),
(695,485,o),
(665,419,q),
(503,62,o),
(477,-49,q),
(477,-57,o),
(456.5,-57,q),
(436,-57,o),
(407,-34.5,q),
(378,-12,o),
(378,5,q),
(378,36,o),
(427,122,q),
(476,208,o),
(476,234,q),
(476,269,o),
(340,269,q),
(320,269,o),
(278,267,q),
(240,217,l),
(170,123,o),
(106,-16,q),
(95,-41,o),
(39,-41,q),
(-17,-41,o),
(-17,-25,q),
(-17,-14,o),
(45.5,71.5,q),
(108,157,o),
(194,261,q),
(179,259,o),
(156,257,q),
(133,255,o),
(120.5,253.5,q),
(108,252,o),
(107,252,q)
);
},
{
closed = 1;
nodes = (
(600,524,o),
(600,541,q),
(600,558,o),
(583,558,q),
(553,558,o),
(484,494.5,q),
(415,431,o),
(334,336,q),
(443,334,l),
(483,334,o),
(522,381,q),
(561,428,o),
(580.5,476,q)
);
}
);
width = 579;
}
);
unicode = 195;
},
{
category = Letter;
glyphname = Adieresis;
layers = (
{
layerId = "7e2a03ba-2254-48dc-b40c-8c8f8912cf0a";
name = Fore;
shapes = (
{
closed = 1;
nodes = (
(100,252,o),
(98,261,q),
(98,278,o),
(122,300,q),
(146,322,o),
(160.5,328,q),
(175,334,o),
(257,336,q),
(271,352,l),
(575,703,o),
(693,703,q),
(703,704,o),
(716,704,q),
(785,704,o),
(785,671,q),
(785,665,o),
(772,639,q),
(727,549,l),
(695,485,o),
(665,419,q),
(503,62,o),
(477,-49,q),
(477,-57,o),
(456.5,-57,q),
(436,-57,o),
(407,-34.5,q),
(378,-12,o),
(378,5,q),
(378,36,o),
(427,122,q),
(476,208,o),
(476,234,q),
(476,269,o),
(340,269,q),
(320,269,o),
(278,267,q),
(240,217,l),
(170,123,o),
(106,-16,q),
(95,-41,o),
(39,-41,q),
(-17,-41,o),
(-17,-25,q),
(-17,-14,o),
(45.5,71.5,q),
(108,157,o),
(194,261,q),
(179,259,o),
(156,257,q),
(133,255,o),
(120.5,253.5,q),
(108,252,o),
(107,252,q)
);
},
{
closed = 1;
nodes = (
(600,524,o),
(600,541,q),
(600,558,o),
(583,558,q),
(553,558,o),
(484,494.5,q),
(415,431,o),
(334,336,q),
(443,334,l),
(483,334,o),
(522,381,q),
(561,428,o),
(580.5,476,q)
);
},
{
closed = 1;
nodes = (
(715,818,o),
(715,786,q),
(715,770,o),
(694,752,q),
(673,734,o),
(651,734,q),
(608,734,o),
(608,763,q),
(608,783,o),
(629.5,800.5,q),
(651,818,o),
(678,818,q)
);
},
{
closed = 1;
nodes = (
(900,818,o),
(900,786,q),
(900,770,o),
(879.5,752,q),
(859,734,o),
(836,734,q),
(793,734,o),
(793,763,q),
(793,783,o),
(814.5,800.5,q),
(836,818,o),
(863,818,q)
);
}
);
width = 579;
}
);
unicode = 196;
},
{
category = Letter;
glyphname = Aring;
layers = (
{
layerId = "7e2a03ba-2254-48dc-b40c-8c8f8912cf0a";
name = Fore;
shapes = (
{
closed = 1;
nodes = (
(475,-57,o),
(455.5,-57,q),
(436,-57,o),
(407,-34.5,q),
(378,-12,o),
(378,5,q),
(378,36,o),
(427,122,q),
(476,208,o),
(476,234,q),
(476,269,o),
(340,269,q),
(320,269,o),
(278,267,q),
(240,217,l),
(170,123,o),
(106,-16,q),
(95,-41,o),
(39,-41,q),
(-17,-41,o),
(-17,-25,q),
(-17,-14,o),
(45.5,71.5,q),
(108,157,o),
(194,261,q),
(179,259,o),
(156,257,q),
(133,255,o),
(120.5,253.5,q),
(108,252,o),
(107,252,q),
(99,252,o),
(98.5,265,q),
(98,278,o),
(122,300,q),
(146,322,o),
(160.5,328,q),
(175,334,o),
(257,336,q),
(271,352,l),
(575,703,o),
(693,703,q),
(716,704,l),
(785,704,o),
(785,671,q),
(785,665,o),
(772,639,q),
(727,549,l),
(695,485,o),
(665,419,q),
(503,62,o),
(477,-49,q)
);
},
{
closed = 1;
nodes = (
(553,558,o),
(484,494.5,q),
(415,431,o),
(334,336,q),
(392,335,o),
(443,334,q),
(483,334,o),
(522,381,q),
(561,428,o),
(580.5,476,q),
(600,524,o),
(600,541,q),
(600,558,o),
(583,558,q)
);
},
{
closed = 1;
nodes = (
(813,815,o),
(794,815,q),
(775,815,o),
(762,804.5,q),
(749,794,o),
(749,782,q),
(749,765,o),
(769,765,q),
(789,765,o),
(801,776,q),
(813,787,o),
(813,799,q)
);
},
{
closed = 1;
nodes = (
(708,803,o),
(738.5,825.5,q),
(769,848,o),
(797,848,q),
(825,848,o),
(840,837.5,q),
(855,827,o),
(855,804.5,q),
(855,782,o),
(826,757.5,q),
(797,733,o),
(767,733,q),
(737,733,o),
(722.5,743.5,q),
(708,754,o),
(708,771,q)
);
}
);
width = 579;
}
);
unicode = 197;
},
{
category = Letter;
glyphname = AE;
layers = (
{
layerId = "7e2a03ba-2254-48dc-b40c-8c8f8912cf0a";
name = Fore;
shapes = (
{
closed = 1;
nodes = (
(110,251,o),
(105,251,q),
(100,251,o),
(98,259,q),
(98,277,o),
(121.5,298.5,q),
(145,320,o),
(167,329,q),
(174,332,o),
(257,334,q),
(271,350,l),
(395,493,o),
(523,597,q),
(651,701,o),
(719,701,q),
(748,707,o),
(774,707,q),
(818,707,o),
(818,686,q),
(979,689,l),
(1014,689,o),
(1026,688,q),
(1041,705,o),
(1103,705,q),
(1129,705,o),
(1129,692,q),
(1129,665,o),
(1071,582,q),
(1013,499,o),
(985,496,q),
(975,496,l),
(959,496,o),
(959,503,q),
(959,506,o),
(962,511,q),
(978,542,o),
(978,581,q),
(978,636,o),
(901,636,q),
(852,636,o),
(825.5,612,q),
(799,588,o),
(773.5,544.5,q),
(748,501,o),
(736.5,470.5,q),
(725,440,o),
(725,432,q),
(725,399,o),
(775,399,q),
(803,397,o),
(843,397,q),
(910,399,l),
(913,400,o),
(917,400,q),
(927,400,o),
(927,393,q),
(914,355,o),
(893,341.5,q),
(872,328,o),
(827,328,q),
(742,331,l),
(679,331,o),
(645,290,q),
(621,260,o),
(581.5,192,q),
(542,124,o),
(542,84,q),
(542,47,o),
(615,47,q),
(660,47,o),
(711,64,q),
(814,98,o),
(874,194,q),
(875,203,o),
(895,203,q),
(915,203,o),
(915,187,q),
(915,163,o),
(883,101,q),
(851,39,o),
(825,9,q),
(812,-7,o),
(775,-9,q),
(709,-11,o),
(636,-11,q),
(498,-8,l),
(484,-8,o),
(477,-17,q),
(442,-46,o),
(384,-46,q),
(354,-46,o),
(354,-30,q),
(354,-9,o),
(413.5,106,q),
(473,221,o),
(473,228,q),
(473,251,o),
(440.5,259,q),
(408,267,o),
(363.5,267,q),
(319,267,o),
(279,265,q),
(224,201,o),
(183,128,q),
(129,33,o),
(107,-18,q),
(102,-28,o),
(83.5,-34.5,q),
(65,-41,o),
(49,-42,q),
(33,-43,l),
(29,-43,l),
(-17,-43,o),
(-17,-27,q),
(-17,-16,o),
(46,70,q),
(109,156,o),
(195,260,q)
);
},
{
closed = 1;
nodes = (
(649,573,o),
(622.5,573,q),
(596,573,o),
(511,501,q),
(426,429,o),
(339,334,q),
(475,333,l),
(515,333,o),
(557.5,383.5,q),
(600,434,o),
(624,486,q),
(648,538,o),
(649,558,q),
(649,559,l)
);
}
);
width = 912;
}
);
unicode = 198;
},
{
category = Letter;
glyphname = Ccedilla;
layers = (
{
layerId = "7e2a03ba-2254-48dc-b40c-8c8f8912cf0a";
name = Fore;
shapes = (
{
closed = 1;
nodes = (
(209,-68,o),
(221.5,-79,q),
(234,-90,o),
(234,-107.5,q),
(234,-125,o),
(214.5,-141,q),
(195,-157,o),
(165.5,-157,q),
(136,-157,o),
(121,-145.5,q),
(106,-134,o),
(106,-124.5,q),
(106,-115,o),
(113,-115,q),
(124,-120,l),
(135,-125,o),
(149.5,-125,q),
(164,-125,o),
(176.5,-117,q),
(189,-109,o),
(189,-97.5,q),
(189,-86,o),
(178,-76.5,q),
(167,-67,o),
(167,-60,q),
(167,-45,o),
(199,-29,q),
(202,-28,o),
(202,-26,q),
(202,-24,o),
(199,-21,q),
(69,-4,o),
(69,144,q),
(69,193,o),
(92.5,263,q),
(116,333,o),
(162,408.5,q),
(208,484,o),
(266,549,q),
(324,614,o),
(402,656,q),
(480,698,o),
(559,698,q),
(596,698,o),
(616,689.5,q),
(636,681,o),
(637.5,681,q),
(639,681,o),
(662.5,691,q),
(686,701,o),
(718.5,701,q),
(751,701,o),
(751,682.5,q),
(751,664,o),
(712.5,602,q),
(674,540,o),
(620,483,q),
(566,426,o),
(534,426,q),
(530,425,o),
(524,425,q),
(505,425,o),
(505,436,q),
(505,438,o),
(519,458.5,q),
(533,479,o),
(547,513.5,q),
(561,548,o),
(561,569,q),
(561,590,o),
(559,599,q),
(557,608,o),
(545.5,620,q),
(534,632,o),
(514,632,q),
(460,632,o),
(385.5,550,q),
(311,468,o),
(257.5,357.5,q),
(204,247,o),
(204,170,q),
(204,78,o),
(288,78,q),
(388,78,o),
(482,207,q),
(486,215,o),
(490.5,215,q),
(495,215,o),
(497.5,214.5,q),
(500,214,o),
(504.5,208.5,q),
(509,203,o),
(509,193,q),
(509,144,o),
(431.5,64,q),
(354,-16,o),
(250,-23,q),
(209,-37,o),
(209,-57,q)
);
}
);
width = 495;
}
);
unicode = 199;
},
{
category = Letter;
glyphname = Egrave;
layers = (
{
layerId = "7e2a03ba-2254-48dc-b40c-8c8f8912cf0a";
name = Fore;
shapes = (
{
closed = 1;
nodes = (
(381,333,l),
(318,333,o),
(284,292,q),
(260,262,o),
(220.5,194,q),
(181,126,o),
(181,86,q),
(181,49,o),
(254,49,q),
(299,49,o),
(350,66,q),
(453,100,o),
(513,196,q),
(520,205,o),
(537,205,q),
(554,205,o),
(554,185.5,q),
(554,166,o),
(522,104,q),
(490,42,o),
(465,11,q),
(452,-5,o),
(414.5,-7,q),
(377,-9,o),
(300,-9,q),
(202,-9,l),
(145,-8,l),
(118,-6,l),
(117,-6,o),
(111,-6,q),
(105,-6,o),
(96,-15,q),
(63,-44,o),
(2,-44,q),
(-27,-44,o),
(-27,-31,q),
(-27,-28,l),
(-27,-17,o),
(42.5,102.5,q),
(112,222,o),
(197,369,q),
(282,516,o),
(306,570.5,q),
(330,625,o),
(330,664,q),
(330,675,l),
(330,692,o),
(543,692,q),
(613,692,o),
(665,690,q),
(680,707,o),
(742,707,q),
(768,707,o),
(768,694,q),
(768,671,o),
(722.5,601.5,q),
(677,532,o),
(643,507,q),
(632,498,o),
(615,498,q),
(598,498,o),
(598,505,q),
(598,508,o),
(601,513,q),
(617,544,o),
(617,583,q),
(617,638,o),
(541,638,q),
(495,638,o),
(468.5,614,q),
(442,590,o),
(416,547,q),
(390,504,o),
(377.5,473,q),
(365,442,o),
(365,434,q),
(365,410,o),
(388.5,404.5,q),
(412,399,o),
(482,399,q),
(556,402,l),
(566,402,o),
(566,394.5,q),
(566,387,o),
(555.5,369.5,q),
(545,352,o),
(534,345,q),
(512,330,o),
(466,330,q)
);
},
{
closed = 1;
nodes = (
(552,855,o),
(560.5,855,q),
(569,855,o),
(572.5,852.5,q),
(576,850,o),
(577.5,847.5,q),
(579,845,o),
(582,838,q),
(588,827,l),
(598,809,o),
(613,788,q),
(646,740,o),
(646,736,q),
(646,732,o),
(636,732,q),
(629,732,l),
(605,736,o),
(557.5,767.5,q),
(510,799,o),
(510,815,q),
(510,831,o),
(531,843,q)
);
}
);
width = 551;
}
);
unicode = 200;
},
{
category = Letter;
glyphname = Eacute;
layers = (
{
layerId = "7e2a03ba-2254-48dc-b40c-8c8f8912cf0a";
name = Fore;
shapes = (
{
closed = 1;
nodes = (
(381,333,l),
(318,333,o),
(284,292,q),
(260,262,o),
(220.5,194,q),
(181,126,o),
(181,86,q),
(181,49,o),
(254,49,q),
(299,49,o),
(350,66,q),
(453,100,o),
(513,196,q),
(520,205,o),
(537,205,q),
(554,205,o),
(554,185.5,q),
(554,166,o),
(522,104,q),
(490,42,o),
(465,11,q),
(452,-5,o),
(414.5,-7,q),
(377,-9,o),
(300,-9,q),
(202,-9,l),
(145,-8,l),
(118,-6,l),
(117,-6,o),
(111,-6,q),
(105,-6,o),
(96,-15,q),
(63,-44,o),
(2,-44,q),
(-27,-44,o),
(-27,-31,q),
(-27,-28,l),
(-27,-17,o),
(42.5,102.5,q),
(112,222,o),
(197,369,q),
(282,516,o),
(306,570.5,q),
(330,625,o),
(330,664,q),
(330,675,l),
(330,692,o),
(543,692,q),
(613,692,o),
(665,690,q),
(680,707,o),
(742,707,q),
(768,707,o),
(768,694,q),
(768,671,o),
(722.5,601.5,q),
(677,532,o),
(643,507,q),
(632,498,o),
(615,498,q),
(598,498,o),
(598,505,q),
(598,508,o),
(601,513,q),
(617,544,o),
(617,583,q),
(617,638,o),
(541,638,q),
(495,638,o),
(468.5,614,q),
(442,590,o),
(416,547,q),
(390,504,o),
(377.5,473,q),
(365,442,o),
(365,434,q),
(365,410,o),
(388.5,404.5,q),
(412,399,o),
(482,399,q),
(556,402,l),
(566,402,o),
(566,394.5,q),
(566,387,o),
(555.5,369.5,q),
(545,352,o),
(534,345,q),
(512,330,o),
(466,330,q)
);
},
{
closed = 1;
nodes = (
(669,783,o),
(615.5,758.5,q),
(562,734,o),
(541.5,734,q),
(521,734,o),
(521,742,q),
(521,746,o),
(551,776,q),
(581,806,o),
(588,815,q),
(595,824,o),
(598.5,829,q),
(602,834,o),
(604,836.5,q),
(606,839,o),
(608,842,q),
(613,846,o),
(621.5,846,q),
(630,846,o),
(649.5,830.5,q),
(669,815,o),
(669,799,q)
);
}
);
width = 551;
}
);
unicode = 201;
},
{
category = Letter;
glyphname = Ecircumflex;
layers = (
{
layerId = "7e2a03ba-2254-48dc-b40c-8c8f8912cf0a";
name = Fore;
shapes = (
{
closed = 1;
nodes = (
(381,333,l),
(318,333,o),
(284,292,q),
(260,262,o),
(220.5,194,q),
(181,126,o),
(181,86,q),
(181,49,o),
(254,49,q),
(299,49,o),
(350,66,q),
(453,100,o),
(513,196,q),
(520,205,o),
(537,205,q),
(554,205,o),
(554,185.5,q),
(554,166,o),
(522,104,q),
(490,42,o),
(465,11,q),
(452,-5,o),
(414.5,-7,q),
(377,-9,o),
(300,-9,q),
(202,-9,l),
(145,-8,l),
(118,-6,l),
(117,-6,o),
(111,-6,q),
(105,-6,o),
(96,-15,q),
(63,-44,o),
(2,-44,q),
(-27,-44,o),
(-27,-31,q),
(-27,-28,l),
(-27,-17,o),
(42.5,102.5,q),
(112,222,o),
(197,369,q),
(282,516,o),
(306,570.5,q),
(330,625,o),
(330,664,q),
(330,675,l),
(330,692,o),
(543,692,q),
(613,692,o),
(665,690,q),
(680,707,o),
(742,707,q),
(768,707,o),
(768,694,q),
(768,671,o),
(722.5,601.5,q),
(677,532,o),
(643,507,q),
(632,498,o),
(615,498,q),
(598,498,o),
(598,505,q),
(598,508,o),
(601,513,q),
(617,544,o),
(617,583,q),
(617,638,o),
(541,638,q),
(495,638,o),
(468.5,614,q),
(442,590,o),
(416,547,q),
(390,504,o),
(377.5,473,q),
(365,442,o),
(365,434,q),
(365,410,o),
(388.5,404.5,q),
(412,399,o),
(482,399,q),
(556,402,l),
(566,402,o),
(566,394.5,q),
(566,387,o),
(555.5,369.5,q),
(545,352,o),
(534,345,q),
(512,330,o),
(466,330,q)
);
},
{
closed = 1;
nodes = (
(651,747,l),
(651,734,o),
(642,734,q),
(622,734,o),
(601,775,q),
(598,781,o),
(593,781,q),
(588,781,o),
(582,777,q),
(528,741,o),
(498,741,q),
(468,741,o),
(468,749,q),
(468,752,o),
(478,762,q),
(524,808,o),
(535.5,824,q),
(547,840,o),
(552,843.5,q),
(557,847,o),
(569.5,847,q),
(582,847,o),
(596,833,q),
(601,829,o),
(606.5,829,q),
(612,829,o),
(627,838.5,q),
(642,848,o),
(664,848,q),
(674,847,o),
(674,837,q)
);
}
);
width = 551;
}
);
unicode = 202;
},
{
category = Letter;
glyphname = Edieresis;
layers = (
{
layerId = "7e2a03ba-2254-48dc-b40c-8c8f8912cf0a";
name = Fore;
shapes = (
{
closed = 1;
nodes = (
(381,333,l),
(318,333,o),
(284,292,q),
(260,262,o),
(220.5,194,q),
(181,126,o),
(181,86,q),
(181,49,o),
(254,49,q),
(299,49,o),
(350,66,q),
(453,100,o),
(513,196,q),
(520,205,o),
(537,205,q),
(554,205,o),
(554,185.5,q),
(554,166,o),
(522,104,q),
(490,42,o),
(465,11,q),
(452,-5,o),
(414.5,-7,q),
(377,-9,o),
(300,-9,q),
(202,-9,l),
(145,-8,l),
(118,-6,l),
(117,-6,o),
(111,-6,q),
(105,-6,o),
(96,-15,q),
(63,-44,o),
(2,-44,q),
(-27,-44,o),
(-27,-31,q),
(-27,-28,l),
(-27,-17,o),
(42.5,102.5,q),
(112,222,o),
(197,369,q),
(282,516,o),
(306,570.5,q),
(330,625,o),
(330,664,q),
(330,675,l),
(330,692,o),
(543,692,q),
(613,692,o),
(665,690,q),
(680,707,o),
(742,707,q),
(768,707,o),
(768,694,q),
(768,671,o),
(722.5,601.5,q),
(677,532,o),
(643,507,q),
(632,498,o),
(615,498,q),
(598,498,o),
(598,505,q),
(598,508,o),
(601,513,q),
(617,544,o),
(617,583,q),
(617,638,o),
(541,638,q),
(495,638,o),
(468.5,614,q),
(442,590,o),
(416,547,q),
(390,504,o),
(377.5,473,q),
(365,442,o),
(365,434,q),
(365,410,o),
(388.5,404.5,q),
(412,399,o),
(482,399,q),
(556,402,l),
(566,402,o),
(566,394.5,q),
(566,387,o),
(555.5,369.5,q),
(545,352,o),
(534,345,q),
(512,330,o),
(466,330,q)
);
},
{
closed = 1;
nodes = (
(543,824,o),
(543,792,q),
(543,776,o),
(522,758,q),
(501,740,o),
(479,740,q),
(436,740,o),
(436,769,q),
(436,789,o),
(457.5,806.5,q),
(479,824,o),
(506,824,q)
);
},
{
closed = 1;
nodes = (
(728,824,o),
(728,792,q),
(728,776,o),
(707.5,758,q),
(687,740,o),
(664,740,q),
(621,740,o),
(621,769,q),
(621,789,o),
(642.5,806.5,q),
(664,824,o),
(691,824,q)
);
}
);
width = 551;
}
);
unicode = 203;
},
{
category = Letter;
glyphname = Igrave;
layers = (
{
layerId = "7e2a03ba-2254-48dc-b40c-8c8f8912cf0a";
name = Fore;
shapes = (
{
closed = 1;
nodes = (
(163,30,o),
(165.5,20,q),
(168,10,o),
(168,5,q),
(168,-18,o),
(70.5,-18,q),
(-27,-18,o),
(-27,5,q),
(-21,17,l),
(13,37,o),
(115,202.5,q),
(217,368,o),
(322,576,q),
(344,620,o),
(344,659,q),
(344,675,l),
(344,701,o),
(451,701,q),
(505,701,o),
(505,681,q),
(505,673,o),
(497,665,q),
(429,577,o),
(296,335.5,q),
(163,94,o),
(163,50,q)
);
},
{
closed = 1;
nodes = (
(432,863,o),
(440.5,863,q),
(449,863,o),
(452.5,860.5,q),
(456,858,o),
(457.5,855.5,q),
(459,853,o),
(462,846,q),
(468,835,l),
(478,817,o),
(493,796,q),
(526,748,o),
(526,744,q),
(526,740,o),
(516,740,q),
(509,740,l),
(485,744,o),
(437.5,775.5,q),
(390,807,o),
(390,823,q),
(390,839,o),
(411,851,q)
);
}
);
width = 247;
}
);
unicode = 204;
},
{
category = Letter;
glyphname = Iacute;
layers = (
{
layerId = "7e2a03ba-2254-48dc-b40c-8c8f8912cf0a";
name = Fore;
shapes = (
{
closed = 1;
nodes = (
(163,30,o),
(165.5,20,q),
(168,10,o),
(168,5,q),
(168,-18,o),
(70.5,-18,q),
(-27,-18,o),
(-27,5,q),
(-27,11,o),
(-21,17,q),
(13,37,o),
(115,202.5,q),
(217,368,o),
(322,576,q),
(344,620,o),
(344,659,q),
(344,659,o),
(344,675,q),
(344,701,o),
(451,701,q),
(505,701,o),
(505,681,q),
(505,673,o),
(497,665,q),
(429,577,o),
(275,297,q),
(247,245,l),
(219,193,o),
(191,131.5,q),
(163,70,o),
(163,50,q)
);
},
{
closed = 1;
nodes = (
(563,784,o),
(509.5,759.5,q),
(456,735,o),
(435.5,735,q),
(415,735,o),
(415,743,q),
(415,747,o),
(445,777,q),
(475,807,o),
(482,816,q),
(489,825,o),
(492.5,830,q),
(496,835,o),
(498,837.5,q),
(500,840,o),
(502,842,q),
(507,847,o),
(515.5,847,q),
(524,847,o),
(543.5,831.5,q),
(563,816,o),
(563,800,q)
);
}
);
width = 247;
}
);
unicode = 205;
},
{
category = Letter;
glyphname = Icircumflex;
layers = (
{
layerId = "7e2a03ba-2254-48dc-b40c-8c8f8912cf0a";
name = Fore;
shapes = (
{
closed = 1;
nodes = (
(163,30,o),
(165.5,20,q),
(168,10,o),
(168,5,q),
(168,-18,o),
(70.5,-18,q),
(-27,-18,o),
(-27,5,q),
(-27,11,o),
(-21,17,q),
(13,37,o),
(115,202.5,q),
(217,368,o),
(322,576,q),
(344,620,o),
(344,659,q),
(344,659,o),
(344,675,q),
(344,701,o),
(451,701,q),
(505,701,o),
(505,681,q),
(505,673,o),
(497,665,q),
(429,577,o),
(275,297,q),
(247,245,l),
(219,193,o),
(191,131.5,q),
(163,70,o),
(163,50,q)
);
},
{
closed = 1;
nodes = (
(556,747,l),
(556,734,o),
(547,734,q),
(527,734,o),
(506,775,q),
(503,781,o),
(498,781,q),
(493,781,o),
(487,777,q),
(433,741,o),
(403,741,q),
(373,741,o),
(373,749,q),
(373,752,o),
(384,762,q),
(430,808,o),
(441,824,q),
(452,840,o),
(457,843.5,q),
(462,847,o),
(474.5,847,q),
(487,847,o),
(501,833,q),
(506,829,o),
(511,829,q),
(516,829,o),
(531.5,838.5,q),
(547,848,o),
(569,848,q),
(579,847,o),
(579,837,q)
);
}
);
width = 247;
}
);
unicode = 206;
},
{
category = Letter;
glyphname = Idieresis;
layers = (
{
layerId = "7e2a03ba-2254-48dc-b40c-8c8f8912cf0a";
name = Fore;
shapes = (
{
closed = 1;
nodes = (
(163,30,o),
(165.5,20,q),
(168,10,o),
(168,5,q),
(168,-18,o),
(70.5,-18,q),
(-27,-18,o),
(-27,5,q),
(-21,17,l),
(13,37,o),
(115,202.5,q),
(217,368,o),
(322,576,q),
(344,620,o),
(344,659,q),
(344,675,l),
(344,701,o),
(451,701,q),
(505,701,o),
(505,681,q),
(505,673,o),
(497,665,q),
(429,577,o),
(296,335.5,q),
(163,94,o),
(163,50,q)
);
},
{
closed = 1;
nodes = (
(434,824,o),
(434,792,q),
(434,776,o),
(413,758,q),
(392,740,o),
(370,740,q),
(327,740,o),
(327,769,q),
(327,789,o),
(348.5,806.5,q),
(370,824,o),
(397,824,q)
);
},
{
closed = 1;
nodes = (
(619,824,o),
(619,792,q),
(619,776,o),
(598.5,758,q),
(578,740,o),
(556,740,q),
(512,740,o),
(512,769,q),
(512,789,o),
(533.5,806.5,q),
(555,824,o),
(582,824,q)
);
}
);
width = 247;
}
);
unicode = 207;
},
{
category = Letter;
glyphname = Eth;
layers = (
{
layerId = "7e2a03ba-2254-48dc-b40c-8c8f8912cf0a";
name = Fore;
shapes = (
{
closed = 1;
nodes = (
(78,328,o),
(78,338,q),
(78,351,o),
(97,374,q),
(116,397,o),
(146,397,q),
(211,397,l),
(277,511,o),
(303,569,q),
(329,627,o),
(329,667,q),
(329,675,l),
(329,704,o),
(496,704,q),
(744,704,o),
(744,535,q),
(744,413,o),
(661,266,q),
(618,189,o),
(560,125,q),
(502,61,o),
(415.5,19,q),
(329,-23,o),
(232,-23,q),
(179,-23,o),
(164,-19.5,q),
(149,-16,o),
(138.5,-13.5,q),
(128,-11,o),
(125,-10,q),
(122,-9,o),
(116,-9,q),
(104,-9,o),
(94,-15,q),
(59,-44,o),
(2,-44,q),
(-28,-44,o),
(-28,-31,q),
(-28,-14,o),
(60,135,q),
(80,170,o),
(116,232,q),
(152,294,o),
(172,328,q),
(92,328,l)
);
},
{
closed = 1;
nodes = (
(424,398,l),
(438,398,o),
(438,388,q),
(438,375,o),
(419,352,q),
(400,329,o),
(370,329,q),
(285,329,l),
(165,113,o),
(165,77,q),
(165,37,o),
(250,37,q),
(310,37,o),
(371,79,q),
(432,121,o),
(478,184.5,q),
(524,248,o),
(561,319.5,q),
(598,391,o),
(617.5,453.5,q),
(637,516,o),
(637,558.5,q),
(637,601,o),
(612.5,623,q),
(588,645,o),
(530,645,q),
(490,645,o),
(466,617,q),
(413,549,o),
(325,397,q)
);
}
);
width = 598;
}
);
unicode = 208;
},
{
category = Letter;
glyphname = Ntilde;
layers = (
{
layerId = "7e2a03ba-2254-48dc-b40c-8c8f8912cf0a";
name = Fore;
shapes = (
{
closed = 1;
nodes = (
(355,425,o),
(355,443.5,q),
(355,462,o),
(344.5,462,q),
(334,462,o),
(316,441,q),
(298,420,o),
(286,400,q),
(273,379,l),
(193,248,o),
(92,32,q),
(72,-12,o),
(54,-24.5,q),
(36,-37,o),
(2.5,-37,q),
(-31,-37,o),
(-31,-22,q),
(-31,-19,l),
(-31,-6,o),
(20,76,q),
(215,389,o),
(305,571,q),
(328,617,o),
(328,654,q),
(328,670,l),
(328,677,o),
(333.5,684.5,q),
(339,692,o),
(368,700.5,q),
(397,709,o),
(448,709,q),
(525,709,o),
(525,680,q),
(525,671,o),
(484,486,q),
(443,301,o),
(443,262.5,q),
(443,224,o),
(451,224,q),
(463,224,o),
(476,237,q),
(489,250,o),
(496,262,q),
(503,275,l),
(567,380,o),
(618,483.5,q),
(669,587,o),
(693,636,q),
(717,685,o),
(735,698,q),
(761,713,o),
(801,713,q),
(841,713,o),
(841,701,q),
(841,699,l),
(841,692,o),
(788,615,q),
(735,538,o),
(647.5,398.5,q),
(560,259,o),
(495,132,q),
(467,67,o),
(467,28,q),
(467,16,o),
(462.5,10,q),
(458,4,o),
(431.5,-1.5,q),
(405,-7,o),
(377,-7,q),
(345,-7,l),
(334,-7,o),
(318,-2,q),
(290,6,o),
(290,23,q),
(290,67,o),
(322.5,246,q)
);
},
{
closed = 1;
nodes = (
(762,812,l),
(769,812,o),
(769,806.5,q),
(769,801,o),
(763,793,q),
(757,785,o),
(742.5,776,q),
(728,767,o),
(708,759,q),
(659,740,o),
(575,740,q),
(491,740,o),
(491,761,q),
(491,774,o),
(519.5,798,q),
(548,822,o),
(565,822,q),
(601,806,o),
(676,806,q)
);
}
);
width = 547;
}
);
unicode = 209;
},
{
category = Letter;
glyphname = Ograve;
layers = (
{
layerId = "7e2a03ba-2254-48dc-b40c-8c8f8912cf0a";
name = Fore;
shapes = (
{
closed = 1;
nodes = (
(747,483,o),
(724.5,411,q),
(702,339,o),
(658,264,q),
(614,189,o),
(556.5,125.5,q),
(499,62,o),
(420.5,21.5,q),
(342,-19,o),
(258.5,-19,q),
(175,-19,o),
(127,27.5,q),
(79,74,o),
(79,156,q),
(79,212,o),
(101.5,284,q),
(124,356,o),
(168,431,q),
(212,506,o),
(269.5,569,q),
(327,632,o),
(405.5,672.5,q),
(484,713,o),
(567.5,713,q),
(651,713,o),
(699,667,q),
(747,621,o),
(747,539,q)
);
},
{
closed = 1;
nodes = (
(629,658,o),
(549,658,q),
(482,658,o),
(399.5,573,q),
(317,488,o),
(259.5,367.5,q),
(202,247,o),
(202,152,q),
(202,42,o),
(282,42,q),
(348,42,o),
(431,127,q),
(514,212,o),
(571.5,332.5,q),
(629,453,o),
(629,548,q)
);
},
{
closed = 1;
nodes = (
(566,866,o),
(574.5,866,q),
(583,866,o),
(586.5,863.5,q),
(590,861,o),
(591.5,858.5,q),
(593,856,o),
(596,849,q),
(596,849,o),
(602,838,q),
(612,820,o),
(627,798,q),
(660,751,o),
(660,747,q),
(660,743,o),
(650,743,q),
(643,743,l),
(619,747,o),
(571.5,778.5,q),
(524,810,o),
(524,826,q),
(524,842,o),
(545,854,q)
);
}
);
width = 602;
}
);
unicode = 210;
},
{
category = Letter;
glyphname = Oacute;
layers = (
{
layerId = "7e2a03ba-2254-48dc-b40c-8c8f8912cf0a";
name = Fore;
shapes = (
{
closed = 1;
nodes = (
(747,483,o),
(724.5,411,q),
(702,339,o),
(658,264,q),
(614,189,o),
(556.5,125.5,q),
(499,62,o),
(420.5,21.5,q),
(342,-19,o),
(258.5,-19,q),
(175,-19,o),
(127,27.5,q),
(79,74,o),
(79,156,q),
(79,212,o),
(101.5,284,q),
(124,356,o),
(168,431,q),
(212,506,o),
(269.5,569,q),
(327,632,o),
(405.5,672.5,q),
(484,713,o),
(567.5,713,q),
(651,713,o),
(699,667,q),
(747,621,o),
(747,539,q)
);
},
{
closed = 1;
nodes = (
(629,658,o),
(549,658,q),
(482,658,o),
(399.5,573,q),
(317,488,o),
(259.5,367.5,q),
(202,247,o),
(202,152,q),
(202,42,o),
(282,42,q),
(348,42,o),
(431,127,q),
(514,212,o),
(571.5,332.5,q),
(629,453,o),
(629,548,q)
);
},
{
closed = 1;
nodes = (
(692,789,o),
(638.5,764.5,q),
(585,740,o),
(564.5,740,q),
(544,740,o),
(544,748,q),
(544,752,o),
(574,782,q),
(604,812,o),
(611,821,q),
(618,830,o),
(621.5,835,q),
(625,840,o),
(627,842.5,q),
(629,845,o),
(632,848,q),
(636,852,o),
(644.5,852,q),
(653,852,o),
(672.5,836.5,q),
(692,821,o),
(692,805,q)
);
}
);
width = 602;
}
);
unicode = 211;
},
{
category = Letter;
glyphname = Ocircumflex;
layers = (
{
layerId = "7e2a03ba-2254-48dc-b40c-8c8f8912cf0a";
name = Fore;
shapes = (
{
closed = 1;
nodes = (
(747,483,o),
(724.5,411,q),
(702,339,o),
(658,264,q),
(614,189,o),
(556.5,125.5,q),
(499,62,o),
(420.5,21.5,q),
(342,-19,o),
(258.5,-19,q),
(175,-19,o),
(127,27.5,q),
(79,74,o),
(79,156,q),
(79,212,o),
(101.5,284,q),
(124,356,o),
(168,431,q),
(212,506,o),
(269.5,569,q),
(327,632,o),
(405.5,672.5,q),
(484,713,o),
(567.5,713,q),
(651,713,o),
(699,667,q),
(747,621,o),
(747,539,q)
);
},
{
closed = 1;
nodes = (
(629,658,o),
(549,658,q),
(482,658,o),
(399.5,573,q),
(317,488,o),
(259.5,367.5,q),
(202,247,o),
(202,152,q),
(202,42,o),
(282,42,q),
(348,42,o),
(431,127,q),
(514,212,o),
(571.5,332.5,q),
(629,453,o),
(629,548,q)
);
},
{
closed = 1;
nodes = (
(679,750,l),
(679,737,o),
(670,737,q),
(650,737,o),
(629,778,q),
(626,784,o),
(621,784,q),
(616,784,o),
(610,780,q),
(556,744,o),
(526,744,q),
(496,744,o),
(496,752,q),
(496,755,o),
(506,766,q),
(553,812,o),
(564,827.5,q),
(575,843,o),
(580,846.5,q),
(585,850,o),
(597.5,850,q),
(610,850,o),
(624,836,q),
(629,832,o),
(634.5,832,q),
(640,832,o),
(655,841.5,q),
(670,851,o),
(692,851,q),
(702,850,o),
(702,840,q)
);
}
);
width = 602;
}
);
unicode = 212;
},
{
category = Letter;
glyphname = Otilde;
layers = (
{
layerId = "7e2a03ba-2254-48dc-b40c-8c8f8912cf0a";
name = Fore;
shapes = (
{
closed = 1;
nodes = (
(762,812,l),
(769,812,o),
(769,806.5,q),
(769,801,o),
(763,793,q),
(757,785,o),
(742.5,776,q),
(728,767,o),
(708,759,q),
(659,740,o),
(575,740,q),
(491,740,o),
(491,761,q),
(491,774,o),
(519.5,798,q),
(548,822,o),
(565,822,q),
(601,806,o),
(676,806,q)
);
},
{
closed = 1;
nodes = (
(747,483,o),
(724.5,411,q),
(702,339,o),
(658,264,q),
(614,189,o),
(556.5,125.5,q),
(499,62,o),
(420.5,21.5,q),
(342,-19,o),
(258.5,-19,q),
(175,-19,o),
(127,27.5,q),
(79,74,o),
(79,156,q),
(79,212,o),
(101.5,284,q),
(124,356,o),
(168,431,q),
(212,506,o),
(269.5,569,q),
(327,632,o),
(405.5,672.5,q),
(484,713,o),
(567.5,713,q),
(651,713,o),
(699,667,q),
(747,621,o),
(747,539,q)
);
},
{
closed = 1;
nodes = (
(629,658,o),
(549,658,q),
(482,658,o),
(399.5,573,q),
(317,488,o),
(259.5,367.5,q),
(202,247,o),
(202,152,q),
(202,42,o),
(282,42,q),
(348,42,o),
(431,127,q),
(514,212,o),
(571.5,332.5,q),
(629,453,o),
(629,548,q)
);
}
);
width = 602;
}
);
unicode = 213;
},
{
category = Letter;
glyphname = Odieresis;
layers = (
{
layerId = "7e2a03ba-2254-48dc-b40c-8c8f8912cf0a";
name = Fore;
shapes = (
{
closed = 1;
nodes = (
(747,483,o),
(724.5,411,q),
(702,339,o),
(658,264,q),
(614,189,o),
(556.5,125.5,q),
(499,62,o),
(420.5,21.5,q),
(342,-19,o),
(258.5,-19,q),
(175,-19,o),
(127,27.5,q),
(79,74,o),
(79,156,q),
(79,212,o),
(101.5,284,q),
(124,356,o),
(168,431,q),
(212,506,o),
(269.5,569,q),
(327,632,o),
(405.5,672.5,q),
(484,713,o),
(567.5,713,q),
(651,713,o),
(699,667,q),
(747,621,o),
(747,539,q)
);
},
{
closed = 1;
nodes = (
(629,658,o),
(549,658,q),
(482,658,o),
(399.5,573,q),
(317,488,o),
(259.5,367.5,q),
(202,247,o),
(202,152,q),
(202,42,o),
(282,42,q),
(348,42,o),
(431,127,q),
(514,212,o),
(571.5,332.5,q),
(629,453,o),
(629,548,q)
);
},
{
closed = 1;
nodes = (
(586,826,o),
(586,794,q),
(586,778,o),
(565,760,q),
(544,742,o),
(522,742,q),
(479,742,o),
(479,771,q),
(479,791,o),
(500.5,808.5,q),
(522,826,o),
(549,826,q)
);
},
{
closed = 1;
nodes = (
(771,826,o),
(771,794,q),
(771,778,o),
(750.5,760,q),
(730,742,o),
(708,742,q),
(664,742,o),
(664,771,q),
(664,791,o),
(685.5,808.5,q),
(707,826,o),
(734,826,q)
);
}
);
width = 602;
}
);
unicode = 214;
},
{
category = Letter;
glyphname = multiply;
layers = (
{
layerId = "7e2a03ba-2254-48dc-b40c-8c8f8912cf0a";
name = Fore;
shapes = (
{
closed = 1;
nodes = (
(493,509,o),
(528.5,540,q),
(564,571,o),
(610,571,q),
(656,571,o),
(656,561,q),
(656,553,o),
(639,542,q),
(563,482,o),
(407,353,q),
(432,202,o),
(438.5,179,q),
(445,156,o),
(445,151,q),
(445,134,o),
(413,134,q),
(367,134,o),
(362,168,q),
(341,298,l),
(265,235,o),
(183,164,q),
(149,134,o),
(103.5,134,q),
(58,134,o),
(58,144,q),
(58,151,o),
(74,163,q),
(149,222,o),
(329,373,q),
(317,450,o),
(297,547,q),
(297,570,o),
(324,570,q),
(330,570,l),
(357,570,o),
(365.5,565,q),
(374,560,o),
(378,537,q),
(395,428,l)
);
}
);
width = 476;
}
);
unicode = 215;
},
{
category = Letter;
glyphname = Oslash;
layers = (
{
layerId = "7e2a03ba-2254-48dc-b40c-8c8f8912cf0a";
name = Fore;
shapes = (
{
closed = 1;
nodes = (
(721,697,o),
(752,697,q),
(783,697,o),
(783,686,q),
(783,681,o),
(776,674,q),
(728,627,l),
(747,587,o),
(747,535,q),
(747,483,o),
(724.5,411,q),
(702,339,o),
(658,264,q),
(614,189,o),
(556.5,125.5,q),
(499,62,o),
(420.5,21.5,q),
(342,-19,o),
(262.5,-19,q),
(183,-19,o),
(137,18,q),
(113,-6,o),
(81,-6,q),
(49,-6,o),
(49,4,q),
(49,10,o),
(56,17,q),
(100,62,l),
(79,101,o),
(79,156.5,q),
(79,212,o),
(101.5,284,q),
(124,356,o),
(168,431,q),
(212,506,o),
(269.5,569,q),
(327,632,o),
(405.5,672.5,q),
(484,713,o),
(565.5,713,q),
(647,713,o),
(695,671,q)
);
},
{
closed = 1;
nodes = (
(610,658,o),
(547,658,q),
(484,658,o),
(403,576,q),
(322,494,o),
(264,377,q),
(206,260,o),
(202,165,q),
(457,422,o),
(624,596,q)
);
},
{
closed = 1;
nodes = (
(226,42,o),
(285.5,42,q),
(345,42,o),
(424.5,121.5,q),
(504,201,o),
(562,315,q),
(620,429,o),
(628,524,q),
(417,310,o),
(209,94,q)
);
}
);
width = 602;
}
);
unicode = 216;
},
{
category = Letter;
glyphname = Ugrave;
layers = (
{
layerId = "7e2a03ba-2254-48dc-b40c-8c8f8912cf0a";
name = Fore;
shapes = (
{
closed = 1;
nodes = (
(145,-25,o),
(97.5,9,q),
(50,43,o),
(50,105,q),
(50,145,o),
(89.5,223.5,q),
(129,302,o),
(197.5,416,q),
(266,530,o),
(295.5,588.5,q),
(325,647,o),
(325,684,q),
(325,694,o),
(331,700,q),
(345,714,o),
(427,714,q),
(481,714,o),
(481,693,q),
(481,683,o),
(474,676,q),
(419,599,o),
(305,402,q),
(191,205,o),
(191,151,q),
(191,72,o),
(263,72,q),
(328,72,o),
(364,106,q),
(391,133,o),
(409,162,q),
(449,223,o),
(513,353.5,q),
(577,484,o),
(627.5,585.5,q),
(678,687,o),
(698.5,703.5,q),
(719,720,o),
(770.5,720,q),
(822,720,o),
(822,708,q),
(822,700,o),
(804.5,679,q),
(787,658,o),
(753,606,q),
(719,554,o),
(674.5,482,q),
(630,410,o),
(597,355,q),
(564,300,o),
(519.5,224.5,q),
(475,149,o),
(467,136,q),
(373,-25,o),
(217,-25,q)
);
},
{
closed = 1;
nodes = (
(564,863,o),
(572.5,863,q),
(581,863,o),
(584.5,860.5,q),
(588,858,o),
(589.5,855.5,q),
(591,853,o),
(594,846,q),
(600,835,l),
(610,817,o),
(625,796,q),
(658,748,o),
(658,744,q),
(658,740,o),
(648,740,q),
(641,740,l),
(617,744,o),
(569.5,775.5,q),
(522,807,o),
(522,823,q),
(522,839,o),
(543,851,q)
);
}
);
width = 503;
}
);
unicode = 217;
},
{
category = Letter;
glyphname = Uacute;
layers = (
{
layerId = "7e2a03ba-2254-48dc-b40c-8c8f8912cf0a";
name = Fore;
shapes = (
{
closed = 1;
nodes = (
(145,-25,o),
(97.5,9,q),
(50,43,o),
(50,105,q),
(50,145,o),
(89.5,223.5,q),
(129,302,o),
(197.5,416,q),
(266,530,o),
(295.5,588.5,q),
(325,647,o),
(325,684,q),
(325,694,o),
(331,700,q),
(337,706,o),
(360,710,q),
(383,714,o),
(432,714,q),
(481,714,o),
(481,693,q),
(481,684,o),
(474,676,q),
(419,599,o),
(305,402,q),
(191,205,o),
(191,151,q),
(191,72,o),
(263,72,q),
(295,72,o),
(325.5,82,q),
(356,92,o),
(390,134,q),
(429,182,o),
(513,354,q),
(577,484,o),
(627.5,585.5,q),
(678,687,o),
(698.5,703.5,q),
(719,720,o),
(770.5,720,q),
(822,720,o),
(822,708,q),
(822,700,o),
(796.5,669,q),
(771,638,o),
(674,482,q),
(630,410,o),
(597,355,q),
(564,300,o),
(519.5,224.5,q),
(475,149,o),
(467,136,q),
(373,-25,o),
(217,-25,q)
);
},
{
closed = 1;
nodes = (
(699,795,o),
(645.5,770.5,q),
(592,746,o),
(571.5,746,q),
(551,746,o),
(551,754,q),
(551,758,o),
(581,788,q),
(611,818,o),
(618,827,q),
(625,836,o),
(628.5,841,q),
(632,846,o),
(634,848.5,q),
(636,851,o),
(638,854,q),
(643,858,o),
(651.5,858,q),
(660,858,o),
(679.5,842.5,q),
(699,827,o),
(699,811,q)
);
}
);
width = 503;
}
);
unicode = 218;
},
{
category = Letter;
glyphname = Ucircumflex;
layers = (
{
layerId = "7e2a03ba-2254-48dc-b40c-8c8f8912cf0a";
name = Fore;
shapes = (
{
closed = 1;
nodes = (
(145,-25,o),
(97.5,9,q),
(50,43,o),
(50,105,q),
(50,145,o),
(89.5,223.5,q),
(129,302,o),
(197.5,416,q),
(266,530,o),
(295.5,588.5,q),
(325,647,o),
(325,684,q),
(325,694,o),
(331,700,q),
(337,706,o),
(360,710,q),
(383,714,o),
(432,714,q),
(481,714,o),
(481,693,q),
(481,684,o),
(474,676,q),
(419,599,o),
(305,402,q),
(191,205,o),
(191,151,q),
(191,72,o),
(263,72,q),
(295,72,o),
(325.5,82,q),
(356,92,o),
(390,134,q),
(429,182,o),
(513,354,q),
(577,484,o),
(627.5,585.5,q),
(678,687,o),
(698.5,703.5,q),
(719,720,o),
(770.5,720,q),
(822,720,o),
(822,708,q),
(822,700,o),
(796.5,669,q),
(771,638,o),
(674,482,q),
(630,410,o),
(597,355,q),
(564,300,o),
(519.5,224.5,q),
(475,149,o),
(467,136,q),
(373,-25,o),
(217,-25,q)
);
},
{
closed = 1;
nodes = (
(686,755,l),
(686,742,o),
(677,742,q),
(657,742,o),
(636,783,q),
(633,789,o),
(628,789,q),
(623,789,o),
(617,785,q),
(563,749,o),
(533,749,q),
(503,749,o),
(503,757,q),
(503,760,o),
(514,770,q),
(560,816,o),
(571,832,q),
(582,848,o),
(587,851.5,q),
(592,855,o),
(604.5,855,q),
(617,855,o),
(631,841,q),
(636,837,o),
(641,837,q),
(646,837,o),
(661.5,846.5,q),
(677,856,o),
(699,856,q),
(709,855,o),
(709,845,q)
);
}
);
width = 503;
}
);
unicode = 219;
},
{
category = Letter;
glyphname = Udieresis;
layers = (
{
layerId = "7e2a03ba-2254-48dc-b40c-8c8f8912cf0a";
name = Fore;
shapes = (
{
closed = 1;
nodes = (
(145,-25,o),
(97.5,9,q),
(50,43,o),
(50,105,q),
(50,145,o),
(89.5,223.5,q),
(129,302,o),
(197.5,416,q),
(266,530,o),
(295.5,588.5,q),
(325,647,o),
(325,684,q),
(325,694,o),
(331,700,q),
(345,714,o),
(427,714,q),
(481,714,o),
(481,693,q),
(481,683,o),
(474,676,q),
(419,599,o),
(305,402,q),
(191,205,o),
(191,151,q),
(191,72,o),
(263,72,q),
(328,72,o),
(364,106,q),
(391,133,o),
(409,162,q),
(449,223,o),
(513,353.5,q),
(577,484,o),
(627.5,585.5,q),
(678,687,o),
(698.5,703.5,q),
(719,720,o),
(770.5,720,q),
(822,720,o),
(822,708,q),
(822,700,o),
(804.5,679,q),
(787,658,o),
(753,606,q),
(719,554,o),
(674.5,482,q),
(630,410,o),
(597,355,q),
(564,300,o),
(519.5,224.5,q),
(475,149,o),
(467,136,q),
(373,-25,o),
(217,-25,q)
);
},
{
closed = 1;
nodes = (
(583,836,o),
(583,804,q),
(583,788,o),
(562,770,q),
(541,752,o),
(519,752,q),
(476,752,o),
(476,781,q),
(476,801,o),
(497.5,818.5,q),
(519,836,o),
(546,836,q)
);
},
{
closed = 1;
nodes = (
(768,836,o),
(768,804,q),
(768,788,o),
(747.5,770,q),
(727,752,o),
(704,752,q),
(661,752,o),
(661,781,q),
(661,801,o),
(682.5,818.5,q),
(704,836,o),
(731,836,q)
);
}
);
width = 503;
}
);
unicode = 220;
},
{
category = Letter;
glyphname = Yacute;
layers = (
{
layerId = "7e2a03ba-2254-48dc-b40c-8c8f8912cf0a";
name = Fore;
shapes = (
{
closed = 1;
nodes = (
(191,662,o),
(185,674,q),
(179,686,o),
(179,694,q),
(179,714,o),
(257.5,714,q),
(336,714,o),
(336,677,q),
(336,652,o),
(319.5,556.5,q),
(303,461,o),
(301,422,q),
(303,390,o),
(321,390,q),
(333,390,o),
(348,403,q),
(409,457,o),
(485,539.5,q),
(561,622,o),
(586,654.5,q),
(611,687,o),
(629,694,q),
(668,710,o),
(728,710,q),
(788,710,o),
(788,692,q),
(788,682,o),
(771,672,q),
(707,635,o),
(550.5,504,q),
(394,373,o),
(322,296,q),
(293,265,o),
(224,136.5,q),
(155,8,o),
(130,-9,q),
(107,-29,o),
(62,-29,q),
(17,-29,o),
(17,-12,q),
(17,-9,l),
(17,-2,o),
(50,53,q),
(157,228,o),
(170,273,q),
(192,345,o),
(192,514,q),
(191,620,l)
);
},
{
closed = 1;
nodes = (
(580,785,o),
(526.5,760.5,q),
(473,736,o),
(452.5,736,q),
(432,736,o),
(432,744,q),
(432,748,o),
(462,778,q),
(492,808,o),
(499,817,q),
(506,826,o),
(509.5,831,q),
(513,836,o),
(515,838.5,q),
(517,841,o),
(520,844,q),
(524,848,o),
(532.5,848,q),
(541,848,o),
(560.5,832.5,q),
(580,817,o),
(580,801,q)
);
}
);
width = 355;
}
);
unicode = 221;
},
{
category = Letter;
glyphname = Thorn;
layers = (
{
layerId = "7e2a03ba-2254-48dc-b40c-8c8f8912cf0a";
name = Fore;
shapes = (
{
closed = 1;
nodes = (
(484,577,l),
(610,577,o),
(659.5,542.5,q),
(709,508,o),
(709,441,q),
(709,376,o),
(680,322,q),
(651,268,o),
(614.5,234.5,q),
(578,201,o),
(509,177,q),
(440,153,o),
(349,153,q),
(188,153,o),
(152,69,q),
(129,13,o),
(127,7,q),
(119,-16,o),
(88,-29.5,q),
(57,-43,o),
(30,-44,q),
(2,-46,l),
(-28,-46,o),
(-28,-33,q),
(-28,-30,l),
(-28,-3,o),
(150,290,q),
(216,399,o),
(272,508.5,q),
(328,618,o),
(328,659,q),
(328,675,l),
(328,701,o),
(435,701,q),
(489,701,o),
(489,681,q),
(489,673,o),
(476.5,658,q),
(464,643,o),
(421,576,q)
);
},
{
closed = 1;
nodes = (
(253,249,o),
(253,236.5,q),
(253,224,o),
(267,220,q),
(281,216,o),
(334.5,216,q),
(388,216,o),
(438.5,235,q),
(489,254,o),
(518,281,q),
(547,308,o),
(566,341,q),
(598,397,o),
(598,432,q),
(598,467,o),
(588.5,484.5,q),
(579,502,o),
(560,509,q),
(531,520,o),
(492.5,520,q),
(454,520,o),
(422,509,q),
(390,498,o),
(382,486,q),
(362,456,o),
(307.5,352.5,q)
);
}
);
width = 577;
}
);
unicode = 222;
},
{
category = Letter;
glyphname = germandbls;
layers = (
{
layerId = "7e2a03ba-2254-48dc-b40c-8c8f8912cf0a";
name = Fore;
shapes = (
{
closed = 1;
nodes = (
(198,43,o),
(207.5,42.5,q),
(217,42,o),
(219,42,q),
(289,42,o),
(370.5,92,q),
(452,142,o),
(452,200,q),
(452,235,o),
(438,260,q),
(424,285,o),
(408,296,q),
(364,326,o),
(364,362,q),
(364,404,o),
(492,448,q),
(541,464,o),
(581,496.5,q),
(621,529,o),
(621,572,q),
(621,622,o),
(543,622,q),
(508,622,o),
(475,608.5,q),
(442,595,o),
(425,573,q),
(380,516,o),
(259,293.5,q),
(138,71,o),
(112,8,q),
(96,-29,o),
(14,-29,q),
(-19,-29,o),
(-19,-16,q),
(-19,-14,l),
(-19,-4,o),
(51.5,114.5,q),
(122,233,o),
(208.5,380.5,q),
(295,528,o),
(323,593,q),
(359,677,o),
(563,677,q),
(612,677,o),
(654,666,q),
(738,644,o),
(738,579,q),
(738,542,o),
(711.5,512.5,q),
(685,483,o),
(647.5,463.5,q),
(610,444,o),
(573,427,q),
(536,410,o),
(509.5,391,q),
(483,372,o),
(483,350,q),
(483,328,o),
(522,282.5,q),
(561,237,o),
(561,201,q),
(561,122,o),
(470.5,57.5,q),
(380,-7,o),
(268,-7,q),
(192,-7,o),
(192,34,q)
);
}
);
width = 547;
}
);
unicode = 223;
},
{
category = Letter;
glyphname = agrave;
layers = (
{
layerId = "7e2a03ba-2254-48dc-b40c-8c8f8912cf0a";
name = Fore;
shapes = (
{
closed = 1;
nodes = (
(342,554,o),
(350.5,554,q),
(359,554,o),
(362.5,551.5,q),
(366,549,o),
(367.5,546.5,q),
(369,544,o),
(372,537,q),
(378,526,l),
(388,508,o),
(403,486,q),
(436,439,o),
(436,435,q),
(436,431,o),
(426,431,q),
(419,431,l),
(395,435,o),
(347.5,466.5,q),
(300,498,o),
(300,514,q),
(300,530,o),
(321,542,q)
);
},
{
closed = 1;
nodes = (
(252,56,l),
(252,64,o),
(246,64,q),
(237,64,o),
(209.5,38,q),
(182,12,o),
(140.5,-14.5,q),
(99,-41,o),
(57.5,-41,q),
(16,-41,o),
(16,20,q),
(16,96,o),
(82,195,q),
(116,245,o),
(160.5,287.5,q),
(205,330,o),
(269,357.5,q),
(333,385,o),
(403,385,q),
(440,385,o),
(466,365.5,q),
(492,346,o),
(492,317.5,q),
(492,289,o),
(475,289,q),
(466,289,o),
(451,300,q),
(423,319,o),
(363,319,q),
(284,319,o),
(213.5,247.5,q),
(143,176,o),
(143,106,q),
(143,97,o),
(148.5,89,q),
(154,81,o),
(164,81,q),
(194,81,o),
(241,122.5,q),
(288,164,o),
(333,242,q),
(336,251,o),
(355,259,q),
(374,267,o),
(400,267,q),
(437,264,o),
(437,251,q),
(437,250,o),
(429.5,238.5,q),
(422,227,o),
(403,197,q),
(384,167,o),
(349.5,98.5,q),
(315,30,o),
(309,-10,q),
(308,-22,o),
(299,-22,q),
(250,-22,o),
(250,35,q)
);
}
);
width = 400;
}
);
unicode = 224;
},
{
category = Letter;
glyphname = aacute;
layers = (
{
layerId = "7e2a03ba-2254-48dc-b40c-8c8f8912cf0a";
name = Fore;
shapes = (
{
closed = 1;
nodes = (
(495,488,o),
(441.5,463.5,q),
(388,439,o),
(367.5,439,q),
(347,439,o),
(347,447,q),
(347,451,o),
(377,481,q),
(407,511,o),
(414,520,q),
(421,529,o),
(424.5,534,q),
(428,539,o),
(430,541.5,q),
(432,544,o),
(434,546,q),
(439,551,o),
(447.5,551,q),
(456,551,o),
(475.5,535.5,q),
(495,520,o),
(495,504,q)
);
},
{
closed = 1;
nodes = (
(252,64,o),
(243.5,64,q),
(235,64,o),
(178,12,q),
(157,-8,o),
(123.5,-24.5,q),
(90,-41,o),
(57,-41,q),
(16,-41,o),
(16,20,q),
(16,96,o),
(82,195,q),
(116,245,o),
(160.5,287.5,q),
(205,330,o),
(269,357.5,q),
(333,385,o),
(403,385,q),
(440,385,o),
(470,362,q),
(492,346,o),
(492,317.5,q),
(492,289,o),
(475,289,q),
(466,289,o),
(444.5,304,q),
(423,319,o),
(363,319,q),
(284,319,o),
(213.5,247.5,q),
(143,176,o),
(143,106,q),
(143,97,o),
(148.5,89,q),
(154,81,o),
(164,81,q),
(194,81,o),
(241,122.5,q),
(288,164,o),
(333,242,q),
(337,248,l),
(341,254,o),
(357.5,260.5,q),
(374,267,o),
(400,267,q),
(437,263,o),
(437,251,q),
(437,250,o),
(435,246,q),
(406,202,l),
(378,158,o),
(346.5,94,q),
(315,30,o),
(309,-10,q),
(308,-22,o),
(299,-22,q),
(250,-22,o),
(250,35,q),
(252,56,l)
);
}
);
width = 400;
}
);
unicode = 225;
},
{
category = Letter;
glyphname = acircumflex;
layers = (
{
layerId = "7e2a03ba-2254-48dc-b40c-8c8f8912cf0a";
name = Fore;
shapes = (
{
closed = 1;
nodes = (
(475,446,l),
(475,433,o),
(466,433,q),
(446,433,o),
(425,474,q),
(422,480,o),
(417,480,q),
(412,480,o),
(406,476,q),
(352,440,o),
(322,440,q),
(292,440,o),
(292,448,q),
(292,451,o),
(302,462,q),
(348,508,o),
(359.5,523.5,q),
(371,539,o),
(376,542.5,q),
(381,546,o),
(393.5,546,q),
(406,546,o),
(420,532,q),
(425,528,o),
(430.5,528,q),
(436,528,o),
(451,537.5,q),
(466,547,o),
(488,547,q),
(498,546,o),
(498,536,q)
);
},
{
closed = 1;
nodes = (
(252,64,o),
(243.5,64,q),
(235,64,o),
(178,12,q),
(157,-8,o),
(123.5,-24.5,q),
(90,-41,o),
(57,-41,q),
(16,-41,o),
(16,20,q),
(16,96,o),
(82,195,q),
(116,245,o),
(160.5,287.5,q),
(205,330,o),
(269,357.5,q),
(333,385,o),
(403,385,q),
(440,385,o),
(470,362,q),
(492,346,o),
(492,317.5,q),
(492,289,o),
(475,289,q),
(466,289,o),
(444.5,304,q),
(423,319,o),
(363,319,q),
(284,319,o),
(213.5,247.5,q),
(143,176,o),
(143,106,q),
(143,97,o),
(148.5,89,q),
(154,81,o),
(164,81,q),
(194,81,o),
(241,122.5,q),
(288,164,o),
(333,242,q),
(337,248,l),
(341,254,o),
(357.5,260.5,q),
(374,267,o),
(400,267,q),
(437,263,o),
(437,251,q),
(437,250,o),
(435,246,q),
(406,202,l),
(378,158,o),
(346.5,94,q),
(315,30,o),
(309,-10,q),
(308,-22,o),
(299,-22,q),
(250,-22,o),
(250,35,q),
(252,56,l)
);
}
);
width = 400;
}
);
unicode = 226;
},
{
category = Letter;
glyphname = atilde;
layers = (
{
layerId = "7e2a03ba-2254-48dc-b40c-8c8f8912cf0a";
name = Fore;
shapes = (
{
closed = 1;
nodes = (
(424,428,o),
(364,428,q),
(304,428,o),
(304,449,q),
(304,462,o),
(326.5,486,q),
(349,510,o),
(362,510,q),
(392,494,o),
(435,494,q),
(478,494,o),
(515,500,q),
(517,500,l),
(522,500,o),
(522,492,q),
(522,484,o),
(509,469.5,q),
(496,455,o),
(460,441.5,q)
);
},
{
closed = 1;
nodes = (
(252,56,l),
(252,64,o),
(246,64,q),
(237,64,o),
(209.5,38,q),
(182,12,o),
(140.5,-14.5,q),
(99,-41,o),
(57.5,-41,q),
(16,-41,o),
(16,20,q),
(16,96,o),
(82,195,q),
(116,245,o),
(160.5,287.5,q),
(205,330,o),
(269,357.5,q),
(333,385,o),
(403,385,q),
(440,385,o),
(466,365.5,q),
(492,346,o),
(492,317.5,q),
(492,289,o),
(475,289,q),
(466,289,o),
(451,300,q),
(423,319,o),
(363,319,q),
(284,319,o),
(213.5,247.5,q),
(143,176,o),
(143,106,q),
(143,97,o),
(148.5,89,q),
(154,81,o),
(164,81,q),
(194,81,o),
(241,122.5,q),
(288,164,o),
(333,242,q),
(336,251,o),
(355,259,q),
(374,267,o),
(400,267,q),
(437,264,o),
(437,251,q),
(437,250,o),
(429.5,238.5,q),
(422,227,o),
(403,197,q),
(384,167,o),
(349.5,98.5,q),
(315,30,o),
(309,-10,q),
(308,-22,o),
(299,-22,q),
(250,-22,o),
(250,35,q)
);
}
);
width = 400;
}
);
unicode = 227;
},
{
category = Letter;
glyphname = adieresis;
layers = (
{
layerId = "7e2a03ba-2254-48dc-b40c-8c8f8912cf0a";
name = Fore;
shapes = (
{
closed = 1;
nodes = (
(375,528,o),
(375,496,q),
(375,480,o),
(354,462,q),
(333,444,o),
(311,444,q),
(268,444,o),
(268,473,q),
(268,493,o),
(289.5,510.5,q),
(311,528,o),
(338,528,q)
);
},
{
closed = 1;
nodes = (
(560,528,o),
(560,496,q),
(560,480,o),
(539.5,462,q),
(519,444,o),
(496,444,q),
(453,444,o),
(453,473,q),
(453,493,o),
(474.5,510.5,q),
(496,528,o),
(523,528,q)
);
},
{
closed = 1;
nodes = (
(252,56,l),
(252,64,o),
(246,64,q),
(237,64,o),
(209.5,38,q),
(182,12,o),
(140.5,-14.5,q),
(99,-41,o),
(57.5,-41,q),
(16,-41,o),
(16,20,q),
(16,96,o),
(82,195,q),
(116,245,o),
(160.5,287.5,q),
(205,330,o),
(269,357.5,q),
(333,385,o),
(403,385,q),
(440,385,o),
(466,365.5,q),
(492,346,o),
(492,317.5,q),
(492,289,o),
(475,289,q),
(466,289,o),
(451,300,q),
(423,319,o),
(363,319,q),
(284,319,o),
(213.5,247.5,q),
(143,176,o),
(143,106,q),
(143,97,o),
(148.5,89,q),
(154,81,o),
(164,81,q),
(194,81,o),
(241,122.5,q),
(288,164,o),
(333,242,q),
(336,251,o),
(355,259,q),
(374,267,o),
(400,267,q),
(437,264,o),
(437,251,q),
(437,250,o),
(429.5,238.5,q),
(422,227,o),
(403,197,q),
(384,167,o),
(349.5,98.5,q),
(315,30,o),
(309,-10,q),
(308,-22,o),
(299,-22,q),
(250,-22,o),
(250,35,q)
);
}
);
width = 400;
}
);
unicode = 228;
},
{
category = Letter;
glyphname = aring;
layers = (
{
layerId = "7e2a03ba-2254-48dc-b40c-8c8f8912cf0a";
name = Fore;
shapes = (
{
closed = 1;
nodes = (
(440,511,o),
(421,511,q),
(402,511,o),
(389,500.5,q),
(376,490,o),
(376,478,q),
(376,461,o),
(396,461,q),
(416,461,o),
(428,472,q),
(440,483,o),
(440,495,q)
);
},
{
closed = 1;
nodes = (
(335,499,o),
(365.5,521.5,q),
(396,544,o),
(424,544,q),
(452,544,o),
(467,533.5,q),
(482,523,o),
(482,500.5,q),
(482,478,o),
(453,453.5,q),
(424,429,o),
(394,429,q),
(364,429,o),
(349.5,439.5,q),
(335,450,o),
(335,467,q)
);
},
{
closed = 1;
nodes = (
(252,64,o),
(243.5,64,q),
(235,64,o),
(178,12,q),
(157,-8,o),
(123.5,-24.5,q),
(90,-41,o),
(57,-41,q),
(16,-41,o),
(16,20,q),
(16,96,o),
(82,195,q),
(116,245,o),
(160.5,287.5,q),
(205,330,o),
(269,357.5,q),
(333,385,o),
(403,385,q),
(440,385,o),
(470,362,q),
(492,346,o),
(492,317.5,q),
(492,289,o),
(475,289,q),
(466,289,o),
(444.5,304,q),
(423,319,o),
(363,319,q),
(284,319,o),
(213.5,247.5,q),
(143,176,o),
(143,106,q),
(143,97,o),
(148.5,89,q),
(154,81,o),
(164,81,q),
(194,81,o),
(241,122.5,q),
(288,164,o),
(333,242,q),
(337,248,l),
(341,254,o),
(357.5,260.5,q),
(374,267,o),
(400,267,q),
(437,263,o),
(437,251,q),
(437,250,o),
(435,246,q),
(406,202,l),
(378,158,o),
(346.5,94,q),
(315,30,o),
(309,-10,q),
(308,-22,o),
(299,-22,q),
(250,-22,o),
(250,35,q),
(252,56,l)
);
}
);
width = 400;
}
);
unicode = 229;
},
{
category = Letter;
glyphname = ae;
layers = (
{
layerId = "7e2a03ba-2254-48dc-b40c-8c8f8912cf0a";
name = Fore;
shapes = (
{
closed = 1;
nodes = (
(308,-72,o),
(279.5,-36,q),
(251,0,o),
(251,53,q),
(251,61,l),
(248,64,o),
(246,64,q),
(237,64,o),
(209.5,38,q),
(182,12,o),
(140.5,-14.5,q),
(99,-41,o),
(57.5,-41,q),
(16,-41,o),
(16,20,q),
(16,96,o),
(82,195,q),
(116,245,o),
(160.5,287.5,q),
(205,330,o),
(269,357.5,q),
(333,385,o),
(403,385,q),
(439,385,o),
(468,364,q),
(516,384,o),
(569,384,q),
(602,384,o),
(619,363.5,q),
(636,343,o),
(636,315,q),
(636,257,o),
(595,207,q),
(554,157,o),
(504,131,q),
(454,105,o),
(415.5,101.5,q),
(377,98,o),
(364,87,q),
(351,76,o),
(351,43,q),
(351,10,o),
(366,-7,q),
(381,-24,o),
(396,-30,q),
(411,-36,o),
(411,-42,q),
(411,-56,o),
(396,-64,q),
(381,-72,o),
(363,-72,q)
);
},
{
closed = 1;
nodes = (
(363,319,l),
(284,319,o),
(213.5,247.5,q),
(143,176,o),
(143,106,q),
(143,97,o),
(148.5,89,q),
(154,81,o),
(164,81,q),
(208,81,o),
(274,157,q),
(311,254,o),
(390,318,q)
);
},
{
closed = 1;
nodes = (
(539,321,o),
(511,321,q),
(471,321,o),
(422.5,265,q),
(374,209,o),
(374,164,q),
(374,153,o),
(391,153,q),
(432,153,o),
(485.5,195,q),
(539,237,o),
(539,290,q)
);
}
);
width = 567;
}
);
unicode = 230;
},
{
category = Letter;
glyphname = ccedilla;
layers = (
{
layerId = "7e2a03ba-2254-48dc-b40c-8c8f8912cf0a";
name = Fore;
shapes = (
{
closed = 1;
nodes = (
(333,364,l),
(350,364,o),
(360,381,q),
(368,403,o),
(419,402.5,q),
(470,402,o),
(470,381,q),
(470,378,o),
(447,355,q),
(424,332,o),
(391,289.5,q),
(358,247,o),
(340,204,q),
(338,198,o),
(324.5,198,q),
(311,198,o),
(303,210.5,q),
(295,223,o),
(295,237.5,q),
(295,252,o),
(298.5,263,q),
(302,274,o),
(302,279,q),
(302,298,o),
(281,298,q),
(223,298,o),
(178,231.5,q),
(133,165,o),
(133,110,q),
(133,37,o),
(204,37,q),
(247,37,o),
(279,57,q),
(286,63,o),
(293,63,q),
(304,63,o),
(304,52,q),
(304,28,o),
(260.5,-5.5,q),
(217,-39,o),
(152,-42,q),
(143,-45,o),
(136,-54,q),
(129,-63,o),
(129,-71.5,q),
(129,-80,o),
(139.5,-89.5,q),
(150,-99,o),
(150,-113.5,q),
(150,-128,o),
(133.5,-142,q),
(117,-156,o),
(91.5,-156,q),
(66,-156,o),
(54,-146,q),
(42,-136,o),
(42,-128,q),
(42,-120,o),
(48,-120,q),
(50,-120,o),
(57,-124.5,q),
(64,-129,o),
(77.5,-129,q),
(91,-129,o),
(101.5,-122.5,q),
(112,-116,o),
(112,-105.5,q),
(112,-95,o),
(103,-87,q),
(94,-79,o),
(94,-75,q),
(94,-74,l),
(95,-60,o),
(120,-48,q),
(123,-46,o),
(123,-45,q),
(123,-44,o),
(121,-42,q),
(30,-32,o),
(30,65,q),
(30,101,o),
(51.5,151,q),
(73,201,o),
(108.5,249.5,q),
(144,298,o),
(200,331.5,q),
(256,365,o),
(316,365,q)
);
}
);
width = 340;
}
);
unicode = 231;
},
{
category = Letter;
glyphname = egrave;
layers = (
{
layerId = "7e2a03ba-2254-48dc-b40c-8c8f8912cf0a";
name = Fore;
shapes = (
{
closed = 1;
nodes = (
(84,-57,o),
(57,-22.5,q),
(30,12,o),
(30,62.5,q),
(30,113,o),
(52,168.5,q),
(74,224,o),
(112.5,276,q),
(151,328,o),
(213.5,363.5,q),
(276,399,o),
(348,399,q),
(381,399,o),
(398,378.5,q),
(415,358,o),
(415,330,q),
(415,272,o),
(374,222,q),
(333,172,o),
(283,146,q),
(233,120,o),
(194.5,116.5,q),
(156,113,o),
(143,102,q),
(130,91,o),
(130,58,q),
(130,25,o),
(145,8,q),
(160,-9,o),
(175,-15,q),
(190,-21,o),
(190,-27,q),
(190,-41,o),
(175,-49,q),
(160,-57,o),
(142,-57,q)
);
},
{
closed = 1;
nodes = (
(318,336,o),
(290,336,q),
(250,336,o),
(201.5,280,q),
(153,224,o),
(153,179,q),
(153,168,o),
(170,168,q),
(211,168,o),
(264.5,210,q),
(318,252,o),
(318,305,q)
);
},
{
closed = 1;
nodes = (
(292,554,o),
(300,554,q),
(308,554,o),
(311.5,551.5,q),
(315,549,o),
(316.5,546.5,q),
(318,544,o),
(322,537,q),
(327,526,l),
(337,508,o),
(352,486,q),
(385,439,o),
(385,435,q),
(385,431,o),
(375,431,q),
(368,431,l),
(344,435,o),
(296.5,466.5,q),
(249,498,o),
(249,514,q),
(249,530,o),
(270.5,542,q)
);
}
);
width = 346;
}
);
unicode = 232;
},
{
category = Letter;
glyphname = eacute;
layers = (
{
layerId = "7e2a03ba-2254-48dc-b40c-8c8f8912cf0a";
name = Fore;
shapes = (
{
closed = 1;
nodes = (
(84,-57,o),
(57,-22.5,q),
(30,12,o),
(30,62.5,q),
(30,113,o),
(52,168.5,q),
(74,224,o),
(112.5,276,q),
(151,328,o),
(213.5,363.5,q),
(276,399,o),
(348,399,q),
(381,399,o),
(402,374,q),
(415,358,o),
(415,330,q),
(415,272,o),
(374,222,q),
(333,172,o),
(283,146,q),
(233,120,o),
(194.5,116.5,q),
(156,113,o),
(143,102,q),
(130,91,o),
(130,58,q),
(130,25,o),
(145,8,q),
(160,-9,o),
(175,-15,q),
(190,-21,o),
(190,-27,q),
(190,-41,o),
(175,-49,q),
(160,-57,o),
(142,-57,q)
);
},
{
closed = 1;
nodes = (
(211,168,o),
(264.5,210,q),
(318,252,o),
(318,305,q),
(318,336,o),
(290,336,q),
(250,336,o),
(201.5,280,q),
(153,224,o),
(153,179,q),
(155,168,o),
(170,168,q)
);
},
{
closed = 1;
nodes = (
(470,488,o),
(416.5,463.5,q),
(363,439,o),
(342.5,439,q),
(322,439,o),
(322,447,q),
(322,451,o),
(352,481,q),
(382,511,o),
(389,520,q),
(396,529,o),
(399.5,534,q),
(403,539,o),
(405,541.5,q),
(407,544,o),
(410,546,q),
(414,551,o),
(422.5,551,q),
(431,551,o),
(450.5,535.5,q),
(470,520,o),
(470,504,q)
);
}
);
width = 346;
}
);
unicode = 233;
},
{
category = Letter;
glyphname = ecircumflex;
layers = (
{
layerId = "7e2a03ba-2254-48dc-b40c-8c8f8912cf0a";
name = Fore;
shapes = (
{
closed = 1;
nodes = (
(84,-57,o),
(57,-22.5,q),
(30,12,o),
(30,62.5,q),
(30,113,o),
(52,168.5,q),
(74,224,o),
(112.5,276,q),
(151,328,o),
(213.5,363.5,q),
(276,399,o),
(348,399,q),
(381,399,o),
(402,374,q),
(415,358,o),
(415,330,q),
(415,272,o),
(374,222,q),
(333,172,o),
(283,146,q),
(233,120,o),
(194.5,116.5,q),
(156,113,o),
(143,102,q),
(130,91,o),
(130,58,q),
(130,25,o),
(145,8,q),
(160,-9,o),
(175,-15,q),
(190,-21,o),
(190,-27,q),
(190,-41,o),
(175,-49,q),
(160,-57,o),
(142,-57,q)
);
},
{
closed = 1;
nodes = (
(211,168,o),
(264.5,210,q),
(318,252,o),
(318,305,q),
(318,336,o),
(290,336,q),
(250,336,o),
(201.5,280,q),
(153,224,o),
(153,179,q),
(155,168,o),
(170,168,q)
);
},
{
closed = 1;
nodes = (
(417,446,l),
(417,433,o),
(408,433,q),
(388,433,o),
(367,474,q),
(364,480,o),
(359,480,q),
(354,480,o),
(348,476,q),
(294,440,o),
(264,440,q),
(234,440,o),
(234,448,q),
(234,451,o),
(244,462,q),
(291,508,o),
(302,523.5,q),
(313,539,o),
(318,542.5,q),
(323,546,o),
(335.5,546,q),
(348,546,o),
(362,532,q),
(367,528,o),
(372.5,528,q),
(378,528,o),
(393,537.5,q),
(408,547,o),
(430,547,q),
(440,546,o),
(440,536,q)
);
}
);
width = 346;
}
);
unicode = 234;
},
{
category = Letter;
glyphname = edieresis;
layers = (
{
layerId = "7e2a03ba-2254-48dc-b40c-8c8f8912cf0a";
name = Fore;
shapes = (
{
closed = 1;
nodes = (
(84,-57,o),
(57,-22.5,q),
(30,12,o),
(30,62.5,q),
(30,113,o),
(52,168.5,q),
(74,224,o),
(112.5,276,q),
(151,328,o),
(213.5,363.5,q),
(276,399,o),
(348,399,q),
(381,399,o),
(398,378.5,q),
(415,358,o),
(415,330,q),
(415,272,o),
(374,222,q),
(333,172,o),
(283,146,q),
(233,120,o),
(194.5,116.5,q),
(156,113,o),
(143,102,q),
(130,91,o),
(130,58,q),
(130,25,o),
(145,8,q),
(160,-9,o),
(175,-15,q),
(190,-21,o),
(190,-27,q),
(190,-41,o),
(175,-49,q),
(160,-57,o),
(142,-57,q)
);
},
{
closed = 1;
nodes = (
(318,336,o),
(290,336,q),
(250,336,o),
(201.5,280,q),
(153,224,o),
(153,179,q),
(153,168,o),
(170,168,q),
(211,168,o),
(264.5,210,q),
(318,252,o),
(318,305,q)
);
},
{
closed = 1;
nodes = (
(330,528,o),
(330,496,q),
(330,480,o),
(309,462,q),
(288,444,o),
(266,444,q),
(223,444,o),
(223,473,q),
(223,493,o),
(244.5,510.5,q),
(266,528,o),
(293,528,q)
);
},
{
closed = 1;
nodes = (
(515,528,o),
(515,496,q),
(515,480,o),
(494.5,462,q),
(474,444,o),
(452,444,q),
(408,444,o),
(408,473,q),
(408,493,o),
(429.5,510.5,q),
(451,528,o),
(478,528,q)
);
}
);
width = 346;
}
);
unicode = 235;
},
{
category = Letter;
glyphname = igrave;
layers = (
{
layerId = "7e2a03ba-2254-48dc-b40c-8c8f8912cf0a";
name = Fore;
shapes = (
{
closed = 1;
nodes = (
(58,-51,o),
(41,-33.5,q),
(24,-16,o),
(24,9,q),
(24,23,o),
(89.5,150.5,q),
(155,278,o),
(157,323,q),
(157,337,o),
(175,349,q),
(207,368,o),
(270,368,q),
(282,368,o),
(295.5,363.5,q),
(309,359,o),
(309,351,q),
(309,347,o),
(306,344,q),
(268,296,o),
(195,171,q),
(122,46,o),
(85,-32,q),
(80,-51,o),
(72,-51,q)
);
},
{
closed = 1;
nodes = (
(216,554,o),
(224,554,q),
(232,554,o),
(235.5,551.5,q),
(239,549,o),
(240.5,546.5,q),
(242,544,o),
(246,537,q),
(246,537,o),
(251,526,q),
(261,508,o),
(276,486,q),
(309,439,o),
(309,435,q),
(309,431,o),
(299,431,q),
(292,431,l),
(268,435,o),
(220.5,466.5,q),
(173,498,o),
(173,514,q),
(173,530,o),
(194.5,542,q)
);
}
);
width = 206;
}
);
unicode = 236;
},
{
category = Letter;
glyphname = iacute;
layers = (
{
layerId = "7e2a03ba-2254-48dc-b40c-8c8f8912cf0a";
name = Fore;
shapes = (
{
closed = 1;
nodes = (
(24,-16,o),
(24,9,q),
(24,23,o),
(89.5,150.5,q),
(155,278,o),
(157,323,q),
(158,339,o),
(175,349,q),
(184,354,l),
(194,358,o),
(218,363,q),
(242,368,o),
(262,368,q),
(282,368,o),
(295.5,363.5,q),
(309,359,o),
(309,351,q),
(309,347,o),
(306,344,q),
(268,296,o),
(195,171,q),
(122,46,o),
(85,-32,q),
(79,-51,o),
(67,-51,q),
(58,-51,o),
(41,-33.5,q)
);
},
{
closed = 1;
nodes = (
(383,488,o),
(329.5,463.5,q),
(276,439,o),
(255.5,439,q),
(235,439,o),
(235,447,q),
(235,451,o),
(265,481,q),
(295,511,o),
(302,520,q),
(309,529,o),
(312.5,534,q),
(316,539,o),
(318,541.5,q),
(320,544,o),
(322,546,q),
(327,551,o),
(335.5,551,q),
(344,551,o),
(363.5,535.5,q),
(383,520,o),
(383,504,q)
);
}
);
width = 206;
}
);
unicode = 237;
},
{
category = Letter;
glyphname = icircumflex;
layers = (
{
layerId = "7e2a03ba-2254-48dc-b40c-8c8f8912cf0a";
name = Fore;
shapes = (
{
closed = 1;
nodes = (
(24,-16,o),
(24,9,q),
(24,23,o),
(89.5,150.5,q),
(155,278,o),
(157,323,q),
(158,339,o),
(175,349,q),
(184,354,l),
(194,358,o),
(218,363,q),
(242,368,o),
(262,368,q),
(282,368,o),
(295.5,363.5,q),
(309,359,o),
(309,351,q),
(309,347,o),
(306,344,q),
(268,296,o),
(195,171,q),
(122,46,o),
(85,-32,q),
(79,-51,o),
(67,-51,q),
(58,-51,o),
(41,-33.5,q)
);
},
{
closed = 1;
nodes = (
(361,446,l),
(361,433,o),
(352,433,q),
(332,433,o),
(311,474,q),
(308,480,o),
(303,480,q),
(298,480,o),
(292,476,q),
(238,440,o),
(208,440,q),
(178,440,o),
(178,448,q),
(178,451,o),
(188,462,q),
(234,507,o),
(245.5,523,q),
(257,539,o),
(262,542.5,q),
(267,546,o),
(279.5,546,q),
(292,546,o),
(306,532,q),
(311,528,o),
(316.5,528,q),
(322,528,o),
(337,537.5,q),
(352,547,o),
(374,547,q),
(384,546,o),
(384,536,q)
);
}
);
width = 206;
}
);
unicode = 238;
},
{
category = Letter;
glyphname = idieresis;
layers = (
{
layerId = "7e2a03ba-2254-48dc-b40c-8c8f8912cf0a";
name = Fore;
shapes = (
{
closed = 1;
nodes = (
(58,-51,o),
(41,-33.5,q),
(24,-16,o),
(24,9,q),
(24,23,o),
(89.5,150.5,q),
(155,278,o),
(157,323,q),
(157,337,o),
(175,349,q),
(207,368,o),
(270,368,q),
(282,368,o),
(295.5,363.5,q),
(309,359,o),
(309,351,q),
(309,347,o),
(306,344,q),
(268,296,o),
(195,171,q),
(122,46,o),
(85,-32,q),
(80,-51,o),
(72,-51,q)
);
},
{
closed = 1;
nodes = (
(263,528,o),
(263,496,q),
(263,480,o),
(242,462,q),
(221,444,o),
(199,444,q),
(156,444,o),
(156,473,q),
(156,493,o),
(177.5,510.5,q),
(199,528,o),
(226,528,q)
);
},
{
closed = 1;
nodes = (
(448,528,o),
(448,496,q),
(448,480,o),
(427.5,462,q),
(407,444,o),
(384,444,q),
(341,444,o),
(341,473,q),
(341,493,o),
(362.5,510.5,q),
(384,528,o),
(411,528,q)
);
}
);
width = 206;
}
);
unicode = 239;
},
{
category = Letter;
glyphname = eth;
layers = (
{
layerId = "7e2a03ba-2254-48dc-b40c-8c8f8912cf0a";
name = Fore;
shapes = (
{
closed = 1;
nodes = (
(519,793,o),
(534,799,q),
(589,799,o),
(617.5,759,q),
(646,719,o),
(646,669,q),
(646,661,l),
(691,679,o),
(707,687,q),
(723,695,o),
(729,695,q),
(735,695,o),
(735,678,q),
(735,637,o),
(707,626,q),
(659,606,o),
(633,597,q),
(617,549,o),
(593,505,q),
(569,461,o),
(543.5,418.5,q),
(518,376,o),
(514.5,370,q),
(511,364,o),
(455,271,q),
(337,76,o),
(310,-10,q),
(307,-21,o),
(298,-21,q),
(275,-21,o),
(262,-7,q),
(249,7,o),
(249,32,q),
(251,52,l),
(244,62,l),
(237,62,o),
(228,55,q),
(141,-28,o),
(77,-28,q),
(58,-28,o),
(41.5,-12,q),
(25,4,o),
(25,44,q),
(25,84,o),
(50,141,q),
(75,198,o),
(115.5,250,q),
(156,302,o),
(216,337.5,q),
(276,373,o),
(339,373,q),
(383,373,o),
(397,367,q),
(411,361,o),
(415.5,361,q),
(420,361,o),
(424,365,q),
(493,458,o),
(534,560,q),
(474,537,o),
(453,527,q),
(432,517,o),
(427,517,q),
(419,517,o),
(419,533,q),
(419,575,o),
(447,586,q),
(547,624,o),
(557,628,q),
(565,662,o),
(565,689,q),
(565,716,o),
(556.5,737.5,q),
(548,759,o),
(540,768,q),
(532,776,l),
(519,785,l)
);
},
{
closed = 1;
nodes = (
(375,275,o),
(375,288.5,q),
(375,302,o),
(363,311.5,q),
(351,321,o),
(326,321,q),
(268,321,o),
(204,241.5,q),
(140,162,o),
(140,106,q),
(140,76,o),
(161,76,q),
(189,76,o),
(242,123,q),
(295,170,o),
(335,222.5,q)
);
}
);
width = 424;
}
);
unicode = 240;
},
{
category = Letter;
glyphname = ntilde;
layers = (
{
layerId = "7e2a03ba-2254-48dc-b40c-8c8f8912cf0a";
name = Fore;
shapes = (
{
closed = 1;
nodes = (
(257,-43,o),
(257,-30,q),
(259,-24,l),
(319,66,o),
(362,149.5,q),
(405,233,o),
(405,258,q),
(405,266,o),
(401,270.5,q),
(397,275,o),
(389,276,q),
(350,276,o),
(284.5,226,q),
(219,176,o),
(169.5,123,q),
(120,70,o),
(96,36.5,q),
(72,3,o),
(24,3,q),
(-2,3,o),
(-2,16,q),
(-2,42,o),
(96,199.5,q),
(194,357,o),
(226,369,q),
(243,379,o),
(269.5,379,q),
(296,379,o),
(296,368.5,q),
(296,358,o),
(272,323,q),
(248,288,o),
(248,278,q),
(250,270,o),
(256.5,270,q),
(263,270,o),
(268,274,q),
(416,389,o),
(504,389,q),
(541,389,o),
(541,346,q),
(541,318,o),
(499.5,225,q),
(458,132,o),
(394.5,44.5,q),
(331,-43,o),
(285,-43,q)
);
},
{
closed = 1;
nodes = (
(410,428,o),
(350,428,q),
(290,428,o),
(290,449,q),
(290,462,o),
(312.5,486,q),
(335,510,o),
(348,510,q),
(378,494,o),
(420.5,494,q),
(463,494,o),
(501,500,q),
(503,500,l),
(508,500,o),
(508,492,q),
(508,484,o),
(495,469.5,q),
(482,455,o),
(446,441.5,q)
);
}
);
width = 479;
}
);
unicode = 241;
},
{
category = Letter;
glyphname = ograve;
layers = (
{
layerId = "7e2a03ba-2254-48dc-b40c-8c8f8912cf0a";
name = Fore;
shapes = (
{
closed = 1;
nodes = (
(63,-2,o),
(48.5,26,q),
(34,54,o),
(34,95,q),
(34,159,o),
(75.5,229,q),
(117,299,o),
(192.5,349,q),
(268,399,o),
(352,399,q),
(391,399,o),
(417,378,q),
(443,357,o),
(443,336.5,q),
(443,316,o),
(437,304,q),
(431,292,o),
(431,288,q),
(431,276,o),
(450,276,q),
(469,276,o),
(479,281,q),
(489,286,o),
(491,286,q),
(499,286,o),
(499,265.5,q),
(499,245,o),
(479,217.5,q),
(459,190,o),
(430,177,q),
(426,169,o),
(419,154.5,q),
(412,140,o),
(386,104.5,q),
(360,69,o),
(330.5,41.5,q),
(301,14,o),
(252.5,-8.5,q),
(204,-31,o),
(164,-31,q),
(124,-31,o),
(86,-13,q)
);
},
{
closed = 1;
nodes = (
(309,167,o),
(300,167,q),
(287,167,o),
(270.5,161,q),
(254,155,o),
(252,155,q),
(246,155,o),
(246,164,q),
(246,203,o),
(274,231,q),
(285,243,o),
(306,251.5,q),
(327,260,o),
(338.5,271.5,q),
(350,283,o),
(350,311,q),
(350,345,o),
(314,345,q),
(250,345,o),
(192,254.5,q),
(134,164,o),
(134,93,q),
(134,69,o),
(150.5,52,q),
(167,35,o),
(190,35,q),
(242,35,o),
(275.5,78.5,q),
(309,122,o),
(309,159,q)
);
},
{
closed = 1;
nodes = (
(328,554,o),
(336,554,q),
(344,554,o),
(347.5,551.5,q),
(351,549,o),
(352.5,546.5,q),
(354,544,o),
(358,537,q),
(363,526,l),
(373,508,o),
(388,486,q),
(421,439,o),
(421,435,q),
(421,431,o),
(411,431,q),
(404,431,l),
(380,435,o),
(332.5,466.5,q),
(285,498,o),
(285,514,q),
(285,530,o),
(306.5,542,q)
);
}
);
width = 416;
}
);
unicode = 242;
},
{
category = Letter;
glyphname = oacute;
layers = (
{
layerId = "7e2a03ba-2254-48dc-b40c-8c8f8912cf0a";
name = Fore;
shapes = (
{
closed = 1;
nodes = (
(204,-31,o),
(164,-31,q),
(124,-31,o),
(86,-13,q),
(63,-2,o),
(48.5,26,q),
(34,54,o),
(34,95,q),
(34,159,o),
(75.5,229,q),
(117,299,o),
(192.5,349,q),
(268,399,o),
(352,399,q),
(391,399,o),
(422,374,q),
(443,357,o),
(443,336.5,q),
(443,316,o),
(437,304,q),
(431,292,o),
(431,288,q),
(431,276,o),
(450,276,q),
(469,276,o),
(479,281,q),
(489,286,o),
(491,286,q),
(499,286,o),
(499,265.5,q),
(499,245,o),
(479,217.5,q),
(459,190,o),
(430,177,q),
(420,156,l),
(395,106,o),
(331,42,q),
(300,12,o),
(252,-9.5,q)
);
},
{
closed = 1;
nodes = (
(309,167,o),
(295.5,167,q),
(282,167,o),
(268,161,q),
(254,155,o),
(252,155,q),
(246,155,o),
(246,164,q),
(246,203,o),
(274,231,q),
(285,243,o),
(306,251.5,q),
(327,260,o),
(338.5,271.5,q),
(350,283,o),
(350,311,q),
(350,345,o),
(314,345,q),
(250,345,o),
(192,254.5,q),
(134,164,o),
(134,93,q),
(134,69,o),
(153,50,q),
(167,35,o),
(190,35,q),
(242,35,o),
(275.5,78.5,q),
(309,122,o),
(309,159,q)
);
},
{
closed = 1;
nodes = (
(455,488,o),
(401.5,463.5,q),
(348,439,o),
(327.5,439,q),
(307,439,o),
(307,447,q),
(307,451,o),
(337,481,q),
(367,511,o),
(374,520,q),
(381,529,o),
(384.5,534,q),
(388,539,o),
(390,541.5,q),
(392,544,o),
(394,546,q),
(399,551,o),
(407.5,551,q),
(416,551,o),
(435.5,535.5,q),
(455,520,o),
(455,504,q)
);
}
);
width = 416;
}
);
unicode = 243;
},
{
category = Letter;
glyphname = ocircumflex;
layers = (
{
layerId = "7e2a03ba-2254-48dc-b40c-8c8f8912cf0a";
name = Fore;
shapes = (
{
closed = 1;
nodes = (
(204,-31,o),
(164,-31,q),
(124,-31,o),
(86,-13,q),
(63,-2,o),
(48.5,26,q),
(34,54,o),
(34,95,q),
(34,159,o),
(75.5,229,q),
(117,299,o),
(192.5,349,q),
(268,399,o),
(352,399,q),
(391,399,o),
(422,374,q),
(443,357,o),
(443,336.5,q),
(443,316,o),
(437,304,q),
(431,292,o),
(431,288,q),
(431,276,o),
(450,276,q),
(469,276,o),
(479,281,q),
(489,286,o),
(491,286,q),
(499,286,o),
(499,265.5,q),
(499,245,o),
(479,217.5,q),
(459,190,o),
(430,177,q),
(420,156,l),
(395,106,o),
(331,42,q),
(300,12,o),
(252,-9.5,q)
);
},
{
closed = 1;
nodes = (
(309,167,o),
(295.5,167,q),
(282,167,o),
(268,161,q),
(254,155,o),
(252,155,q),
(246,155,o),
(246,164,q),
(246,203,o),
(274,231,q),
(285,243,o),
(306,251.5,q),
(327,260,o),
(338.5,271.5,q),
(350,283,o),
(350,311,q),
(350,345,o),
(314,345,q),
(250,345,o),
(192,254.5,q),
(134,164,o),
(134,93,q),
(134,69,o),
(153,50,q),
(167,35,o),
(190,35,q),
(242,35,o),
(275.5,78.5,q),
(309,122,o),
(309,159,q)
);
},
{
closed = 1;
nodes = (
(435,446,l),
(435,433,o),
(426,433,q),
(406,433,o),
(385,474,q),
(382,480,o),
(377,480,q),
(372,480,o),
(366,476,q),
(312,440,o),
(282,440,q),
(252,440,o),
(252,448,q),
(252,451,o),
(262,462,q),
(308,508,o),
(319.5,523.5,q),
(331,539,o),
(336,542.5,q),
(341,546,o),
(353.5,546,q),
(366,546,o),
(380,532,q),
(385,528,o),
(390.5,528,q),
(396,528,o),
(411,537.5,q),
(426,547,o),
(448,547,q),
(458,546,o),
(458,536,q)
);
}
);
width = 416;
}
);
unicode = 244;
},
{
category = Letter;
glyphname = otilde;
layers = (
{
layerId = "7e2a03ba-2254-48dc-b40c-8c8f8912cf0a";
name = Fore;
shapes = (
{
closed = 1;
nodes = (
(400,428,o),
(340,428,q),
(280,428,o),
(280,449,q),
(280,462,o),
(302.5,486,q),
(325,510,o),
(338,510,q),
(368,494,o),
(411,494,q),
(454,494,o),
(491,500,q),
(493,500,l),
(498,500,o),
(498,492,q),
(498,484,o),
(485,469.5,q),
(472,455,o),
(436,441.5,q)
);
},
{
closed = 1;
nodes = (
(73,-2,o),
(58.5,26,q),
(44,54,o),
(44,95,q),
(44,159,o),
(85.5,229,q),
(127,299,o),
(202.5,349,q),
(278,399,o),
(362,399,q),
(401,399,o),
(427,378,q),
(453,357,o),
(453,336.5,q),
(453,316,o),
(447,304,q),
(441,292,o),
(441,288,q),
(441,276,o),
(460,276,q),
(479,276,o),
(489,281,q),
(499,286,o),
(501,286,q),
(509,286,o),
(509,265.5,q),
(509,245,o),
(489,217.5,q),
(469,190,o),
(440,177,q),
(436,169,o),
(429,154.5,q),
(422,140,o),
(396,104.5,q),
(370,69,o),
(340.5,41.5,q),
(311,14,o),
(262.5,-8.5,q),
(214,-31,o),
(174,-31,q),
(134,-31,o),
(96,-13,q)
);
},
{
closed = 1;
nodes = (
(319,167,o),
(310,167,q),
(297,167,o),
(280.5,161,q),
(264,155,o),
(262,155,q),
(256,155,o),
(256,164,q),
(256,203,o),
(284,231,q),
(295,243,o),
(316,251.5,q),
(337,260,o),
(348.5,271.5,q),
(360,283,o),
(360,311,q),
(360,345,o),
(324,345,q),
(260,345,o),
(202,254.5,q),
(144,164,o),
(144,93,q),
(144,69,o),
(160.5,52,q),
(177,35,o),
(200,35,q),
(252,35,o),
(285.5,78.5,q),
(319,122,o),
(319,159,q)
);
}
);
width = 426;
}
);
unicode = 245;
},
{
category = Letter;
glyphname = odieresis;
layers = (
{
layerId = "7e2a03ba-2254-48dc-b40c-8c8f8912cf0a";
name = Fore;
shapes = (
{
closed = 1;
nodes = (
(73,-2,o),
(58.5,26,q),
(44,54,o),
(44,95,q),
(44,159,o),
(85.5,229,q),
(127,299,o),
(202.5,349,q),
(278,399,o),
(362,399,q),
(401,399,o),
(427,378,q),
(453,357,o),
(453,336.5,q),
(453,316,o),
(447,304,q),
(441,292,o),
(441,288,q),
(441,276,o),
(460,276,q),
(479,276,o),
(489,281,q),
(499,286,o),
(501,286,q),
(509,286,o),
(509,265.5,q),
(509,245,o),
(489,217.5,q),
(469,190,o),
(440,177,q),
(436,169,o),
(429,154.5,q),
(422,140,o),
(396,104.5,q),
(370,69,o),
(340.5,41.5,q),
(311,14,o),
(262.5,-8.5,q),
(214,-31,o),
(174,-31,q),
(134,-31,o),
(96,-13,q)
);
},
{
closed = 1;
nodes = (
(319,167,o),
(310,167,q),
(297,167,o),
(280.5,161,q),
(264,155,o),
(262,155,q),
(256,155,o),
(256,164,q),
(256,203,o),
(284,231,q),
(295,243,o),
(316,251.5,q),
(337,260,o),
(348.5,271.5,q),
(360,283,o),
(360,311,q),
(360,345,o),
(324,345,q),
(260,345,o),
(202,254.5,q),
(144,164,o),
(144,93,q),
(144,69,o),
(160.5,52,q),
(177,35,o),
(200,35,q),
(252,35,o),
(285.5,78.5,q),
(319,122,o),
(319,159,q)
);
},
{
closed = 1;
nodes = (
(354,528,o),
(354,496,q),
(354,480,o),
(333,462,q),
(312,444,o),
(290,444,q),
(247,444,o),
(247,473,q),
(247,493,o),
(268.5,510.5,q),
(290,528,o),
(317,528,q)
);
},
{
closed = 1;
nodes = (
(539,528,o),
(539,496,q),
(539,480,o),
(518.5,462,q),
(498,444,o),
(476,444,q),
(432,444,o),
(432,473,q),
(432,493,o),
(453.5,510.5,q),
(475,528,o),
(502,528,q)
);
}
);
width = 426;
}
);
unicode = 246;
},
{
category = Letter;
glyphname = divide;
layers = (
{
layerId = "7e2a03ba-2254-48dc-b40c-8c8f8912cf0a";
name = Fore;
shapes = (
{
closed = 1;
nodes = (
(629,398,l),
(643,398,o),
(643,389,q),
(643,374,o),
(622,349,q),
(601,324,o),
(570,324,q),
(495,328,o),
(367,328,q),
(147,323,l),
(134,323,o),
(134,333,q),
(134,346,o),
(155.5,372,q),
(177,398,o),
(207,398,q),
(501,396,l)
);
},
{
closed = 1;
nodes = (
(472,452,o),
(450,452,q),
(408,452,o),
(408,481,q),
(408,501,o),
(429.5,518.5,q),
(451,536,o),
(482.5,536,q),
(514,536,o),
(516,508,q),
(516,488,o),
(494,470,q)
);
},
{
closed = 1;
nodes = (
(326,189,o),
(293.5,189,q),
(261,189,o),
(261,218,q),
(261,238,o),
(282.5,255.5,q),
(304,273,o),
(330,273,q),
(367,273,o),
(369,245,q),
(369,224,o),
(347.5,206.5,q)
);
}
);
width = 538;
}
);
unicode = 247;
},
{
category = Letter;
glyphname = oslash;
layers = (
{
layerId = "7e2a03ba-2254-48dc-b40c-8c8f8912cf0a";
name = Fore;
shapes = (
{
closed = 1;
nodes = (
(214,-31,o),
(173.5,-31,q),
(133,-31,o),
(108,-20,q),
(81,-48,l),
(59,-71,o),
(4,-71,q),
(3,-71,l),
(-22,-71,o),
(-22,-60,q),
(-22,-54,o),
(-8,-40,q),
(-8,-40,o),
(24,-8,q),
(43,11,o),
(59,26,q),
(44,54,o),
(44,95,q),
(44,159,o),
(85.5,229,q),
(127,299,o),
(202.5,349,q),
(278,399,o),
(362,399,q),
(387,399,o),
(414,386,q),
(477,451,o),
(498,474,q),
(519,497,o),
(573,497,q),
(601,497,o),
(601,487,q),
(601,482,o),
(594,475,q),
(453,331,l),
(452,316,o),
(446.5,304,q),
(441,292,o),
(441,288,q),
(441,276,o),
(460,276,q),
(479,276,o),
(489,281,q),
(499,286,o),
(501,286,q),
(509,286,o),
(509,265.5,q),
(509,245,o),
(489,217.5,q),
(469,190,o),
(440,177,q),
(436,169,o),
(429,154.5,q),
(422,140,o),
(396,104.5,q),
(370,69,o),
(340.5,41.5,q),
(311,14,o),
(262.5,-8.5,q)
);
},
{
closed = 1;
nodes = (
(264,345,o),
(209.5,266,q),
(155,187,o),
(145,112,q),
(299,268,o),
(356,327,q),
(347,345,o),
(324,345,q)
);
},
{
closed = 1;
nodes = (
(319,167,o),
(308.5,167,q),
(298,167,o),
(289,164,q),
(170,42,l),
(182,35,o),
(200,35,q),
(252,35,o),
(285.5,78.5,q),
(319,122,o),
(319,159,q)
);
}
);
width = 426;
}
);
unicode = 248;
},
{
category = Letter;
glyphname = ugrave;
layers = (
{
layerId = "7e2a03ba-2254-48dc-b40c-8c8f8912cf0a";
name = Fore;
shapes = (
{
closed = 1;
nodes = (
(295,97,o),
(290,97,q),
(288,97,l),
(273,90,l),
(208,27,o),
(167,3.5,q),
(126,-20,o),
(82,-20,q),
(62,-20,o),
(46,-8,q),
(30,4,o),
(30,38,q),
(30,72,o),
(65,158,q),
(100,244,o),
(152,322.5,q),
(204,401,o),
(243,411,q),
(256,415,o),
(278,415,q),
(300,415,o),
(300,403,q),
(300,399,o),
(264,347.5,q),
(228,296,o),
(192.5,230,q),
(157,164,o),
(157,131,q),
(157,98,o),
(180,98,q),
(223,98,o),
(279,154,q),
(335,210,o),
(426,331,q),
(451,367,o),
(506,367,q),
(536,367,o),
(536,355,q),
(536,352,o),
(533,347,q),
(376,105,o),
(344,0,q),
(340,-12,o),
(334,-12,q),
(331,-12,l),
(291,-12,o),
(291,52,q),
(295,90,l)
);
},
{
closed = 1;
nodes = (
(360,554,o),
(368,554,q),
(376,554,o),
(379.5,551.5,q),
(383,549,o),
(384.5,546.5,q),
(386,544,o),
(390,537,q),
(395,526,l),
(405,508,o),
(420,486,q),
(453,439,o),
(453,435,q),
(453,431,o),
(443,431,q),
(436,431,l),
(412,435,o),
(364.5,466.5,q),
(317,498,o),
(317,514,q),
(317,530,o),
(338.5,542,q)
);
}
);
width = 444;
}
);
unicode = 249;
},
{
category = Letter;
glyphname = uacute;
layers = (
{
layerId = "7e2a03ba-2254-48dc-b40c-8c8f8912cf0a";
name = Fore;
shapes = (
{
closed = 1;
nodes = (
(295,97,o),
(287,97,q),
(279,97,o),
(273,90,q),
(208,27,o),
(167,3.5,q),
(126,-20,o),
(82,-20,q),
(62,-20,o),
(46,-8,q),
(30,4,o),
(30,38,q),
(30,72,o),
(65,158,q),
(100,244,o),
(152,322.5,q),
(204,401,o),
(243,411,q),
(256,415,o),
(278,415,q),
(300,415,o),
(300,403,q),
(300,399,o),
(264,347.5,q),
(228,296,o),
(192.5,230,q),
(157,164,o),
(157,131,q),
(157,98,o),
(180,98,q),
(223,98,o),
(279,154,q),
(335,210,o),
(426,331,q),
(451,367,o),
(506,367,q),
(536,367,o),
(536,355,q),
(536,352,o),
(533,347,q),
(493,284,l),
(453,220,o),
(405.5,133.5,q),
(358,47,o),
(344,0,q),
(340,-13,o),
(331,-12,q),
(291,-12,o),
(291,52,q),
(295,90,l)
);
},
{
closed = 1;
nodes = (
(517,488,o),
(463.5,463.5,q),
(410,439,o),
(389.5,439,q),
(369,439,o),
(369,447,q),
(369,451,o),
(399,481,q),
(429,511,o),
(436,520,q),
(443,529,o),
(446.5,534,q),
(450,539,o),
(452,541.5,q),
(454,544,o),
(456,546,q),
(461,551,o),
(469.5,551,q),
(478,551,o),
(497.5,535.5,q),
(517,520,o),
(517,504,q)
);
}
);
width = 444;
}
);
unicode = 250;
},
